G04*
G04 #@! TF.GenerationSoftware,Altium Limited,Altium Designer,18.0.9 (584)*
G04*
G04 Layer_Color=65535*
%FSLAX25Y25*%
%MOIN*%
G70*
G01*
G75*
%ADD10C,0.00984*%
%ADD11C,0.02362*%
%ADD12C,0.01000*%
%ADD13C,0.00787*%
D10*
X327894Y252992D02*
G03*
X327894Y252992I-492J0D01*
G01*
X364488Y246241D02*
G03*
X364488Y246241I-492J0D01*
G01*
X353311Y233261D02*
G03*
X353311Y233261I-492J0D01*
G01*
X485039Y125000D02*
G03*
X485039Y125000I-492J0D01*
G01*
X587677Y249606D02*
G03*
X587677Y249606I-492J0D01*
G01*
X614094Y222835D02*
G03*
X614094Y222835I-492J0D01*
G01*
X578661Y281890D02*
G03*
X578661Y281890I-492J0D01*
G01*
X552244Y190551D02*
G03*
X552244Y190551I-492J0D01*
G01*
D11*
X374795Y248593D02*
G03*
X374795Y248593I-1181J0D01*
G01*
X357480Y225048D02*
G03*
X357480Y225048I-1181J0D01*
G01*
D12*
X659449Y59055D02*
G03*
X659449Y59055I-37402J0D01*
G01*
X568898D02*
G03*
X568898Y59055I-37402J0D01*
G01*
X438976D02*
G03*
X438976Y59055I-37402J0D01*
G01*
X348425D02*
G03*
X348425Y59055I-37402J0D01*
G01*
X218504D02*
G03*
X218504Y59055I-37402J0D01*
G01*
X127953D02*
G03*
X127953Y59055I-37402J0D01*
G01*
X446850Y135827D02*
X447835D01*
X446850Y116142D02*
Y135827D01*
Y116142D02*
X450787D01*
X465551Y135827D02*
X466535D01*
Y116142D02*
Y135827D01*
X462598Y116142D02*
X466535D01*
D13*
X319904Y234394D02*
X324080Y230219D01*
X302505Y226739D02*
X308073Y232307D01*
X300417Y214907D02*
X304593Y210731D01*
X316424Y212819D02*
X321992Y218387D01*
X326220Y244921D02*
Y249252D01*
X323071Y244921D02*
X326220D01*
X314409D02*
Y249252D01*
Y244921D02*
X317559D01*
X380000Y327579D02*
X381535D01*
Y262579D02*
Y327579D01*
X380000Y262579D02*
X381535D01*
X311535Y327579D02*
X313071D01*
X311535Y262579D02*
Y327579D01*
Y262579D02*
X313071D01*
X344567Y262598D02*
X363268D01*
X381687Y234952D02*
X390317Y243582D01*
X368046Y248593D02*
X376676Y257223D01*
X390317Y243582D01*
X368046Y248593D02*
X381687Y234952D01*
X302849Y177165D02*
X356299Y230616D01*
Y123715D02*
X409750Y177165D01*
X356299Y230616D02*
X409750Y177165D01*
X302849D02*
X356299Y123715D01*
X483268Y117323D02*
Y121260D01*
X480217Y117323D02*
X483268D01*
X471457D02*
Y121260D01*
Y117323D02*
X474508D01*
X586909Y259842D02*
Y284941D01*
Y259842D02*
X587894D01*
X586909Y284941D02*
X587894D01*
X613681Y259842D02*
Y284941D01*
X612697Y259842D02*
X613681D01*
X612697Y284941D02*
X613681D01*
X613878Y187500D02*
Y212598D01*
X612894D02*
X613878D01*
X612894Y187500D02*
X613878D01*
X587106D02*
Y212598D01*
X588091D01*
X587106Y187500D02*
X588091D01*
X578445Y246555D02*
Y271654D01*
X577461D02*
X578445D01*
X577461Y246555D02*
X578445D01*
X551673D02*
Y271654D01*
X552658D01*
X551673Y246555D02*
X552658D01*
X551476Y200787D02*
Y225886D01*
Y200787D02*
X552461D01*
X551476Y225886D02*
X552461D01*
X578248Y200787D02*
Y225886D01*
X577264Y200787D02*
X578248D01*
X577264Y225886D02*
X578248D01*
M02*
