G04*
G04 #@! TF.GenerationSoftware,Altium Limited,Altium Designer,18.0.9 (584)*
G04*
G04 Layer_Physical_Order=3*
G04 Layer_Color=16440176*
%FSLAX25Y25*%
%MOIN*%
G70*
G01*
G75*
%ADD13C,0.00787*%
%ADD63C,0.05906*%
%ADD71C,0.03937*%
%ADD72C,0.01575*%
%ADD74P,0.30901X4X360.0*%
%ADD76C,0.09843*%
%ADD77C,0.09095*%
%ADD81C,0.23622*%
%ADD82C,0.03000*%
G36*
X688503Y344185D02*
X690746Y343584D01*
X692892Y342695D01*
X694903Y341534D01*
X696746Y340120D01*
X698388Y338478D01*
X699802Y336636D01*
X700963Y334624D01*
X701852Y332479D01*
X702453Y330235D01*
X702756Y327933D01*
Y326772D01*
X702756D01*
Y27559D01*
Y26398D01*
X702453Y24095D01*
X701852Y21852D01*
X700963Y19706D01*
X699802Y17695D01*
X698388Y15853D01*
X696746Y14210D01*
X694903Y12797D01*
X692892Y11636D01*
X690746Y10747D01*
X688503Y10146D01*
X686201Y9843D01*
X683878D01*
X681576Y10146D01*
X679332Y10747D01*
X677187Y11636D01*
X675176Y12797D01*
X673333Y14210D01*
X671691Y15853D01*
X670277Y17695D01*
X669116Y19706D01*
X668227Y21852D01*
X667626Y24095D01*
X667323Y26398D01*
X667323Y27559D01*
X667323Y309057D01*
X587132Y309057D01*
X586953Y309557D01*
X587572Y310065D01*
X588434Y311114D01*
X589073Y312311D01*
X589467Y313610D01*
X589600Y314961D01*
X589467Y316311D01*
X589073Y317610D01*
X588434Y318807D01*
X587572Y319856D01*
X586523Y320717D01*
X585326Y321357D01*
X584028Y321751D01*
X582677Y321884D01*
X581326Y321751D01*
X580028Y321357D01*
X578831Y320717D01*
X577782Y319856D01*
X576921Y318807D01*
X576281Y317610D01*
X575887Y316311D01*
X575754Y314961D01*
X575887Y313610D01*
X576281Y312311D01*
X576921Y311114D01*
X577782Y310065D01*
X578402Y309557D01*
X578223Y309056D01*
X433071Y309056D01*
X433071Y287402D01*
X388779Y287402D01*
X388104Y287368D01*
X386779Y287105D01*
X385532Y286588D01*
X384409Y285838D01*
X383454Y284883D01*
X382703Y283760D01*
X382186Y282512D01*
X381923Y281187D01*
Y279837D01*
X382186Y278512D01*
X382703Y277264D01*
X383454Y276141D01*
X384409Y275186D01*
X385532Y274436D01*
X386779Y273919D01*
X388104Y273655D01*
X388779Y273622D01*
X433071Y273622D01*
X433071Y186477D01*
X431368Y184774D01*
X430846Y183993D01*
X430662Y183071D01*
Y154128D01*
X430580Y154043D01*
X430511Y153936D01*
X430041Y153324D01*
X429692Y152480D01*
X429636Y152057D01*
X429213Y152001D01*
X428369Y151652D01*
X427644Y151096D01*
X427088Y150371D01*
X426739Y149528D01*
X426620Y148622D01*
X426739Y147717D01*
X427088Y146873D01*
X427644Y146148D01*
X427943Y145919D01*
Y145419D01*
X427644Y145190D01*
X427088Y144466D01*
X426739Y143622D01*
X426620Y142717D01*
X426730Y141881D01*
X426205Y140851D01*
X423982Y137224D01*
X423761Y136919D01*
X423239Y137052D01*
X423102Y138096D01*
X422606Y139293D01*
X421817Y140321D01*
X420789Y141110D01*
X419592Y141606D01*
X418307Y141775D01*
X417022Y141606D01*
X415825Y141110D01*
X414797Y140321D01*
X414008Y139293D01*
X413513Y138096D01*
X413343Y136811D01*
X413513Y135526D01*
X414008Y134329D01*
X414797Y133301D01*
X415825Y132512D01*
X417022Y132016D01*
X418307Y131847D01*
X419281Y131975D01*
X419536Y131505D01*
X418719Y130548D01*
X415711Y127540D01*
X412476Y124778D01*
X409035Y122277D01*
X407212Y121160D01*
X406417Y121490D01*
X405512Y121609D01*
X404606Y121490D01*
X403763Y121140D01*
X403038Y120584D01*
X402482Y119860D01*
X402133Y119016D01*
X402044Y118340D01*
X401618Y118123D01*
X397688Y116496D01*
X393642Y115181D01*
X389506Y114188D01*
X385304Y113523D01*
X381064Y113189D01*
X378937Y113189D01*
X263779Y113189D01*
X263779Y27559D01*
Y26398D01*
X263476Y24095D01*
X262875Y21852D01*
X261986Y19706D01*
X260825Y17695D01*
X259412Y15853D01*
X257769Y14210D01*
X255927Y12797D01*
X253916Y11636D01*
X251770Y10747D01*
X249527Y10146D01*
X247224Y9843D01*
X246063D01*
Y9843D01*
X27559Y9843D01*
X26398D01*
X24095Y10146D01*
X21852Y10747D01*
X19706Y11636D01*
X17695Y12797D01*
X15853Y14210D01*
X14210Y15853D01*
X12797Y17695D01*
X11636Y19706D01*
X10747Y21852D01*
X10146Y24095D01*
X9843Y26398D01*
Y28720D01*
X10146Y31023D01*
X10747Y33266D01*
X11636Y35412D01*
X12797Y37423D01*
X14210Y39265D01*
X15853Y40908D01*
X17695Y42321D01*
X19706Y43483D01*
X21852Y44371D01*
X24095Y44972D01*
X26398Y45276D01*
X49845D01*
X50555Y44982D01*
X51460Y44862D01*
X52365Y44982D01*
X53075Y45276D01*
X69562D01*
X69726Y45075D01*
X70718Y44261D01*
X71850Y43656D01*
X73079Y43283D01*
X74356Y43158D01*
X74654Y42860D01*
X74779Y41582D01*
X75152Y40354D01*
X75757Y39222D01*
X76571Y38230D01*
X77563Y37416D01*
X78695Y36811D01*
X79923Y36438D01*
X81201Y36312D01*
X82478Y36438D01*
X83706Y36811D01*
X84757Y37372D01*
X85107Y36717D01*
X85922Y35725D01*
X86914Y34911D01*
X88046Y34305D01*
X89274Y33933D01*
X90551Y33807D01*
X91829Y33933D01*
X93057Y34305D01*
X94189Y34911D01*
X95181Y35725D01*
X95995Y36717D01*
X96345Y37372D01*
X97396Y36811D01*
X98624Y36438D01*
X99902Y36312D01*
X101179Y36438D01*
X102407Y36811D01*
X103539Y37416D01*
X104531Y38230D01*
X105345Y39222D01*
X105950Y40354D01*
X106323Y41582D01*
X106449Y42860D01*
X106920Y43175D01*
X108024Y43283D01*
X109252Y43656D01*
X110384Y44261D01*
X111376Y45075D01*
X111541Y45276D01*
X129729D01*
X129752Y45273D01*
X129775Y45276D01*
X140396D01*
X141106Y44982D01*
X142011Y44862D01*
X142917Y44982D01*
X143626Y45276D01*
X160113D01*
X160277Y45075D01*
X161269Y44261D01*
X162401Y43656D01*
X163630Y43283D01*
X164907Y43158D01*
X165205Y42860D01*
X165331Y41582D01*
X165703Y40354D01*
X166308Y39222D01*
X167122Y38230D01*
X168114Y37416D01*
X169246Y36811D01*
X170475Y36438D01*
X171752Y36312D01*
X173029Y36438D01*
X174258Y36811D01*
X175308Y37372D01*
X175659Y36717D01*
X176473Y35725D01*
X177465Y34911D01*
X178597Y34305D01*
X179825Y33933D01*
X181102Y33807D01*
X182380Y33933D01*
X183608Y34305D01*
X184740Y34911D01*
X185732Y35725D01*
X186546Y36717D01*
X186897Y37372D01*
X187947Y36811D01*
X189175Y36438D01*
X190453Y36312D01*
X191730Y36438D01*
X192958Y36811D01*
X194090Y37416D01*
X195082Y38230D01*
X195897Y39222D01*
X196502Y40354D01*
X196874Y41582D01*
X197000Y42860D01*
X197298Y43158D01*
X198575Y43283D01*
X199803Y43656D01*
X200935Y44261D01*
X201927Y45075D01*
X202092Y45276D01*
X220280D01*
X220303Y45273D01*
X220326Y45276D01*
X228346D01*
Y113189D01*
X226142Y113189D01*
X221747Y113535D01*
X217393Y114225D01*
X213106Y115254D01*
X208913Y116616D01*
X204841Y118303D01*
X200912Y120304D01*
X197154Y122608D01*
X193587Y125199D01*
X190235Y128062D01*
X187118Y131179D01*
X184254Y134532D01*
X181663Y138098D01*
X179360Y141857D01*
X177358Y145785D01*
X175671Y149858D01*
X174309Y154051D01*
X173280Y158338D01*
X172590Y162692D01*
X172244Y167087D01*
Y169291D01*
X172244D01*
Y309055D01*
X134374D01*
X134195Y309555D01*
X134817Y310065D01*
X135678Y311114D01*
X136317Y312311D01*
X136711Y313610D01*
X136844Y314961D01*
X136711Y316311D01*
X136317Y317610D01*
X135678Y318807D01*
X134817Y319856D01*
X133767Y320717D01*
X132571Y321357D01*
X131272Y321751D01*
X129921Y321884D01*
X128571Y321751D01*
X127272Y321357D01*
X126075Y320717D01*
X125026Y319856D01*
X124165Y318807D01*
X123525Y317610D01*
X123131Y316311D01*
X122998Y314961D01*
X123131Y313610D01*
X123525Y312311D01*
X124165Y311114D01*
X125026Y310065D01*
X125647Y309555D01*
X125469Y309055D01*
X27559D01*
X26398Y309055D01*
X24095Y309358D01*
X21852Y309959D01*
X19706Y310848D01*
X17695Y312009D01*
X15853Y313423D01*
X14210Y315065D01*
X12797Y316908D01*
X11636Y318919D01*
X10747Y321065D01*
X10146Y323308D01*
X9843Y325610D01*
X9843Y327933D01*
X10146Y330235D01*
X10747Y332479D01*
X11636Y334624D01*
X12797Y336635D01*
X14210Y338478D01*
X15853Y340120D01*
X17695Y341534D01*
X19706Y342695D01*
X21852Y343584D01*
X24095Y344185D01*
X26398Y344488D01*
X27559D01*
Y344488D01*
X321686Y344488D01*
X321823Y343452D01*
X322222Y342487D01*
X322859Y341658D01*
X323688Y341022D01*
X324653Y340622D01*
X325689Y340486D01*
X326725Y340622D01*
X327690Y341022D01*
X328519Y341658D01*
X329155Y342487D01*
X329555Y343452D01*
X329692Y344488D01*
X685039Y344488D01*
X686201Y344488D01*
X688503Y344185D01*
D02*
G37*
G36*
X640625Y268912D02*
X640946Y268661D01*
X641289Y268440D01*
X641652Y268248D01*
X642036Y268086D01*
X642442Y267953D01*
X642868Y267849D01*
X643316Y267776D01*
X643784Y267731D01*
X644274Y267717D01*
X644274Y263779D01*
X643784Y263765D01*
X643316Y263720D01*
X642868Y263647D01*
X642442Y263543D01*
X642036Y263410D01*
X641652Y263248D01*
X641289Y263056D01*
X640946Y262835D01*
X640625Y262584D01*
X640325Y262303D01*
X640325Y269193D01*
X640625Y268912D01*
D02*
G37*
G36*
X604507Y251064D02*
X604576Y251047D01*
X604679Y251032D01*
X604985Y251009D01*
X605998Y250985D01*
X606335Y250984D01*
Y247047D01*
X604471Y246949D01*
Y251083D01*
X604507Y251064D01*
D02*
G37*
G36*
X454584Y234154D02*
X454548Y234172D01*
X454479Y234189D01*
X454376Y234204D01*
X454070Y234227D01*
X453057Y234251D01*
X452720Y234252D01*
Y238189D01*
X454584Y238287D01*
Y234154D01*
D02*
G37*
G36*
X600570Y224489D02*
X600639Y224472D01*
X600742Y224458D01*
X601048Y224434D01*
X602061Y224411D01*
X602398Y224410D01*
Y220473D01*
X600534Y220374D01*
Y224508D01*
X600570Y224489D01*
D02*
G37*
G36*
X436993Y185508D02*
X436814Y185505D01*
X436644Y185493D01*
X436484Y185472D01*
X436333Y185442D01*
X436192Y185403D01*
X436060Y185355D01*
X435937Y185297D01*
X435824Y185230D01*
X435721Y185154D01*
X435626Y185070D01*
X435070Y185626D01*
X435155Y185721D01*
X435230Y185824D01*
X435297Y185937D01*
X435355Y186060D01*
X435403Y186192D01*
X435442Y186333D01*
X435472Y186484D01*
X435493Y186644D01*
X435505Y186814D01*
X435508Y186993D01*
X436993Y185508D01*
D02*
G37*
G36*
X438511Y170081D02*
X438522Y169912D01*
X438543Y169752D01*
X438574Y169601D01*
X438613Y169459D01*
X438661Y169328D01*
X438719Y169205D01*
X438785Y169092D01*
X438861Y168988D01*
X438946Y168894D01*
X438389Y168337D01*
X438295Y168422D01*
X438192Y168498D01*
X438078Y168565D01*
X437956Y168622D01*
X437824Y168671D01*
X437683Y168710D01*
X437532Y168740D01*
X437372Y168761D01*
X437202Y168773D01*
X437023Y168776D01*
X438508Y170261D01*
X438511Y170081D01*
D02*
G37*
G36*
X433471Y153796D02*
X433491Y153669D01*
X433524Y153542D01*
X433570Y153414D01*
X433629Y153287D01*
X433701Y153159D01*
X433786Y153031D01*
X433885Y152903D01*
X433996Y152775D01*
X434121Y152646D01*
X432021D01*
X432146Y152775D01*
X432257Y152903D01*
X432356Y153031D01*
X432441Y153159D01*
X432513Y153287D01*
X432572Y153414D01*
X432618Y153542D01*
X432651Y153669D01*
X432671Y153796D01*
X432677Y153922D01*
X433465D01*
X433471Y153796D01*
D02*
G37*
G36*
X472157Y140682D02*
X472029Y140807D01*
X471900Y140919D01*
X471772Y141017D01*
X471644Y141102D01*
X471516Y141174D01*
X471389Y141234D01*
X471262Y141279D01*
X471135Y141312D01*
X471008Y141332D01*
X470881Y141339D01*
Y142126D01*
X471008Y142132D01*
X471135Y142152D01*
X471262Y142185D01*
X471389Y142231D01*
X471516Y142290D01*
X471644Y142362D01*
X471772Y142448D01*
X471900Y142546D01*
X472029Y142658D01*
X472157Y142782D01*
Y140682D01*
D02*
G37*
G36*
X479506Y108739D02*
X479575Y108722D01*
X479678Y108707D01*
X479984Y108684D01*
X480996Y108660D01*
X481333Y108659D01*
X481336Y104722D01*
X479472Y104623D01*
X477362Y106691D01*
X475252Y104623D01*
X473388Y104722D01*
X473391Y108659D01*
X473728Y108660D01*
X474741Y108684D01*
X475047Y108707D01*
X475149Y108722D01*
X475219Y108739D01*
X475255Y108757D01*
X477362Y106691D01*
X479470Y108757D01*
X479506Y108739D01*
D02*
G37*
G36*
X390688Y108739D02*
X390757Y108722D01*
X390860Y108707D01*
X391166Y108684D01*
X392179Y108660D01*
X392516Y108659D01*
X392516Y104722D01*
X390652Y104624D01*
X390652Y108758D01*
X390688Y108739D01*
D02*
G37*
G36*
X516356Y104624D02*
X516320Y104642D01*
X516250Y104659D01*
X516148Y104674D01*
X515842Y104698D01*
X514829Y104721D01*
X514492Y104722D01*
Y108659D01*
X516356Y108758D01*
Y104624D01*
D02*
G37*
G36*
X519937Y100128D02*
X520158Y99937D01*
X520262Y99859D01*
X520361Y99793D01*
X520456Y99740D01*
X520545Y99698D01*
X520631Y99669D01*
X520711Y99652D01*
X520787Y99646D01*
X519302Y98161D01*
X519297Y98237D01*
X519279Y98318D01*
X519250Y98403D01*
X519208Y98493D01*
X519155Y98587D01*
X519089Y98686D01*
X519012Y98790D01*
X518820Y99011D01*
X518706Y99129D01*
X519820Y100242D01*
X519937Y100128D01*
D02*
G37*
G36*
X392976Y99129D02*
X392863Y99011D01*
X392671Y98790D01*
X392593Y98686D01*
X392528Y98587D01*
X392474Y98493D01*
X392433Y98403D01*
X392403Y98318D01*
X392386Y98237D01*
X392380Y98161D01*
X390896Y99646D01*
X390971Y99652D01*
X391052Y99669D01*
X391137Y99698D01*
X391227Y99740D01*
X391321Y99793D01*
X391420Y99859D01*
X391524Y99937D01*
X391745Y100128D01*
X391863Y100242D01*
X392976Y99129D01*
D02*
G37*
%LPC*%
G36*
X321535Y340617D02*
X320499Y340480D01*
X319534Y340081D01*
X319035Y339698D01*
X318537Y340081D01*
X317571Y340480D01*
X316535Y340617D01*
X315499Y340480D01*
X314534Y340081D01*
X313705Y339444D01*
X313069Y338615D01*
X312669Y337650D01*
X312533Y336614D01*
X312669Y335578D01*
X313069Y334613D01*
X313705Y333784D01*
X314534Y333148D01*
X315499Y332748D01*
X316535Y332611D01*
X317571Y332748D01*
X318537Y333148D01*
X319035Y333530D01*
X319534Y333148D01*
X320499Y332748D01*
X321535Y332611D01*
X322571Y332748D01*
X323537Y333148D01*
X324366Y333784D01*
X325002Y334613D01*
X325402Y335578D01*
X325538Y336614D01*
X325402Y337650D01*
X325002Y338615D01*
X324366Y339444D01*
X323537Y340081D01*
X322571Y340480D01*
X321535Y340617D01*
D02*
G37*
G36*
X687008Y340439D02*
Y328740D01*
X698707D01*
X698691Y328934D01*
X698185Y331043D01*
X697355Y333047D01*
X696222Y334896D01*
X694813Y336545D01*
X693164Y337954D01*
X691315Y339087D01*
X689311Y339917D01*
X687202Y340423D01*
X687008Y340439D01*
D02*
G37*
G36*
X683071D02*
X682877Y340423D01*
X680768Y339917D01*
X678764Y339087D01*
X676915Y337954D01*
X675266Y336545D01*
X673857Y334896D01*
X672724Y333047D01*
X671894Y331043D01*
X671387Y328934D01*
X671372Y328740D01*
X683071D01*
Y340439D01*
D02*
G37*
G36*
X29528D02*
Y328740D01*
X41226D01*
X41211Y328934D01*
X40705Y331043D01*
X39875Y333047D01*
X38741Y334896D01*
X37333Y336545D01*
X35683Y337954D01*
X33834Y339087D01*
X31830Y339917D01*
X29721Y340423D01*
X29528Y340439D01*
D02*
G37*
G36*
X25591D02*
X25397Y340423D01*
X23288Y339917D01*
X21284Y339087D01*
X19434Y337954D01*
X17785Y336545D01*
X16377Y334896D01*
X15243Y333047D01*
X14413Y331043D01*
X13907Y328934D01*
X13892Y328740D01*
X25591D01*
Y340439D01*
D02*
G37*
G36*
X263583Y333704D02*
X262298Y333535D01*
X261101Y333039D01*
X260073Y332250D01*
X259284Y331222D01*
X258788Y330025D01*
X258619Y328740D01*
X258788Y327455D01*
X259284Y326258D01*
X260073Y325230D01*
X261101Y324441D01*
X262298Y323946D01*
X263583Y323776D01*
X264867Y323946D01*
X266065Y324441D01*
X267092Y325230D01*
X267881Y326258D01*
X268377Y327455D01*
X268546Y328740D01*
X268377Y330025D01*
X267881Y331222D01*
X267092Y332250D01*
X266065Y333039D01*
X264867Y333535D01*
X263583Y333704D01*
D02*
G37*
G36*
X346535Y322546D02*
X345499Y322410D01*
X344534Y322010D01*
X343705Y321374D01*
X343069Y320545D01*
X342669Y319579D01*
X342533Y318543D01*
X342669Y317507D01*
X343069Y316542D01*
X343705Y315713D01*
X344534Y315077D01*
X345499Y314677D01*
X346535Y314541D01*
X347571Y314677D01*
X348537Y315077D01*
X349366Y315713D01*
X350002Y316542D01*
X350402Y317507D01*
X350538Y318543D01*
X350402Y319579D01*
X350002Y320545D01*
X349366Y321374D01*
X348537Y322010D01*
X347571Y322410D01*
X346535Y322546D01*
D02*
G37*
G36*
X698707Y324803D02*
X687008D01*
Y313104D01*
X687202Y313120D01*
X689311Y313626D01*
X691315Y314456D01*
X693164Y315589D01*
X694813Y316998D01*
X696222Y318647D01*
X697355Y320497D01*
X698185Y322500D01*
X698691Y324609D01*
X698707Y324803D01*
D02*
G37*
G36*
X683071D02*
X671372D01*
X671387Y324609D01*
X671894Y322500D01*
X672724Y320497D01*
X673857Y318647D01*
X675266Y316998D01*
X676915Y315589D01*
X678764Y314456D01*
X680768Y313626D01*
X682877Y313120D01*
X683071Y313104D01*
Y324803D01*
D02*
G37*
G36*
X41226D02*
X29528D01*
Y313104D01*
X29721Y313120D01*
X31830Y313626D01*
X33834Y314456D01*
X35683Y315589D01*
X37333Y316998D01*
X38741Y318647D01*
X39875Y320497D01*
X40705Y322500D01*
X41211Y324609D01*
X41226Y324803D01*
D02*
G37*
G36*
X25591D02*
X13892D01*
X13907Y324609D01*
X14413Y322500D01*
X15243Y320497D01*
X16377Y318647D01*
X17785Y316998D01*
X19434Y315589D01*
X21284Y314456D01*
X23288Y313626D01*
X25397Y313120D01*
X25591Y313104D01*
Y324803D01*
D02*
G37*
G36*
X344055Y305373D02*
X342512Y305221D01*
X341027Y304770D01*
X339659Y304039D01*
X338460Y303055D01*
X337476Y301856D01*
X336745Y300488D01*
X336295Y299004D01*
X336143Y297461D01*
X336295Y295917D01*
X336745Y294433D01*
X337476Y293065D01*
X338460Y291866D01*
X339659Y290882D01*
X341027Y290151D01*
X342512Y289701D01*
X344055Y289548D01*
X345599Y289701D01*
X347083Y290151D01*
X348451Y290882D01*
X349650Y291866D01*
X350634Y293065D01*
X351365Y294433D01*
X351815Y295917D01*
X351967Y297461D01*
X351815Y299004D01*
X351365Y300488D01*
X350634Y301856D01*
X349650Y303055D01*
X348451Y304039D01*
X347083Y304770D01*
X345599Y305221D01*
X344055Y305373D01*
D02*
G37*
G36*
X184055Y292356D02*
X182704Y292223D01*
X181406Y291829D01*
X180209Y291189D01*
X179160Y290328D01*
X178299Y289279D01*
X177659Y288082D01*
X177265Y286784D01*
X177132Y285433D01*
X177265Y284082D01*
X177659Y282784D01*
X178299Y281587D01*
X179160Y280538D01*
X180209Y279677D01*
X181406Y279037D01*
X182704Y278643D01*
X184055Y278510D01*
X185406Y278643D01*
X186705Y279037D01*
X187901Y279677D01*
X188951Y280538D01*
X189811Y281587D01*
X190451Y282784D01*
X190845Y284082D01*
X190978Y285433D01*
X190845Y286784D01*
X190451Y288082D01*
X189811Y289279D01*
X188951Y290328D01*
X187901Y291189D01*
X186705Y291829D01*
X185406Y292223D01*
X184055Y292356D01*
D02*
G37*
G36*
X186024Y272351D02*
Y267717D01*
X190658D01*
X190451Y268397D01*
X189811Y269594D01*
X188951Y270643D01*
X187901Y271504D01*
X186705Y272144D01*
X186024Y272351D01*
D02*
G37*
G36*
X182087Y272351D02*
X181406Y272144D01*
X180209Y271504D01*
X179160Y270643D01*
X178299Y269594D01*
X177659Y268397D01*
X177453Y267717D01*
X182087D01*
Y272351D01*
D02*
G37*
G36*
X297244Y277602D02*
X295959Y277432D01*
X294762Y276937D01*
X293734Y276148D01*
X292946Y275120D01*
X292450Y273922D01*
X292281Y272638D01*
X292450Y271353D01*
X292946Y270156D01*
X293734Y269128D01*
X294762Y268339D01*
X295959Y267843D01*
X297244Y267674D01*
X298529Y267843D01*
X299726Y268339D01*
X300754Y269128D01*
X301543Y270156D01*
X302039Y271353D01*
X302208Y272638D01*
X302039Y273922D01*
X301543Y275120D01*
X300754Y276148D01*
X299726Y276937D01*
X298529Y277432D01*
X297244Y277602D01*
D02*
G37*
G36*
X336535Y273688D02*
X335499Y273551D01*
X334534Y273151D01*
X333705Y272515D01*
X333069Y271686D01*
X332669Y270721D01*
X332533Y269685D01*
X332669Y268649D01*
X333069Y267684D01*
X333705Y266855D01*
X334534Y266219D01*
X335499Y265819D01*
X336535Y265682D01*
X337571Y265819D01*
X338537Y266219D01*
X339366Y266855D01*
X340002Y267684D01*
X340402Y268649D01*
X340538Y269685D01*
X340402Y270721D01*
X340002Y271686D01*
X339366Y272515D01*
X338537Y273151D01*
X337571Y273551D01*
X336535Y273688D01*
D02*
G37*
G36*
X190658Y263779D02*
X186024D01*
Y259145D01*
X186705Y259352D01*
X187901Y259992D01*
X188951Y260853D01*
X189811Y261902D01*
X190451Y263099D01*
X190658Y263779D01*
D02*
G37*
G36*
X182087D02*
X177453D01*
X177659Y263099D01*
X178299Y261902D01*
X179160Y260853D01*
X180209Y259992D01*
X181406Y259352D01*
X182087Y259145D01*
Y263779D01*
D02*
G37*
G36*
X675665Y261854D02*
X674381Y261684D01*
X673183Y261189D01*
X672156Y260400D01*
X671367Y259372D01*
X670871Y258174D01*
X670702Y256890D01*
X670871Y255605D01*
X671367Y254408D01*
X672156Y253380D01*
X673183Y252591D01*
X674381Y252095D01*
X675665Y251926D01*
X676950Y252095D01*
X678147Y252591D01*
X679175Y253380D01*
X679964Y254408D01*
X680460Y255605D01*
X680629Y256890D01*
X680460Y258174D01*
X679964Y259372D01*
X679175Y260400D01*
X678147Y261189D01*
X676950Y261684D01*
X675665Y261854D01*
D02*
G37*
G36*
X342520Y252011D02*
X341235Y251842D01*
X340038Y251346D01*
X339010Y250557D01*
X338221Y249529D01*
X337725Y248332D01*
X337556Y247047D01*
X337725Y245762D01*
X338221Y244565D01*
X339010Y243537D01*
X340038Y242748D01*
X341235Y242253D01*
X342520Y242084D01*
X343804Y242253D01*
X345002Y242748D01*
X346030Y243537D01*
X346818Y244565D01*
X347314Y245762D01*
X347483Y247047D01*
X347314Y248332D01*
X346818Y249529D01*
X346030Y250557D01*
X345002Y251346D01*
X343804Y251842D01*
X342520Y252011D01*
D02*
G37*
G36*
X345542Y237356D02*
X344637Y237236D01*
X343793Y236887D01*
X343069Y236331D01*
X342512Y235606D01*
X342163Y234763D01*
X342044Y233857D01*
X342163Y232952D01*
X342512Y232108D01*
X343069Y231383D01*
X343793Y230827D01*
X344637Y230478D01*
X345542Y230359D01*
X346448Y230478D01*
X347291Y230827D01*
X348016Y231383D01*
X348572Y232108D01*
X348921Y232952D01*
X349041Y233857D01*
X348921Y234763D01*
X348572Y235606D01*
X348016Y236331D01*
X347291Y236887D01*
X346448Y237236D01*
X345542Y237356D01*
D02*
G37*
G36*
X397566Y234935D02*
X396661Y234816D01*
X395817Y234466D01*
X395093Y233910D01*
X394537Y233186D01*
X394187Y232342D01*
X394068Y231436D01*
X394187Y230531D01*
X394537Y229687D01*
X395093Y228963D01*
X395817Y228407D01*
X396661Y228057D01*
X397566Y227938D01*
X398472Y228057D01*
X399316Y228407D01*
X400040Y228963D01*
X400596Y229687D01*
X400946Y230531D01*
X401065Y231436D01*
X400946Y232342D01*
X400596Y233186D01*
X400040Y233910D01*
X399316Y234466D01*
X398472Y234816D01*
X397566Y234935D01*
D02*
G37*
G36*
X378796Y231914D02*
X377890Y231794D01*
X377047Y231445D01*
X376322Y230889D01*
X375766Y230164D01*
X375417Y229321D01*
X375297Y228415D01*
X375417Y227510D01*
X375766Y226666D01*
X376322Y225941D01*
X377047Y225385D01*
X377890Y225036D01*
X378796Y224917D01*
X379701Y225036D01*
X380545Y225385D01*
X381270Y225941D01*
X381825Y226666D01*
X382175Y227510D01*
X382294Y228415D01*
X382175Y229321D01*
X381825Y230164D01*
X381270Y230889D01*
X380545Y231445D01*
X379701Y231794D01*
X378796Y231914D01*
D02*
G37*
G36*
X335799Y227612D02*
X334893Y227493D01*
X334049Y227143D01*
X333325Y226587D01*
X332769Y225863D01*
X332419Y225019D01*
X332300Y224113D01*
X332419Y223208D01*
X332769Y222364D01*
X333325Y221640D01*
X334049Y221084D01*
X334893Y220734D01*
X335799Y220615D01*
X336704Y220734D01*
X337548Y221084D01*
X338272Y221640D01*
X338828Y222364D01*
X339178Y223208D01*
X339297Y224113D01*
X339178Y225019D01*
X338828Y225863D01*
X338272Y226587D01*
X337548Y227143D01*
X336704Y227493D01*
X335799Y227612D01*
D02*
G37*
G36*
X354807Y230873D02*
X353902Y230754D01*
X353058Y230404D01*
X352333Y229849D01*
X351778Y229124D01*
X351428Y228280D01*
X351392Y228006D01*
X351118Y227970D01*
X350274Y227621D01*
X349550Y227064D01*
X348994Y226340D01*
X348644Y225496D01*
X348608Y225222D01*
X348334Y225186D01*
X347490Y224837D01*
X346766Y224281D01*
X346210Y223556D01*
X345860Y222712D01*
X345741Y221807D01*
X345860Y220901D01*
X346210Y220058D01*
X346766Y219333D01*
X347490Y218777D01*
X348334Y218428D01*
X349239Y218308D01*
X350145Y218428D01*
X350989Y218777D01*
X351713Y219333D01*
X352269Y220058D01*
X352619Y220901D01*
X352655Y221175D01*
X352929Y221212D01*
X353773Y221561D01*
X354497Y222117D01*
X355053Y222842D01*
X355403Y223685D01*
X355439Y223959D01*
X355713Y223995D01*
X356556Y224345D01*
X357281Y224901D01*
X357837Y225625D01*
X358186Y226469D01*
X358306Y227375D01*
X358186Y228280D01*
X357837Y229124D01*
X357281Y229849D01*
X356556Y230404D01*
X355713Y230754D01*
X354807Y230873D01*
D02*
G37*
G36*
X364750Y223914D02*
X363845Y223795D01*
X363001Y223445D01*
X362276Y222889D01*
X361720Y222165D01*
X361371Y221321D01*
X361252Y220416D01*
X361371Y219510D01*
X361720Y218666D01*
X362276Y217942D01*
X363001Y217386D01*
X363845Y217036D01*
X364750Y216917D01*
X365656Y217036D01*
X366499Y217386D01*
X367224Y217942D01*
X367780Y218666D01*
X368129Y219510D01*
X368249Y220416D01*
X368129Y221321D01*
X367780Y222165D01*
X367224Y222889D01*
X366499Y223445D01*
X365656Y223795D01*
X364750Y223914D01*
D02*
G37*
G36*
X328839Y220652D02*
X327933Y220533D01*
X327090Y220183D01*
X326365Y219628D01*
X325809Y218903D01*
X325460Y218059D01*
X325340Y217154D01*
X325460Y216248D01*
X325809Y215405D01*
X326365Y214680D01*
X327090Y214124D01*
X327933Y213775D01*
X328839Y213655D01*
X329744Y213775D01*
X330588Y214124D01*
X331313Y214680D01*
X331869Y215405D01*
X332218Y216248D01*
X332337Y217154D01*
X332218Y218059D01*
X331869Y218903D01*
X331313Y219628D01*
X330588Y220183D01*
X329744Y220533D01*
X328839Y220652D01*
D02*
G37*
G36*
X382368Y222044D02*
X381463Y221924D01*
X380619Y221575D01*
X379894Y221019D01*
X379339Y220294D01*
X378989Y219451D01*
X378870Y218545D01*
X378989Y217640D01*
X379339Y216796D01*
X379894Y216071D01*
X380619Y215515D01*
X381463Y215166D01*
X382368Y215047D01*
X382584Y215075D01*
X382880Y214610D01*
X382770Y213775D01*
X382889Y212870D01*
X383239Y212026D01*
X383795Y211301D01*
X384519Y210746D01*
X385363Y210396D01*
X386269Y210277D01*
X387174Y210396D01*
X388018Y210746D01*
X388742Y211301D01*
X389298Y212026D01*
X389384Y212232D01*
X389970Y212340D01*
X390488Y211943D01*
X391332Y211594D01*
X392237Y211474D01*
X393143Y211594D01*
X393986Y211943D01*
X394711Y212499D01*
X395267Y213224D01*
X395616Y214067D01*
X395736Y214973D01*
X395616Y215878D01*
X395267Y216722D01*
X394711Y217447D01*
X393986Y218003D01*
X393143Y218352D01*
X392237Y218471D01*
X391332Y218352D01*
X390488Y218003D01*
X389763Y217447D01*
X389207Y216722D01*
X389122Y216516D01*
X388536Y216407D01*
X388018Y216805D01*
X387174Y217154D01*
X386269Y217274D01*
X386053Y217245D01*
X385757Y217711D01*
X385867Y218545D01*
X385748Y219451D01*
X385398Y220294D01*
X384842Y221019D01*
X384118Y221575D01*
X383274Y221924D01*
X382368Y222044D01*
D02*
G37*
G36*
X373102Y215562D02*
X372196Y215443D01*
X371353Y215094D01*
X370628Y214538D01*
X370072Y213813D01*
X369723Y212969D01*
X369603Y212064D01*
X369723Y211158D01*
X370072Y210315D01*
X370628Y209590D01*
X371353Y209034D01*
X372196Y208685D01*
X373102Y208566D01*
X374007Y208685D01*
X374851Y209034D01*
X375576Y209590D01*
X376132Y210315D01*
X376481Y211158D01*
X376600Y212064D01*
X376481Y212969D01*
X376132Y213813D01*
X375576Y214538D01*
X374851Y215094D01*
X374007Y215443D01*
X373102Y215562D01*
D02*
G37*
G36*
X403372Y207336D02*
X402467Y207217D01*
X401623Y206867D01*
X400899Y206311D01*
X400343Y205587D01*
X400160Y205145D01*
X399977Y205221D01*
X399072Y205340D01*
X398166Y205221D01*
X397323Y204872D01*
X396598Y204316D01*
X396042Y203591D01*
X395692Y202747D01*
X395573Y201842D01*
X395692Y200937D01*
X396042Y200093D01*
X396598Y199368D01*
X397323Y198812D01*
X398166Y198463D01*
X399072Y198344D01*
X399977Y198463D01*
X400821Y198812D01*
X401545Y199368D01*
X402101Y200093D01*
X402284Y200534D01*
X402467Y200458D01*
X403372Y200339D01*
X404278Y200458D01*
X405122Y200807D01*
X405846Y201363D01*
X406402Y202088D01*
X406752Y202932D01*
X406871Y203837D01*
X406752Y204743D01*
X406402Y205587D01*
X405846Y206311D01*
X405122Y206867D01*
X404278Y207217D01*
X403372Y207336D01*
D02*
G37*
G36*
X364173Y213625D02*
X362889Y213456D01*
X361691Y212960D01*
X360663Y212171D01*
X359875Y211143D01*
X359379Y209946D01*
X359209Y208661D01*
X359379Y207377D01*
X359875Y206179D01*
X360663Y205152D01*
X361691Y204363D01*
X362889Y203867D01*
X364173Y203698D01*
X365458Y203867D01*
X366655Y204363D01*
X367683Y205152D01*
X368472Y206179D01*
X368968Y207377D01*
X369137Y208661D01*
X368968Y209946D01*
X368472Y211143D01*
X367683Y212171D01*
X366655Y212960D01*
X365458Y213456D01*
X364173Y213625D01*
D02*
G37*
G36*
X348542Y213508D02*
X347258Y213339D01*
X346060Y212843D01*
X345033Y212054D01*
X344244Y211026D01*
X343748Y209829D01*
X343579Y208544D01*
X343748Y207259D01*
X344244Y206062D01*
X345033Y205034D01*
X346060Y204245D01*
X347258Y203750D01*
X348542Y203580D01*
X349827Y203750D01*
X351024Y204245D01*
X352052Y205034D01*
X352841Y206062D01*
X353337Y207259D01*
X353506Y208544D01*
X353337Y209829D01*
X352841Y211026D01*
X352052Y212054D01*
X351024Y212843D01*
X349827Y213339D01*
X348542Y213508D01*
D02*
G37*
G36*
X378670Y209995D02*
X377764Y209875D01*
X376920Y209526D01*
X376196Y208970D01*
X375640Y208245D01*
X375290Y207402D01*
X375171Y206496D01*
X375290Y205591D01*
X375640Y204747D01*
X376196Y204022D01*
X376920Y203467D01*
X377764Y203117D01*
X378670Y202998D01*
X379575Y203117D01*
X380419Y203467D01*
X381143Y204022D01*
X381699Y204747D01*
X382049Y205591D01*
X382168Y206496D01*
X382049Y207402D01*
X381699Y208245D01*
X381143Y208970D01*
X380419Y209526D01*
X379575Y209875D01*
X378670Y209995D01*
D02*
G37*
G36*
X332536Y208602D02*
X331630Y208483D01*
X330787Y208133D01*
X330062Y207577D01*
X329506Y206853D01*
X329157Y206009D01*
X329038Y205103D01*
X329157Y204198D01*
X329506Y203354D01*
X330062Y202630D01*
X330787Y202074D01*
X331630Y201724D01*
X332536Y201605D01*
X333441Y201724D01*
X334285Y202074D01*
X335010Y202630D01*
X335566Y203354D01*
X335915Y204198D01*
X336034Y205103D01*
X335915Y206009D01*
X335566Y206853D01*
X335010Y207577D01*
X334285Y208133D01*
X333441Y208483D01*
X332536Y208602D01*
D02*
G37*
G36*
X263583Y210082D02*
X262298Y209913D01*
X261101Y209417D01*
X260073Y208628D01*
X259284Y207600D01*
X258788Y206403D01*
X258619Y205118D01*
X258788Y203834D01*
X259284Y202636D01*
X260073Y201608D01*
X261101Y200820D01*
X262298Y200324D01*
X263583Y200154D01*
X264867Y200324D01*
X266065Y200820D01*
X267093Y201608D01*
X267881Y202636D01*
X268377Y203834D01*
X268546Y205118D01*
X268377Y206403D01*
X267881Y207600D01*
X267093Y208628D01*
X266065Y209417D01*
X264867Y209913D01*
X263583Y210082D01*
D02*
G37*
G36*
X184055Y213616D02*
X182704Y213483D01*
X181406Y213089D01*
X180209Y212449D01*
X179160Y211588D01*
X178299Y210539D01*
X177659Y209342D01*
X177265Y208044D01*
X177132Y206693D01*
X177265Y205342D01*
X177659Y204044D01*
X178299Y202847D01*
X179160Y201798D01*
X180209Y200937D01*
X181406Y200297D01*
X182704Y199903D01*
X184055Y199770D01*
X185406Y199903D01*
X186705Y200297D01*
X187901Y200937D01*
X188951Y201798D01*
X189811Y202847D01*
X190451Y204044D01*
X190845Y205342D01*
X190978Y206693D01*
X190845Y208044D01*
X190451Y209342D01*
X189811Y210539D01*
X188951Y211588D01*
X187901Y212449D01*
X186705Y213089D01*
X185406Y213483D01*
X184055Y213616D01*
D02*
G37*
G36*
X312136Y203949D02*
X311230Y203830D01*
X310386Y203480D01*
X309662Y202924D01*
X309106Y202200D01*
X308756Y201356D01*
X308637Y200450D01*
X308756Y199545D01*
X309106Y198701D01*
X309662Y197977D01*
X310386Y197421D01*
X311230Y197071D01*
X312136Y196952D01*
X313041Y197071D01*
X313885Y197421D01*
X314609Y197977D01*
X315165Y198701D01*
X315515Y199545D01*
X315634Y200450D01*
X315515Y201356D01*
X315165Y202200D01*
X314609Y202924D01*
X313885Y203480D01*
X313041Y203830D01*
X312136Y203949D01*
D02*
G37*
G36*
X411724Y198984D02*
X410819Y198865D01*
X409975Y198515D01*
X409251Y197959D01*
X408695Y197235D01*
X408345Y196391D01*
X408226Y195486D01*
X408345Y194580D01*
X408695Y193736D01*
X409251Y193012D01*
X409975Y192456D01*
X410819Y192106D01*
X411724Y191987D01*
X412630Y192106D01*
X413474Y192456D01*
X414198Y193012D01*
X414754Y193736D01*
X415103Y194580D01*
X415223Y195486D01*
X415103Y196391D01*
X414754Y197235D01*
X414198Y197959D01*
X413474Y198515D01*
X412630Y198865D01*
X411724Y198984D01*
D02*
G37*
G36*
X263583Y198074D02*
X262298Y197905D01*
X261101Y197409D01*
X260073Y196620D01*
X259284Y195592D01*
X258788Y194395D01*
X258619Y193110D01*
X258788Y191825D01*
X259284Y190628D01*
X260073Y189600D01*
X261101Y188812D01*
X262298Y188316D01*
X263583Y188146D01*
X264867Y188316D01*
X266065Y188812D01*
X267092Y189600D01*
X267881Y190628D01*
X268377Y191825D01*
X268546Y193110D01*
X268377Y194395D01*
X267881Y195592D01*
X267092Y196620D01*
X266065Y197409D01*
X264867Y197905D01*
X263583Y198074D01*
D02*
G37*
G36*
X675665Y197877D02*
X674381Y197708D01*
X673183Y197212D01*
X672156Y196423D01*
X671367Y195395D01*
X670871Y194198D01*
X670702Y192913D01*
X670871Y191629D01*
X671367Y190431D01*
X672156Y189403D01*
X673183Y188615D01*
X674381Y188119D01*
X675665Y187950D01*
X676950Y188119D01*
X678147Y188615D01*
X679175Y189403D01*
X679964Y190431D01*
X680460Y191629D01*
X680629Y192913D01*
X680460Y194198D01*
X679964Y195395D01*
X679175Y196423D01*
X678147Y197212D01*
X676950Y197708D01*
X675665Y197877D01*
D02*
G37*
G36*
X389805Y198859D02*
X388900Y198740D01*
X388056Y198390D01*
X387331Y197834D01*
X386775Y197110D01*
X386426Y196266D01*
X386307Y195361D01*
X386426Y194455D01*
X386775Y193611D01*
X387331Y192887D01*
X388056Y192331D01*
X388900Y191981D01*
X389174Y191945D01*
X389210Y191671D01*
X389559Y190828D01*
X390115Y190103D01*
X390840Y189547D01*
X391684Y189198D01*
X391958Y189162D01*
X391994Y188888D01*
X392343Y188044D01*
X392899Y187319D01*
X393624Y186763D01*
X394467Y186414D01*
X395373Y186295D01*
X396279Y186414D01*
X397122Y186763D01*
X397847Y187319D01*
X398403Y188044D01*
X398752Y188888D01*
X398871Y189793D01*
X398752Y190699D01*
X398403Y191542D01*
X397847Y192267D01*
X397122Y192823D01*
X396279Y193172D01*
X396004Y193208D01*
X395968Y193482D01*
X395619Y194326D01*
X395063Y195051D01*
X394338Y195607D01*
X393495Y195956D01*
X393220Y195992D01*
X393184Y196266D01*
X392835Y197110D01*
X392279Y197834D01*
X391554Y198390D01*
X390711Y198740D01*
X389805Y198859D01*
D02*
G37*
G36*
X315833Y191899D02*
X314927Y191779D01*
X314084Y191430D01*
X313359Y190874D01*
X312803Y190149D01*
X312454Y189306D01*
X312334Y188400D01*
X312454Y187495D01*
X312803Y186651D01*
X313359Y185927D01*
X314084Y185371D01*
X314927Y185021D01*
X315833Y184902D01*
X316738Y185021D01*
X317582Y185371D01*
X318307Y185927D01*
X318863Y186651D01*
X319212Y187495D01*
X319331Y188400D01*
X319212Y189306D01*
X318863Y190149D01*
X318307Y190874D01*
X317582Y191430D01*
X316738Y191779D01*
X315833Y191899D01*
D02*
G37*
G36*
X400941Y187724D02*
X400035Y187604D01*
X399192Y187255D01*
X398467Y186699D01*
X397911Y185974D01*
X397562Y185131D01*
X397442Y184225D01*
X397562Y183320D01*
X397911Y182476D01*
X398467Y181751D01*
X399192Y181195D01*
X400035Y180846D01*
X400941Y180727D01*
X401846Y180846D01*
X402690Y181195D01*
X403415Y181751D01*
X403970Y182476D01*
X404320Y183320D01*
X404439Y184225D01*
X404320Y185131D01*
X403970Y185974D01*
X403415Y186699D01*
X402690Y187255D01*
X401846Y187604D01*
X400941Y187724D01*
D02*
G37*
G36*
X184055Y193931D02*
X182704Y193798D01*
X181406Y193404D01*
X180209Y192764D01*
X179160Y191903D01*
X178299Y190854D01*
X177659Y189657D01*
X177265Y188358D01*
X177132Y187008D01*
X177265Y185657D01*
X177659Y184359D01*
X178299Y183162D01*
X179160Y182113D01*
X180209Y181252D01*
X181406Y180612D01*
X182704Y180218D01*
X184055Y180085D01*
X185406Y180218D01*
X186705Y180612D01*
X187901Y181252D01*
X188951Y182113D01*
X189811Y183162D01*
X190451Y184359D01*
X190845Y185657D01*
X190978Y187008D01*
X190845Y188358D01*
X190451Y189657D01*
X189811Y190854D01*
X188951Y191903D01*
X187901Y192764D01*
X186705Y193404D01*
X185406Y193798D01*
X184055Y193931D01*
D02*
G37*
G36*
X324803Y190003D02*
X323518Y189834D01*
X322321Y189338D01*
X321293Y188549D01*
X320504Y187521D01*
X320009Y186324D01*
X319840Y185039D01*
X320009Y183755D01*
X320504Y182557D01*
X321293Y181529D01*
X322321Y180741D01*
X323518Y180245D01*
X324803Y180076D01*
X326088Y180245D01*
X327285Y180741D01*
X328313Y181529D01*
X329102Y182557D01*
X329598Y183755D01*
X329767Y185039D01*
X329598Y186324D01*
X329102Y187521D01*
X328313Y188549D01*
X327285Y189338D01*
X326088Y189834D01*
X324803Y190003D01*
D02*
G37*
G36*
X387678Y189886D02*
X386393Y189717D01*
X385196Y189221D01*
X384168Y188432D01*
X383379Y187404D01*
X382883Y186207D01*
X382714Y184922D01*
X382883Y183637D01*
X383379Y182440D01*
X384168Y181412D01*
X385196Y180623D01*
X386393Y180128D01*
X387678Y179958D01*
X388963Y180128D01*
X390160Y180623D01*
X391188Y181412D01*
X391977Y182440D01*
X392473Y183637D01*
X392642Y184922D01*
X392473Y186207D01*
X391977Y187404D01*
X391188Y188432D01*
X390160Y189221D01*
X388963Y189717D01*
X387678Y189886D01*
D02*
G37*
G36*
X356299Y195400D02*
X348574Y187674D01*
X356299Y179949D01*
X364024Y187674D01*
X356299Y195400D01*
D02*
G37*
G36*
X414370Y184601D02*
X413465Y184482D01*
X412621Y184132D01*
X411896Y183576D01*
X411340Y182852D01*
X410991Y182008D01*
X410872Y181102D01*
X410991Y180197D01*
X411340Y179353D01*
X411896Y178629D01*
X412621Y178073D01*
X413465Y177723D01*
X414370Y177604D01*
X415275Y177723D01*
X416119Y178073D01*
X416844Y178629D01*
X417400Y179353D01*
X417749Y180197D01*
X417869Y181102D01*
X417749Y182008D01*
X417400Y182852D01*
X416844Y183576D01*
X416119Y184132D01*
X415275Y184482D01*
X414370Y184601D01*
D02*
G37*
G36*
X307481Y183547D02*
X306576Y183428D01*
X305732Y183078D01*
X305008Y182522D01*
X304451Y181798D01*
X304102Y180954D01*
X303983Y180049D01*
X304102Y179143D01*
X304451Y178299D01*
X305008Y177575D01*
X305732Y177019D01*
X306576Y176669D01*
X307481Y176550D01*
X308387Y176669D01*
X309230Y177019D01*
X309955Y177575D01*
X310511Y178299D01*
X310860Y179143D01*
X310980Y180049D01*
X310860Y180954D01*
X310511Y181798D01*
X309955Y182522D01*
X309230Y183078D01*
X308387Y183428D01*
X307481Y183547D01*
D02*
G37*
G36*
X405117Y177781D02*
X404212Y177661D01*
X403368Y177312D01*
X402643Y176756D01*
X402087Y176031D01*
X401738Y175188D01*
X401619Y174282D01*
X401738Y173377D01*
X402087Y172533D01*
X402643Y171808D01*
X403368Y171253D01*
X404212Y170903D01*
X405117Y170784D01*
X406023Y170903D01*
X406867Y171253D01*
X407591Y171808D01*
X408147Y172533D01*
X408497Y173377D01*
X408616Y174282D01*
X408497Y175188D01*
X408147Y176031D01*
X407591Y176756D01*
X406867Y177312D01*
X406023Y177661D01*
X405117Y177781D01*
D02*
G37*
G36*
X345790Y184891D02*
X338065Y177165D01*
X345790Y169440D01*
X353515Y177165D01*
X345790Y184891D01*
D02*
G37*
G36*
X366808Y184891D02*
X359083Y177165D01*
X366808Y169440D01*
X374534Y177165D01*
X366808Y184891D01*
D02*
G37*
G36*
X291339Y171806D02*
X290433Y171686D01*
X289589Y171337D01*
X288865Y170781D01*
X288309Y170056D01*
X287959Y169213D01*
X287840Y168307D01*
X287959Y167402D01*
X288309Y166558D01*
X288865Y165833D01*
X289589Y165277D01*
X290433Y164928D01*
X291339Y164809D01*
X292244Y164928D01*
X293088Y165277D01*
X293812Y165833D01*
X294368Y166558D01*
X294718Y167402D01*
X294837Y168307D01*
X294718Y169213D01*
X294368Y170056D01*
X293812Y170781D01*
X293088Y171337D01*
X292244Y171686D01*
X291339Y171806D01*
D02*
G37*
G36*
X324920Y174372D02*
X323636Y174203D01*
X322439Y173707D01*
X321410Y172918D01*
X320622Y171890D01*
X320126Y170693D01*
X319957Y169409D01*
X320126Y168124D01*
X320622Y166927D01*
X321410Y165899D01*
X322439Y165110D01*
X323636Y164614D01*
X324920Y164445D01*
X326205Y164614D01*
X327402Y165110D01*
X328430Y165899D01*
X329219Y166927D01*
X329715Y168124D01*
X329884Y169409D01*
X329715Y170693D01*
X329219Y171890D01*
X328430Y172918D01*
X327402Y173707D01*
X326205Y174203D01*
X324920Y174372D01*
D02*
G37*
G36*
X387795Y174255D02*
X386510Y174086D01*
X385313Y173590D01*
X384285Y172801D01*
X383496Y171773D01*
X383001Y170576D01*
X382832Y169291D01*
X383001Y168007D01*
X383496Y166809D01*
X384285Y165781D01*
X385313Y164993D01*
X386510Y164497D01*
X387795Y164328D01*
X389080Y164497D01*
X390277Y164993D01*
X390566Y165215D01*
X390952Y164896D01*
X390602Y164052D01*
X390483Y163147D01*
X390602Y162241D01*
X390952Y161397D01*
X391508Y160673D01*
X392232Y160117D01*
X393076Y159767D01*
X393982Y159648D01*
X394887Y159767D01*
X395731Y160117D01*
X396455Y160673D01*
X397011Y161397D01*
X397361Y162241D01*
X397397Y162515D01*
X397671Y162551D01*
X398515Y162901D01*
X399239Y163457D01*
X399795Y164181D01*
X400145Y165025D01*
X400264Y165930D01*
X400145Y166836D01*
X399795Y167680D01*
X399239Y168404D01*
X398515Y168960D01*
X397671Y169310D01*
X396766Y169429D01*
X395860Y169310D01*
X395016Y168960D01*
X394292Y168404D01*
X393736Y167680D01*
X393387Y166836D01*
X393350Y166562D01*
X393076Y166526D01*
X392232Y166176D01*
X391890Y166544D01*
X392094Y166809D01*
X392590Y168007D01*
X392759Y169291D01*
X392590Y170576D01*
X392094Y171773D01*
X391305Y172801D01*
X390277Y173590D01*
X389080Y174086D01*
X387795Y174255D01*
D02*
G37*
G36*
X356299Y174381D02*
X348574Y166656D01*
X356299Y158931D01*
X364024Y166656D01*
X356299Y174381D01*
D02*
G37*
G36*
X320009Y165252D02*
X319104Y165133D01*
X318260Y164784D01*
X317535Y164228D01*
X316980Y163503D01*
X316630Y162659D01*
X316511Y161754D01*
X316630Y160848D01*
X316980Y160005D01*
X317535Y159280D01*
X318260Y158724D01*
X319104Y158375D01*
X320009Y158256D01*
X320915Y158375D01*
X321759Y158724D01*
X322483Y159280D01*
X323039Y160005D01*
X323389Y160848D01*
X323508Y161754D01*
X323389Y162659D01*
X323039Y163503D01*
X322483Y164228D01*
X321759Y164784D01*
X320915Y165133D01*
X320009Y165252D01*
D02*
G37*
G36*
X413117Y163735D02*
X412211Y163616D01*
X411367Y163266D01*
X410643Y162710D01*
X410087Y161986D01*
X409737Y161142D01*
X409618Y160237D01*
X409737Y159331D01*
X410087Y158487D01*
X410643Y157763D01*
X411367Y157207D01*
X412211Y156857D01*
X413117Y156738D01*
X414022Y156857D01*
X414866Y157207D01*
X415590Y157763D01*
X416146Y158487D01*
X416496Y159331D01*
X416615Y160237D01*
X416496Y161142D01*
X416146Y161986D01*
X415590Y162710D01*
X414866Y163266D01*
X414022Y163616D01*
X413117Y163735D01*
D02*
G37*
G36*
X303180Y160037D02*
X302274Y159918D01*
X301431Y159568D01*
X300706Y159012D01*
X300150Y158288D01*
X299801Y157444D01*
X299681Y156538D01*
X299801Y155633D01*
X300150Y154789D01*
X300706Y154065D01*
X301431Y153509D01*
X302274Y153159D01*
X303180Y153040D01*
X304085Y153159D01*
X304929Y153509D01*
X305654Y154065D01*
X306210Y154789D01*
X306559Y155633D01*
X306678Y156538D01*
X306559Y157444D01*
X306210Y158288D01*
X305654Y159012D01*
X304929Y159568D01*
X304085Y159918D01*
X303180Y160037D01*
D02*
G37*
G36*
X385630Y158293D02*
X384725Y158174D01*
X383881Y157825D01*
X383156Y157269D01*
X382600Y156544D01*
X382251Y155700D01*
X382132Y154795D01*
X382251Y153889D01*
X382600Y153046D01*
X383156Y152321D01*
X383881Y151765D01*
X384725Y151416D01*
X385630Y151296D01*
X386536Y151416D01*
X387379Y151765D01*
X388104Y152321D01*
X388660Y153046D01*
X389009Y153889D01*
X389128Y154795D01*
X389009Y155700D01*
X388660Y156544D01*
X388104Y157269D01*
X387379Y157825D01*
X386536Y158174D01*
X385630Y158293D01*
D02*
G37*
G36*
X403247Y160162D02*
X402341Y160043D01*
X401498Y159694D01*
X400773Y159138D01*
X400217Y158413D01*
X399868Y157569D01*
X399832Y157296D01*
X399557Y157259D01*
X398714Y156910D01*
X397989Y156354D01*
X397433Y155629D01*
X397084Y154786D01*
X396964Y153880D01*
X397084Y152975D01*
X397433Y152131D01*
X397989Y151406D01*
X398714Y150850D01*
X399557Y150501D01*
X400463Y150382D01*
X401368Y150501D01*
X401552Y150577D01*
X401735Y150136D01*
X402291Y149411D01*
X403016Y148855D01*
X403860Y148506D01*
X404765Y148386D01*
X405670Y148506D01*
X406514Y148855D01*
X407239Y149411D01*
X407795Y150136D01*
X408144Y150979D01*
X408263Y151885D01*
X408144Y152790D01*
X407795Y153634D01*
X407239Y154359D01*
X406514Y154914D01*
X406311Y154999D01*
X406626Y155759D01*
X406745Y156664D01*
X406626Y157569D01*
X406277Y158413D01*
X405721Y159138D01*
X404996Y159694D01*
X404152Y160043D01*
X403247Y160162D01*
D02*
G37*
G36*
X331145Y154117D02*
X330239Y153998D01*
X329396Y153648D01*
X328671Y153092D01*
X328115Y152368D01*
X327765Y151524D01*
X327646Y150618D01*
X327765Y149713D01*
X328115Y148869D01*
X328671Y148145D01*
X329396Y147589D01*
X330239Y147239D01*
X331145Y147120D01*
X332050Y147239D01*
X332894Y147589D01*
X333618Y148145D01*
X334174Y148869D01*
X334524Y149713D01*
X334643Y150618D01*
X334524Y151524D01*
X334174Y152368D01*
X333618Y153092D01*
X332894Y153648D01*
X332050Y153998D01*
X331145Y154117D01*
D02*
G37*
G36*
X364056Y150750D02*
X362771Y150581D01*
X361574Y150085D01*
X360546Y149296D01*
X359757Y148268D01*
X359261Y147071D01*
X359092Y145787D01*
X359261Y144502D01*
X359757Y143305D01*
X360546Y142277D01*
X361574Y141488D01*
X362771Y140992D01*
X364056Y140823D01*
X365341Y140992D01*
X366538Y141488D01*
X367566Y142277D01*
X368355Y143305D01*
X368851Y144502D01*
X369020Y145787D01*
X368851Y147071D01*
X368355Y148268D01*
X367566Y149296D01*
X366538Y150085D01*
X365341Y150581D01*
X364056Y150750D01*
D02*
G37*
G36*
X348425Y150633D02*
X347141Y150464D01*
X345943Y149968D01*
X344915Y149179D01*
X344127Y148151D01*
X343631Y146954D01*
X343461Y145669D01*
X343631Y144385D01*
X344127Y143187D01*
X344915Y142159D01*
X345943Y141371D01*
X347141Y140875D01*
X348425Y140706D01*
X349710Y140875D01*
X350907Y141371D01*
X351935Y142159D01*
X352724Y143187D01*
X353220Y144385D01*
X353389Y145669D01*
X353220Y146954D01*
X352724Y148151D01*
X351935Y149179D01*
X350907Y149968D01*
X349710Y150464D01*
X348425Y150633D01*
D02*
G37*
G36*
X374495Y147158D02*
X373589Y147039D01*
X372745Y146689D01*
X372021Y146133D01*
X371465Y145409D01*
X371115Y144565D01*
X371079Y144291D01*
X370805Y144255D01*
X369962Y143905D01*
X369237Y143349D01*
X368681Y142625D01*
X368331Y141781D01*
X368295Y141507D01*
X368021Y141471D01*
X367178Y141121D01*
X366453Y140565D01*
X365897Y139841D01*
X365548Y138997D01*
X365428Y138092D01*
X365548Y137186D01*
X365897Y136342D01*
X366453Y135618D01*
X367178Y135062D01*
X368021Y134712D01*
X368927Y134593D01*
X369832Y134712D01*
X370676Y135062D01*
X371401Y135618D01*
X371957Y136342D01*
X372306Y137186D01*
X372342Y137460D01*
X372616Y137496D01*
X373460Y137846D01*
X374184Y138402D01*
X374740Y139126D01*
X375090Y139970D01*
X375126Y140244D01*
X375400Y140280D01*
X376244Y140630D01*
X376968Y141186D01*
X377524Y141910D01*
X377874Y142754D01*
X377993Y143659D01*
X377874Y144565D01*
X377524Y145409D01*
X376968Y146133D01*
X376244Y146689D01*
X375400Y147039D01*
X374495Y147158D01*
D02*
G37*
G36*
X319882Y138341D02*
X318976Y138222D01*
X318133Y137872D01*
X317408Y137316D01*
X316852Y136592D01*
X316503Y135748D01*
X316384Y134843D01*
X316503Y133937D01*
X316852Y133093D01*
X317408Y132369D01*
X318133Y131813D01*
X318976Y131463D01*
X319882Y131344D01*
X320787Y131463D01*
X321631Y131813D01*
X322356Y132369D01*
X322912Y133093D01*
X323261Y133937D01*
X323380Y134843D01*
X323261Y135748D01*
X322912Y136592D01*
X322356Y137316D01*
X321631Y137872D01*
X320787Y138222D01*
X319882Y138341D01*
D02*
G37*
G36*
X383759Y140675D02*
X382854Y140556D01*
X382010Y140207D01*
X381286Y139651D01*
X380730Y138926D01*
X380380Y138082D01*
X380344Y137808D01*
X380070Y137772D01*
X379227Y137423D01*
X378502Y136867D01*
X377946Y136142D01*
X377597Y135298D01*
X377477Y134393D01*
X377597Y133487D01*
X377946Y132644D01*
X378502Y131919D01*
X379227Y131363D01*
X380070Y131014D01*
X380392Y130971D01*
X380507Y130100D01*
X380856Y129257D01*
X381412Y128532D01*
X382137Y127976D01*
X382981Y127627D01*
X383886Y127507D01*
X384791Y127627D01*
X385635Y127976D01*
X386360Y128532D01*
X386916Y129257D01*
X387265Y130100D01*
X387385Y131006D01*
X387265Y131911D01*
X386916Y132755D01*
X386360Y133480D01*
X385910Y133825D01*
X385895Y134444D01*
X386233Y134703D01*
X386789Y135428D01*
X387139Y136272D01*
X387258Y137177D01*
X387139Y138082D01*
X386789Y138926D01*
X386233Y139651D01*
X385509Y140207D01*
X384665Y140556D01*
X383759Y140675D01*
D02*
G37*
G36*
X375408Y132324D02*
X374503Y132204D01*
X373659Y131855D01*
X372934Y131299D01*
X372378Y130574D01*
X372029Y129731D01*
X371910Y128825D01*
X372029Y127920D01*
X372378Y127076D01*
X372934Y126351D01*
X373659Y125795D01*
X374503Y125446D01*
X375408Y125327D01*
X376313Y125446D01*
X377157Y125795D01*
X377882Y126351D01*
X378438Y127076D01*
X378787Y127920D01*
X378906Y128825D01*
X378787Y129731D01*
X378438Y130574D01*
X377882Y131299D01*
X377157Y131855D01*
X376313Y132204D01*
X375408Y132324D01*
D02*
G37*
G36*
X333803Y129414D02*
X332897Y129295D01*
X332053Y128945D01*
X331329Y128389D01*
X330773Y127665D01*
X330423Y126821D01*
X330304Y125916D01*
X330423Y125010D01*
X330773Y124166D01*
X331329Y123442D01*
X332053Y122886D01*
X332897Y122536D01*
X333803Y122417D01*
X334708Y122536D01*
X335552Y122886D01*
X336277Y123442D01*
X336832Y124166D01*
X337182Y125010D01*
X337301Y125916D01*
X337182Y126821D01*
X336832Y127665D01*
X336277Y128389D01*
X335552Y128945D01*
X334708Y129295D01*
X333803Y129414D01*
D02*
G37*
G36*
X374015Y122593D02*
X373110Y122474D01*
X372266Y122124D01*
X371541Y121568D01*
X370985Y120844D01*
X370636Y120000D01*
X370517Y119094D01*
X370636Y118189D01*
X370985Y117345D01*
X371541Y116621D01*
X372266Y116065D01*
X373110Y115715D01*
X374015Y115596D01*
X374921Y115715D01*
X375764Y116065D01*
X376489Y116621D01*
X377045Y117345D01*
X377394Y118189D01*
X377513Y119094D01*
X377394Y120000D01*
X377045Y120844D01*
X376489Y121568D01*
X375764Y122124D01*
X374921Y122474D01*
X374015Y122593D01*
D02*
G37*
G36*
X687008Y41226D02*
Y29528D01*
X698707D01*
X698691Y29721D01*
X698185Y31830D01*
X697355Y33834D01*
X696222Y35683D01*
X694813Y37333D01*
X693164Y38741D01*
X691315Y39875D01*
X689311Y40705D01*
X687202Y41211D01*
X687008Y41226D01*
D02*
G37*
G36*
X683071D02*
X682877Y41211D01*
X680768Y40705D01*
X678764Y39875D01*
X676915Y38741D01*
X675266Y37333D01*
X673857Y35683D01*
X672724Y33834D01*
X671894Y31830D01*
X671387Y29721D01*
X671372Y29528D01*
X683071D01*
Y41226D01*
D02*
G37*
G36*
X29528D02*
Y29528D01*
X41226D01*
X41211Y29721D01*
X40705Y31830D01*
X39875Y33834D01*
X38741Y35683D01*
X37333Y37333D01*
X35683Y38741D01*
X33834Y39875D01*
X31830Y40705D01*
X29721Y41211D01*
X29528Y41226D01*
D02*
G37*
G36*
X25591D02*
X25397Y41211D01*
X23288Y40705D01*
X21284Y39875D01*
X19434Y38741D01*
X17785Y37333D01*
X16377Y35683D01*
X15243Y33834D01*
X14413Y31830D01*
X13907Y29721D01*
X13892Y29528D01*
X25591D01*
Y41226D01*
D02*
G37*
G36*
X209909Y34047D02*
X209004Y33927D01*
X208160Y33578D01*
X207436Y33022D01*
X206880Y32297D01*
X206530Y31454D01*
X206411Y30548D01*
X206530Y29643D01*
X206880Y28799D01*
X207436Y28074D01*
X208160Y27518D01*
X209004Y27169D01*
X209909Y27050D01*
X210815Y27169D01*
X211659Y27518D01*
X212383Y28074D01*
X212939Y28799D01*
X213289Y29643D01*
X213408Y30548D01*
X213289Y31454D01*
X212939Y32297D01*
X212383Y33022D01*
X211659Y33578D01*
X210815Y33927D01*
X209909Y34047D01*
D02*
G37*
G36*
X119358D02*
X118453Y33927D01*
X117609Y33578D01*
X116884Y33022D01*
X116329Y32297D01*
X115979Y31454D01*
X115860Y30548D01*
X115979Y29643D01*
X116329Y28799D01*
X116884Y28074D01*
X117609Y27518D01*
X118453Y27169D01*
X119358Y27050D01*
X120264Y27169D01*
X121107Y27518D01*
X121832Y28074D01*
X122388Y28799D01*
X122737Y29643D01*
X122857Y30548D01*
X122737Y31454D01*
X122388Y32297D01*
X121832Y33022D01*
X121107Y33578D01*
X120264Y33927D01*
X119358Y34047D01*
D02*
G37*
G36*
X152596Y33747D02*
X151690Y33627D01*
X150846Y33278D01*
X150122Y32722D01*
X149566Y31997D01*
X149216Y31154D01*
X149097Y30248D01*
X149216Y29343D01*
X149566Y28499D01*
X150122Y27774D01*
X150846Y27218D01*
X151690Y26869D01*
X152596Y26750D01*
X153501Y26869D01*
X154345Y27218D01*
X155069Y27774D01*
X155625Y28499D01*
X155975Y29343D01*
X156094Y30248D01*
X155975Y31154D01*
X155625Y31997D01*
X155069Y32722D01*
X154345Y33278D01*
X153501Y33627D01*
X152596Y33747D01*
D02*
G37*
G36*
X62044D02*
X61139Y33627D01*
X60295Y33278D01*
X59571Y32722D01*
X59015Y31997D01*
X58665Y31154D01*
X58546Y30248D01*
X58665Y29343D01*
X59015Y28499D01*
X59571Y27774D01*
X60295Y27218D01*
X61139Y26869D01*
X62044Y26750D01*
X62950Y26869D01*
X63794Y27218D01*
X64518Y27774D01*
X65074Y28499D01*
X65424Y29343D01*
X65543Y30248D01*
X65424Y31154D01*
X65074Y31997D01*
X64518Y32722D01*
X63794Y33278D01*
X62950Y33627D01*
X62044Y33747D01*
D02*
G37*
G36*
X191797Y23462D02*
X190891Y23343D01*
X190047Y22994D01*
X189323Y22438D01*
X188767Y21713D01*
X188417Y20869D01*
X188298Y19964D01*
X188417Y19059D01*
X188767Y18215D01*
X189323Y17490D01*
X190047Y16934D01*
X190891Y16585D01*
X191797Y16465D01*
X192702Y16585D01*
X193546Y16934D01*
X194270Y17490D01*
X194826Y18215D01*
X195176Y19059D01*
X195295Y19964D01*
X195176Y20869D01*
X194826Y21713D01*
X194270Y22438D01*
X193546Y22994D01*
X192702Y23343D01*
X191797Y23462D01*
D02*
G37*
G36*
X101245D02*
X100340Y23343D01*
X99496Y22994D01*
X98772Y22438D01*
X98216Y21713D01*
X97866Y20869D01*
X97747Y19964D01*
X97866Y19059D01*
X98216Y18215D01*
X98772Y17490D01*
X99496Y16934D01*
X100340Y16585D01*
X101245Y16465D01*
X102151Y16585D01*
X102995Y16934D01*
X103719Y17490D01*
X104275Y18215D01*
X104625Y19059D01*
X104744Y19964D01*
X104625Y20869D01*
X104275Y21713D01*
X103719Y22438D01*
X102995Y22994D01*
X102151Y23343D01*
X101245Y23462D01*
D02*
G37*
G36*
X170818Y23353D02*
X169913Y23233D01*
X169069Y22884D01*
X168344Y22328D01*
X167789Y21603D01*
X167439Y20760D01*
X167320Y19854D01*
X167439Y18949D01*
X167789Y18105D01*
X168344Y17380D01*
X169069Y16824D01*
X169913Y16475D01*
X170818Y16356D01*
X171724Y16475D01*
X172567Y16824D01*
X173292Y17380D01*
X173848Y18105D01*
X174197Y18949D01*
X174317Y19854D01*
X174197Y20760D01*
X173848Y21603D01*
X173292Y22328D01*
X172567Y22884D01*
X171724Y23233D01*
X170818Y23353D01*
D02*
G37*
G36*
X80267D02*
X79361Y23233D01*
X78518Y22884D01*
X77793Y22328D01*
X77237Y21603D01*
X76888Y20760D01*
X76769Y19854D01*
X76888Y18949D01*
X77237Y18105D01*
X77793Y17380D01*
X78518Y16824D01*
X79361Y16475D01*
X80267Y16356D01*
X81173Y16475D01*
X82016Y16824D01*
X82741Y17380D01*
X83297Y18105D01*
X83646Y18949D01*
X83765Y19854D01*
X83646Y20760D01*
X83297Y21603D01*
X82741Y22328D01*
X82016Y22884D01*
X81173Y23233D01*
X80267Y23353D01*
D02*
G37*
G36*
X698707Y25591D02*
X687008D01*
Y13892D01*
X687202Y13907D01*
X689311Y14413D01*
X691315Y15243D01*
X693164Y16377D01*
X694813Y17785D01*
X696222Y19434D01*
X697355Y21284D01*
X698185Y23288D01*
X698691Y25397D01*
X698707Y25591D01*
D02*
G37*
G36*
X683071D02*
X671372D01*
X671387Y25397D01*
X671894Y23288D01*
X672724Y21284D01*
X673857Y19434D01*
X675266Y17785D01*
X676915Y16377D01*
X678764Y15243D01*
X680768Y14413D01*
X682877Y13907D01*
X683071Y13892D01*
Y25591D01*
D02*
G37*
G36*
X41226D02*
X29528D01*
Y13892D01*
X29721Y13907D01*
X31830Y14413D01*
X33834Y15243D01*
X35683Y16377D01*
X37333Y17785D01*
X38741Y19434D01*
X39875Y21284D01*
X40705Y23288D01*
X41211Y25397D01*
X41226Y25591D01*
D02*
G37*
G36*
X25591D02*
X13892D01*
X13907Y25397D01*
X14413Y23288D01*
X15243Y21284D01*
X16377Y19434D01*
X17785Y17785D01*
X19434Y16377D01*
X21284Y15243D01*
X23288Y14413D01*
X25397Y13907D01*
X25591Y13892D01*
Y25591D01*
D02*
G37*
%LPD*%
D13*
X437008Y170276D02*
X465551Y141732D01*
X473228D01*
X433071Y151575D02*
Y183071D01*
X437008Y187008D01*
D63*
X456693Y236220D02*
D03*
X272638Y264764D02*
D03*
X272638Y137795D02*
D03*
X280512Y215158D02*
D03*
X338681Y255906D02*
D03*
X702240Y133291D02*
D03*
Y197268D02*
D03*
X225295Y330118D02*
D03*
X225295Y262402D02*
D03*
Y194488D02*
D03*
X598425Y222441D02*
D03*
X602362Y249016D02*
D03*
X333858Y310079D02*
D03*
X359252D02*
D03*
X333858Y300079D02*
D03*
Y290079D02*
D03*
Y280079D02*
D03*
X359252Y300079D02*
D03*
Y290079D02*
D03*
Y280079D02*
D03*
X303150Y316929D02*
D03*
X477362Y106689D02*
D03*
X406495Y125984D02*
D03*
X388543Y106691D02*
D03*
X518465Y106691D02*
D03*
D71*
X598425Y222441D02*
X669291D01*
X602362Y249016D02*
X669291D01*
X636811Y265748D02*
X669291D01*
X431102Y236220D02*
X456693D01*
X388543Y106691D02*
X388543Y106691D01*
X518465D01*
D72*
X517905Y101044D02*
X520802Y98146D01*
X390881D02*
X393778Y101044D01*
X517905D01*
D74*
X356299Y177165D02*
D03*
D76*
X636811Y265748D02*
D03*
X184055D02*
D03*
D77*
X612697Y75251D02*
D03*
X522146D02*
D03*
X392224D02*
D03*
X301673D02*
D03*
X171752D02*
D03*
X81201D02*
D03*
X631398Y42860D02*
D03*
X540846D02*
D03*
X410925D02*
D03*
X320374D02*
D03*
X190453D02*
D03*
X99902D02*
D03*
X622047Y40354D02*
D03*
X531496D02*
D03*
X401575D02*
D03*
X311024D02*
D03*
X181102D02*
D03*
X90551D02*
D03*
X638243Y49705D02*
D03*
X547691D02*
D03*
X417770D02*
D03*
X327219D02*
D03*
X197298D02*
D03*
X106747D02*
D03*
X640748Y59055D02*
D03*
X550197D02*
D03*
X420276D02*
D03*
X329724D02*
D03*
X199803D02*
D03*
X109252D02*
D03*
X638243Y68405D02*
D03*
X547691D02*
D03*
X417770D02*
D03*
X327219D02*
D03*
X197298D02*
D03*
X106747D02*
D03*
X631398Y75251D02*
D03*
X540846D02*
D03*
X410925D02*
D03*
X320374D02*
D03*
X190453D02*
D03*
X99902D02*
D03*
X612697Y42860D02*
D03*
X522146D02*
D03*
X392224D02*
D03*
X301673D02*
D03*
X171752D02*
D03*
X81201D02*
D03*
X605852Y49705D02*
D03*
X515301D02*
D03*
X385379D02*
D03*
X294828D02*
D03*
X164907D02*
D03*
X74356D02*
D03*
X603346Y59055D02*
D03*
X512795D02*
D03*
X382874D02*
D03*
X292323D02*
D03*
X162402D02*
D03*
X71850D02*
D03*
X605852Y68405D02*
D03*
X515301D02*
D03*
X385379D02*
D03*
X294828D02*
D03*
X164907Y68405D02*
D03*
X74356Y68405D02*
D03*
X631398Y75251D02*
D03*
X638243Y68405D02*
D03*
X640748Y59055D02*
D03*
X638243Y49705D02*
D03*
X631398Y42860D02*
D03*
X622047Y40354D02*
D03*
X612697Y42860D02*
D03*
X605852Y49705D02*
D03*
X603346Y59055D02*
D03*
X605852Y68405D02*
D03*
X612697Y75251D02*
D03*
X540846D02*
D03*
X547691Y68405D02*
D03*
X550197Y59055D02*
D03*
X547691Y49705D02*
D03*
X540846Y42860D02*
D03*
X531496Y40354D02*
D03*
X522146Y42860D02*
D03*
X515301Y49705D02*
D03*
X512795Y59055D02*
D03*
X515301Y68405D02*
D03*
X522146Y75251D02*
D03*
X410925D02*
D03*
X417770Y68405D02*
D03*
X420276Y59055D02*
D03*
X417770Y49705D02*
D03*
X410925Y42860D02*
D03*
X401575Y40354D02*
D03*
X392224Y42860D02*
D03*
X385379Y49705D02*
D03*
X382874Y59055D02*
D03*
X385379Y68405D02*
D03*
X392224Y75251D02*
D03*
X320374D02*
D03*
X327219Y68405D02*
D03*
X329724Y59055D02*
D03*
X327219Y49705D02*
D03*
X320374Y42860D02*
D03*
X311024Y40354D02*
D03*
X301673Y42860D02*
D03*
X294828Y49705D02*
D03*
X292323Y59055D02*
D03*
X294828Y68405D02*
D03*
X301673Y75251D02*
D03*
X190453D02*
D03*
X197298Y68405D02*
D03*
X199803Y59055D02*
D03*
X197298Y49705D02*
D03*
X190453Y42860D02*
D03*
X181102Y40354D02*
D03*
X171752Y42860D02*
D03*
X164907Y49705D02*
D03*
X162402Y59055D02*
D03*
X164907Y68405D02*
D03*
X171752Y75251D02*
D03*
X99902D02*
D03*
X106747Y68405D02*
D03*
X109252Y59055D02*
D03*
X106747Y49705D02*
D03*
X99902Y42860D02*
D03*
X90551Y40354D02*
D03*
X81201Y42860D02*
D03*
X74356Y49705D02*
D03*
X71850Y59055D02*
D03*
X74356Y68405D02*
D03*
X81201Y75251D02*
D03*
D81*
X685039Y27559D02*
D03*
Y326772D02*
D03*
X27559D02*
D03*
Y27559D02*
D03*
D82*
X437008Y187008D02*
D03*
X433071Y151575D02*
D03*
X401856Y199058D02*
D03*
X356299Y189414D02*
D03*
X359362Y186352D02*
D03*
X362424Y183290D02*
D03*
X365486Y180228D02*
D03*
X368548Y177165D02*
D03*
X353237Y186352D02*
D03*
X356299Y183290D02*
D03*
X359362Y180228D02*
D03*
X362424Y177165D02*
D03*
X365486Y174103D02*
D03*
X350175Y183290D02*
D03*
X353237Y180228D02*
D03*
X359362Y174103D02*
D03*
X362424Y171041D02*
D03*
X347112Y180228D02*
D03*
X350175Y177165D02*
D03*
X353237Y174103D02*
D03*
X356299Y171041D02*
D03*
X359362Y167979D02*
D03*
X344050Y177165D02*
D03*
X347112Y174103D02*
D03*
X350175Y171041D02*
D03*
X353237Y167979D02*
D03*
X356299Y164916D02*
D03*
X366143Y135308D02*
D03*
X298216Y186531D02*
D03*
X287859Y164815D02*
D03*
X313527Y152489D02*
D03*
X333929Y147835D02*
D03*
X342302Y139461D02*
D03*
X326968Y199536D02*
D03*
X520802Y98146D02*
D03*
X390881D02*
D03*
X371233Y229681D02*
D03*
X375886Y209280D02*
D03*
X387021Y198144D02*
D03*
X391198Y160363D02*
D03*
X394895Y148312D02*
D03*
X388414Y157579D02*
D03*
X311658Y170106D02*
D03*
X342758Y231073D02*
D03*
X329752Y202320D02*
D03*
X318617Y191184D02*
D03*
X415204Y198968D02*
D03*
X395717Y218453D02*
D03*
X416597Y156757D02*
D03*
X297996Y201146D02*
D03*
X325622Y231205D02*
D03*
X330323Y122436D02*
D03*
X387366Y127526D02*
D03*
X378192Y131609D02*
D03*
X473228Y141732D02*
D03*
X414370Y172244D02*
D03*
X437008Y170276D02*
D03*
X317703Y206018D02*
D03*
M02*
