G04*
G04 #@! TF.GenerationSoftware,Altium Limited,Altium Designer,18.0.9 (584)*
G04*
G04 Layer_Color=8388736*
%FSLAX25Y25*%
%MOIN*%
G70*
G01*
G75*
G04:AMPARAMS|DCode=14|XSize=75.87mil|YSize=83.74mil|CornerRadius=0mil|HoleSize=0mil|Usage=FLASHONLY|Rotation=225.000|XOffset=0mil|YOffset=0mil|HoleType=Round|Shape=Rectangle|*
%AMROTATEDRECTD14*
4,1,4,-0.00278,0.05643,0.05643,-0.00278,0.00278,-0.05643,-0.05643,0.00278,-0.00278,0.05643,0.0*
%
%ADD14ROTATEDRECTD14*%

G04:AMPARAMS|DCode=15|XSize=75.87mil|YSize=83.74mil|CornerRadius=0mil|HoleSize=0mil|Usage=FLASHONLY|Rotation=225.000|XOffset=0mil|YOffset=0mil|HoleType=Round|Shape=Round|*
%AMOVALD15*
21,1,0.00787,0.07587,0.00000,0.00000,315.0*
1,1,0.07587,-0.00278,0.00278*
1,1,0.07587,0.00278,-0.00278*
%
%ADD15OVALD15*%

%ADD16R,0.02862X0.04831*%
%ADD17R,0.05500X0.05500*%
%ADD18O,0.04043X0.05224*%
G04:AMPARAMS|DCode=19|XSize=28.62mil|YSize=64.06mil|CornerRadius=0mil|HoleSize=0mil|Usage=FLASHONLY|Rotation=135.000|XOffset=0mil|YOffset=0mil|HoleType=Round|Shape=Round|*
%AMOVALD19*
21,1,0.03543,0.02862,0.00000,0.00000,225.0*
1,1,0.02862,0.01253,0.01253*
1,1,0.02862,-0.01253,-0.01253*
%
%ADD19OVALD19*%

G04:AMPARAMS|DCode=20|XSize=19.81mil|YSize=67.06mil|CornerRadius=0mil|HoleSize=0mil|Usage=FLASHONLY|Rotation=45.000|XOffset=0mil|YOffset=0mil|HoleType=Round|Shape=Round|*
%AMOVALD20*
21,1,0.04724,0.01981,0.00000,0.00000,135.0*
1,1,0.01981,0.01670,-0.01670*
1,1,0.01981,-0.01670,0.01670*
%
%ADD20OVALD20*%

G04:AMPARAMS|DCode=21|XSize=19.81mil|YSize=67.06mil|CornerRadius=0mil|HoleSize=0mil|Usage=FLASHONLY|Rotation=315.000|XOffset=0mil|YOffset=0mil|HoleType=Round|Shape=Round|*
%AMOVALD21*
21,1,0.04724,0.01981,0.00000,0.00000,45.0*
1,1,0.01981,-0.01670,-0.01670*
1,1,0.01981,0.01670,0.01670*
%
%ADD21OVALD21*%

%ADD22C,0.04437*%
%ADD23O,0.05500X0.13000*%
%ADD24R,0.05500X0.13000*%
%ADD25R,0.05224X0.06406*%
%ADD26R,0.06406X0.05224*%
G04:AMPARAMS|DCode=27|XSize=64.06mil|YSize=52.24mil|CornerRadius=0mil|HoleSize=0mil|Usage=FLASHONLY|Rotation=45.000|XOffset=0mil|YOffset=0mil|HoleType=Round|Shape=Rectangle|*
%AMROTATEDRECTD27*
4,1,4,-0.00418,-0.04112,-0.04112,-0.00418,0.00418,0.04112,0.04112,0.00418,-0.00418,-0.04112,0.0*
%
%ADD27ROTATEDRECTD27*%

%ADD28O,0.08374X0.06406*%
%ADD29C,0.06406*%
%ADD30R,0.03059X0.04831*%
%ADD31R,0.22547X0.30028*%
%ADD32R,0.04634X0.13492*%
G04:AMPARAMS|DCode=33|XSize=44.37mil|YSize=42.4mil|CornerRadius=0mil|HoleSize=0mil|Usage=FLASHONLY|Rotation=45.000|XOffset=0mil|YOffset=0mil|HoleType=Round|Shape=Rectangle|*
%AMROTATEDRECTD33*
4,1,4,-0.00070,-0.03068,-0.03068,-0.00070,0.00070,0.03068,0.03068,0.00070,-0.00070,-0.03068,0.0*
%
%ADD33ROTATEDRECTD33*%

G04:AMPARAMS|DCode=34|XSize=44.37mil|YSize=42.4mil|CornerRadius=0mil|HoleSize=0mil|Usage=FLASHONLY|Rotation=315.000|XOffset=0mil|YOffset=0mil|HoleType=Round|Shape=Rectangle|*
%AMROTATEDRECTD34*
4,1,4,-0.03068,0.00070,-0.00070,0.03068,0.03068,-0.00070,0.00070,-0.03068,-0.03068,0.00070,0.0*
%
%ADD34ROTATEDRECTD34*%

%ADD35R,0.04437X0.04240*%
%ADD36C,0.00500*%
%ADD37P,0.32033X4X360.0*%
%ADD38C,0.09161*%
%ADD39C,0.10343*%
%ADD40C,0.09894*%
%ADD41C,0.07587*%
%ADD42R,0.07587X0.07587*%
%ADD43C,0.12311*%
%ADD44C,0.24122*%
%ADD45C,0.03500*%
%ADD46C,0.03800*%
%ADD47C,0.04500*%
D14*
X313473Y235480D02*
D03*
D15*
X325166Y223788D02*
D03*
X311024Y209646D02*
D03*
X299331Y221338D02*
D03*
D16*
X324055Y252992D02*
D03*
X316575D02*
D03*
X320315Y242756D02*
D03*
D17*
X369035Y280079D02*
D03*
Y290079D02*
D03*
Y300079D02*
D03*
Y310079D02*
D03*
X324035D02*
D03*
Y300079D02*
D03*
Y290079D02*
D03*
Y280079D02*
D03*
D18*
X316535Y262579D02*
D03*
X321535D02*
D03*
X326535D02*
D03*
X331535D02*
D03*
X336535D02*
D03*
X341535D02*
D03*
X366535D02*
D03*
X371535D02*
D03*
X376535D02*
D03*
Y327579D02*
D03*
X371535D02*
D03*
X366535D02*
D03*
X361535D02*
D03*
X356535D02*
D03*
X351535D02*
D03*
X346535D02*
D03*
X341535D02*
D03*
X336535D02*
D03*
X331535D02*
D03*
X326535D02*
D03*
X321535D02*
D03*
X316535D02*
D03*
D19*
X392001Y248301D02*
D03*
X388466Y251836D02*
D03*
X384930Y255372D02*
D03*
X381395Y258907D02*
D03*
X376969Y233268D02*
D03*
X373433Y236803D02*
D03*
X369897Y240339D02*
D03*
X366362Y243874D02*
D03*
D20*
X350871Y231312D02*
D03*
X349479Y229920D02*
D03*
X348087Y228528D02*
D03*
X346695Y227136D02*
D03*
X345303Y225744D02*
D03*
X343911Y224352D02*
D03*
X342519Y222960D02*
D03*
X341127Y221568D02*
D03*
X339735Y220176D02*
D03*
X338343Y218784D02*
D03*
X336951Y217392D02*
D03*
X335559Y216001D02*
D03*
X334167Y214609D02*
D03*
X332775Y213217D02*
D03*
X331383Y211825D02*
D03*
X329992Y210433D02*
D03*
X328600Y209041D02*
D03*
X327208Y207649D02*
D03*
X325816Y206257D02*
D03*
X324424Y204865D02*
D03*
X323032Y203473D02*
D03*
X321640Y202081D02*
D03*
X320248Y200689D02*
D03*
X318856Y199297D02*
D03*
X317464Y197905D02*
D03*
X316072Y196513D02*
D03*
X314680Y195121D02*
D03*
X313288Y193729D02*
D03*
X311896Y192338D02*
D03*
X310504Y190946D02*
D03*
X309112Y189554D02*
D03*
X307720Y188162D02*
D03*
X306329Y186770D02*
D03*
X304937Y185378D02*
D03*
X303545Y183986D02*
D03*
X302153Y182594D02*
D03*
X361728Y123019D02*
D03*
X363120Y124411D02*
D03*
X364512Y125803D02*
D03*
X365904Y127195D02*
D03*
X367296Y128587D02*
D03*
X368688Y129979D02*
D03*
X370079Y131370D02*
D03*
X371471Y132762D02*
D03*
X372863Y134154D02*
D03*
X374255Y135546D02*
D03*
X375647Y136938D02*
D03*
X377039Y138330D02*
D03*
X378431Y139722D02*
D03*
X379823Y141114D02*
D03*
X381215Y142506D02*
D03*
X382607Y143898D02*
D03*
X383999Y145290D02*
D03*
X385391Y146682D02*
D03*
X386783Y148074D02*
D03*
X388175Y149466D02*
D03*
X389567Y150858D02*
D03*
X390959Y152250D02*
D03*
X392351Y153641D02*
D03*
X393742Y155034D02*
D03*
X395134Y156425D02*
D03*
X396526Y157817D02*
D03*
X397918Y159209D02*
D03*
X399310Y160601D02*
D03*
X400702Y161993D02*
D03*
X402094Y163385D02*
D03*
X403486Y164777D02*
D03*
X404878Y166169D02*
D03*
X406270Y167561D02*
D03*
X407662Y168953D02*
D03*
X409054Y170345D02*
D03*
X410446Y171737D02*
D03*
D21*
X302153D02*
D03*
X303545Y170345D02*
D03*
X304937Y168953D02*
D03*
X306329Y167561D02*
D03*
X307720Y166169D02*
D03*
X309112Y164777D02*
D03*
X310504Y163385D02*
D03*
X311896Y161993D02*
D03*
X313288Y160601D02*
D03*
X314680Y159209D02*
D03*
X316072Y157817D02*
D03*
X317464Y156425D02*
D03*
X318856Y155034D02*
D03*
X320248Y153641D02*
D03*
X321640Y152250D02*
D03*
X323032Y150858D02*
D03*
X324424Y149466D02*
D03*
X325816Y148074D02*
D03*
X327208Y146682D02*
D03*
X328600Y145290D02*
D03*
X329992Y143898D02*
D03*
X331383Y142506D02*
D03*
X332775Y141114D02*
D03*
X334167Y139722D02*
D03*
X335559Y138330D02*
D03*
X336951Y136938D02*
D03*
X338343Y135546D02*
D03*
X339735Y134154D02*
D03*
X341127Y132762D02*
D03*
X342519Y131370D02*
D03*
X343911Y129979D02*
D03*
X345303Y128587D02*
D03*
X346695Y127195D02*
D03*
X348087Y125803D02*
D03*
X349479Y124411D02*
D03*
X350871Y123019D02*
D03*
X410446Y182594D02*
D03*
X409054Y183986D02*
D03*
X407662Y185378D02*
D03*
X406270Y186770D02*
D03*
X404878Y188162D02*
D03*
X403486Y189554D02*
D03*
X402094Y190946D02*
D03*
X400702Y192338D02*
D03*
X399310Y193729D02*
D03*
X397918Y195121D02*
D03*
X396526Y196513D02*
D03*
X395134Y197905D02*
D03*
X393742Y199297D02*
D03*
X392351Y200689D02*
D03*
X390959Y202081D02*
D03*
X389567Y203473D02*
D03*
X388175Y204865D02*
D03*
X386783Y206257D02*
D03*
X385391Y207649D02*
D03*
X383999Y209041D02*
D03*
X382607Y210433D02*
D03*
X381215Y211825D02*
D03*
X379823Y213217D02*
D03*
X378431Y214609D02*
D03*
X377039Y216001D02*
D03*
X375647Y217392D02*
D03*
X374255Y218784D02*
D03*
X372863Y220176D02*
D03*
X371471Y221568D02*
D03*
X370079Y222960D02*
D03*
X368688Y224352D02*
D03*
X367296Y225744D02*
D03*
X365904Y227136D02*
D03*
X364512Y228528D02*
D03*
X363120Y229920D02*
D03*
X361728Y231312D02*
D03*
D22*
X376535Y348425D02*
D03*
X371535Y340551D02*
D03*
X366535Y348425D02*
D03*
D23*
X247716Y310039D02*
D03*
X257716Y293789D02*
D03*
Y310039D02*
D03*
X267717Y293789D02*
D03*
Y310039D02*
D03*
X277716Y293789D02*
D03*
Y310039D02*
D03*
X287717Y293789D02*
D03*
Y310039D02*
D03*
D24*
X247716Y293789D02*
D03*
D25*
X358268Y255906D02*
D03*
X366535D02*
D03*
X481496Y134843D02*
D03*
X473228D02*
D03*
D26*
X344488Y344488D02*
D03*
Y336221D02*
D03*
X334724Y344488D02*
D03*
Y336221D02*
D03*
X247716Y280512D02*
D03*
Y272244D02*
D03*
X287717D02*
D03*
Y280512D02*
D03*
X277716Y272244D02*
D03*
Y280512D02*
D03*
X267717Y272244D02*
D03*
Y280512D02*
D03*
D27*
X401498Y136140D02*
D03*
X395652Y141986D02*
D03*
D28*
X456693Y115157D02*
D03*
D29*
X461221Y136811D02*
D03*
X452165D02*
D03*
X388779Y280512D02*
D03*
X456693Y236220D02*
D03*
X456693Y176181D02*
D03*
X272638Y264764D02*
D03*
X272638Y137795D02*
D03*
X280512Y215158D02*
D03*
X456693Y295276D02*
D03*
X338681Y255906D02*
D03*
X675665Y256890D02*
D03*
X675665Y192913D02*
D03*
X702240Y133291D02*
D03*
Y197268D02*
D03*
X263583Y328740D02*
D03*
X225295Y330118D02*
D03*
X225295Y262402D02*
D03*
Y194488D02*
D03*
X387795Y169291D02*
D03*
X324803Y185039D02*
D03*
X348425Y145669D02*
D03*
X364173Y208661D02*
D03*
X598425Y222441D02*
D03*
X602362Y249016D02*
D03*
X333858Y310079D02*
D03*
X359252D02*
D03*
X333858Y300079D02*
D03*
Y290079D02*
D03*
Y280079D02*
D03*
X359252Y300079D02*
D03*
Y290079D02*
D03*
Y280079D02*
D03*
X297244Y272638D02*
D03*
X303150Y316929D02*
D03*
X342520Y247047D02*
D03*
X418307Y136811D02*
D03*
X263583Y205118D02*
D03*
X324920Y169409D02*
D03*
X348542Y208544D02*
D03*
X387678Y184922D02*
D03*
X364056Y145787D02*
D03*
X263583Y193110D02*
D03*
X477362Y106689D02*
D03*
X406495Y125984D02*
D03*
X388543Y106691D02*
D03*
X518465Y106691D02*
D03*
X609016D02*
D03*
X77520D02*
D03*
X168071D02*
D03*
X297992D02*
D03*
D30*
X481102Y125000D02*
D03*
X473622D02*
D03*
X477362Y115157D02*
D03*
D31*
X600394Y273622D02*
D03*
Y198819D02*
D03*
X564961Y257874D02*
D03*
Y214567D02*
D03*
D32*
X609370Y249606D02*
D03*
X591417D02*
D03*
Y222835D02*
D03*
X609370D02*
D03*
X555984Y281890D02*
D03*
X573937D02*
D03*
Y190551D02*
D03*
X555984D02*
D03*
D33*
X333039Y231662D02*
D03*
X329559Y235141D02*
D03*
X400828Y147948D02*
D03*
X404308Y144468D02*
D03*
X379949Y127069D02*
D03*
X383429Y123589D02*
D03*
X305413Y201603D02*
D03*
X301933Y205083D02*
D03*
X409179Y156300D02*
D03*
X412659Y152820D02*
D03*
X375773Y122893D02*
D03*
X379253Y119413D02*
D03*
D34*
X388300Y218910D02*
D03*
X391780Y222390D02*
D03*
X399436Y207774D02*
D03*
X402916Y211254D02*
D03*
X329866Y129853D02*
D03*
X326386Y126373D02*
D03*
X299243Y160476D02*
D03*
X295763Y156996D02*
D03*
X382733Y224478D02*
D03*
X386212Y227958D02*
D03*
X407788Y199425D02*
D03*
X411268Y202905D02*
D03*
X325690Y134029D02*
D03*
X322210Y130549D02*
D03*
X295067Y164663D02*
D03*
X291587Y161184D02*
D03*
X393630Y235374D02*
D03*
X390150Y231894D02*
D03*
D35*
X331772Y245413D02*
D03*
Y250335D02*
D03*
D36*
X622047Y59055D02*
D03*
X531496D02*
D03*
X401575D02*
D03*
X311024D02*
D03*
X181102D02*
D03*
X90551D02*
D03*
X344055Y297461D02*
D03*
D37*
X356299Y177165D02*
D03*
D38*
X582677Y157480D02*
D03*
Y314961D02*
D03*
X129921Y157480D02*
D03*
Y314961D02*
D03*
D39*
X528543Y187008D02*
D03*
Y285433D02*
D03*
X636811Y187008D02*
D03*
Y206693D02*
D03*
Y265748D02*
D03*
Y285433D02*
D03*
X75787Y187008D02*
D03*
Y285433D02*
D03*
X184055Y187008D02*
D03*
Y206693D02*
D03*
Y265748D02*
D03*
Y285433D02*
D03*
D40*
X612697Y75251D02*
D03*
X522146D02*
D03*
X392224D02*
D03*
X301673D02*
D03*
X171752D02*
D03*
X81201D02*
D03*
X631398Y42860D02*
D03*
X540846D02*
D03*
X410925D02*
D03*
X320374D02*
D03*
X190453D02*
D03*
X99902D02*
D03*
X622047Y40354D02*
D03*
X531496D02*
D03*
X401575D02*
D03*
X311024D02*
D03*
X181102D02*
D03*
X90551D02*
D03*
X638243Y49705D02*
D03*
X547691D02*
D03*
X417770D02*
D03*
X327219D02*
D03*
X197298D02*
D03*
X106747D02*
D03*
X640748Y59055D02*
D03*
X550197D02*
D03*
X420276D02*
D03*
X329724D02*
D03*
X199803D02*
D03*
X109252D02*
D03*
X638243Y68405D02*
D03*
X547691D02*
D03*
X417770D02*
D03*
X327219D02*
D03*
X197298D02*
D03*
X106747D02*
D03*
X631398Y75251D02*
D03*
X540846D02*
D03*
X410925D02*
D03*
X320374D02*
D03*
X190453D02*
D03*
X99902D02*
D03*
X612697Y42860D02*
D03*
X522146D02*
D03*
X392224D02*
D03*
X301673D02*
D03*
X171752D02*
D03*
X81201D02*
D03*
X605852Y49705D02*
D03*
X515301D02*
D03*
X385379D02*
D03*
X294828D02*
D03*
X164907D02*
D03*
X74356D02*
D03*
X603346Y59055D02*
D03*
X512795D02*
D03*
X382874D02*
D03*
X292323D02*
D03*
X162402D02*
D03*
X71850D02*
D03*
X605852Y68405D02*
D03*
X515301D02*
D03*
X385379D02*
D03*
X294828D02*
D03*
X164907Y68405D02*
D03*
X74356Y68405D02*
D03*
X631398Y75251D02*
D03*
X638243Y68405D02*
D03*
X640748Y59055D02*
D03*
X638243Y49705D02*
D03*
X631398Y42860D02*
D03*
X622047Y40354D02*
D03*
X612697Y42860D02*
D03*
X605852Y49705D02*
D03*
X603346Y59055D02*
D03*
X605852Y68405D02*
D03*
X612697Y75251D02*
D03*
X540846D02*
D03*
X547691Y68405D02*
D03*
X550197Y59055D02*
D03*
X547691Y49705D02*
D03*
X540846Y42860D02*
D03*
X531496Y40354D02*
D03*
X522146Y42860D02*
D03*
X515301Y49705D02*
D03*
X512795Y59055D02*
D03*
X515301Y68405D02*
D03*
X522146Y75251D02*
D03*
X410925D02*
D03*
X417770Y68405D02*
D03*
X420276Y59055D02*
D03*
X417770Y49705D02*
D03*
X410925Y42860D02*
D03*
X401575Y40354D02*
D03*
X392224Y42860D02*
D03*
X385379Y49705D02*
D03*
X382874Y59055D02*
D03*
X385379Y68405D02*
D03*
X392224Y75251D02*
D03*
X320374D02*
D03*
X327219Y68405D02*
D03*
X329724Y59055D02*
D03*
X327219Y49705D02*
D03*
X320374Y42860D02*
D03*
X311024Y40354D02*
D03*
X301673Y42860D02*
D03*
X294828Y49705D02*
D03*
X292323Y59055D02*
D03*
X294828Y68405D02*
D03*
X301673Y75251D02*
D03*
X190453D02*
D03*
X197298Y68405D02*
D03*
X199803Y59055D02*
D03*
X197298Y49705D02*
D03*
X190453Y42860D02*
D03*
X181102Y40354D02*
D03*
X171752Y42860D02*
D03*
X164907Y49705D02*
D03*
X162402Y59055D02*
D03*
X164907Y68405D02*
D03*
X171752Y75251D02*
D03*
X99902D02*
D03*
X106747Y68405D02*
D03*
X109252Y59055D02*
D03*
X106747Y49705D02*
D03*
X99902Y42860D02*
D03*
X90551Y40354D02*
D03*
X81201Y42860D02*
D03*
X74356Y49705D02*
D03*
X71850Y59055D02*
D03*
X74356Y68405D02*
D03*
X81201Y75251D02*
D03*
D41*
X32795Y153543D02*
D03*
X12795Y118110D02*
D03*
D42*
Y153543D02*
D03*
X32795Y118110D02*
D03*
D43*
X19685Y285433D02*
D03*
Y196457D02*
D03*
D44*
X685039Y27559D02*
D03*
Y326772D02*
D03*
X27559D02*
D03*
Y27559D02*
D03*
D45*
X437008Y191929D02*
D03*
Y187008D02*
D03*
X433070Y145669D02*
D03*
X430118Y142717D02*
D03*
Y148622D02*
D03*
X433071Y151575D02*
D03*
X403247Y156664D02*
D03*
X521212Y19854D02*
D03*
X400463Y153880D02*
D03*
X502989Y30248D02*
D03*
X396766Y165930D02*
D03*
X492405Y48361D02*
D03*
X392589Y192577D02*
D03*
X395373Y189793D02*
D03*
X389805Y195361D02*
D03*
X401856Y199058D02*
D03*
X403372Y203837D02*
D03*
X650554Y87862D02*
D03*
X492295Y69339D02*
D03*
X632331Y98256D02*
D03*
X437008Y196850D02*
D03*
X560003Y87862D02*
D03*
X397566Y231436D02*
D03*
X271823Y69339D02*
D03*
X366143Y135308D02*
D03*
X298216Y186531D02*
D03*
X307481Y180049D02*
D03*
X287859Y164815D02*
D03*
X313527Y152489D02*
D03*
X209909Y30548D02*
D03*
X142011Y48361D02*
D03*
X119358Y30548D02*
D03*
X333929Y147835D02*
D03*
X342302Y139461D02*
D03*
X335799Y224113D02*
D03*
X326968Y199536D02*
D03*
X332536Y205103D02*
D03*
X364750Y220416D02*
D03*
X542190Y19964D02*
D03*
X560303Y30548D02*
D03*
X570697Y48771D02*
D03*
X570587Y69749D02*
D03*
X541780Y98256D02*
D03*
X520802Y98146D02*
D03*
X582846Y69339D02*
D03*
X582956Y48361D02*
D03*
X593540Y30248D02*
D03*
X611763Y19854D02*
D03*
X632741Y19964D02*
D03*
X650854Y30548D02*
D03*
X661248Y48771D02*
D03*
X661138Y69749D02*
D03*
X611353Y98146D02*
D03*
X271932Y48361D02*
D03*
X282517Y30248D02*
D03*
X300739Y19854D02*
D03*
X321718Y19964D02*
D03*
X339831Y30548D02*
D03*
X350225Y48771D02*
D03*
X350115Y69749D02*
D03*
X339531Y87862D02*
D03*
X300330Y98146D02*
D03*
X362374Y69339D02*
D03*
X362484Y48361D02*
D03*
X373068Y30248D02*
D03*
X391291Y19854D02*
D03*
X412269Y19964D02*
D03*
X430382Y30548D02*
D03*
X440776Y48771D02*
D03*
X440666Y69749D02*
D03*
X430082Y87862D02*
D03*
X411859Y98256D02*
D03*
X390881Y98146D02*
D03*
X141901Y69339D02*
D03*
X152596Y30248D02*
D03*
X170818Y19854D02*
D03*
X191797Y19964D02*
D03*
X220194Y69749D02*
D03*
X209609Y87862D02*
D03*
X191387Y98256D02*
D03*
X170408Y98146D02*
D03*
X100835Y98256D02*
D03*
X79857Y98146D02*
D03*
X51350Y69339D02*
D03*
X119058Y87862D02*
D03*
X129642Y69749D02*
D03*
X129752Y48771D02*
D03*
X101245Y19964D02*
D03*
X80267Y19854D02*
D03*
X51460Y48361D02*
D03*
X62044Y30248D02*
D03*
X371233Y229681D02*
D03*
X373102Y212064D02*
D03*
X378670Y206496D02*
D03*
X375886Y209280D02*
D03*
X387021Y198144D02*
D03*
X399072Y201842D02*
D03*
X400941Y184225D02*
D03*
X405117Y174282D02*
D03*
X391198Y160363D02*
D03*
X393982Y163147D02*
D03*
X385630Y154795D02*
D03*
X394895Y148312D02*
D03*
X388414Y157579D02*
D03*
X371711Y140876D02*
D03*
X331145Y150618D02*
D03*
X311658Y170106D02*
D03*
X354807Y227375D02*
D03*
X345542Y233857D02*
D03*
X342758Y231073D02*
D03*
X349239Y221807D02*
D03*
X328839Y217154D02*
D03*
X329752Y202320D02*
D03*
X318617Y191184D02*
D03*
X315833Y188400D02*
D03*
X492126Y141732D02*
D03*
X411724Y195486D02*
D03*
X415204Y198968D02*
D03*
X395717Y218453D02*
D03*
X416597Y156757D02*
D03*
X404765Y151885D02*
D03*
X386269Y213775D02*
D03*
X312136Y200450D02*
D03*
X303180Y156538D02*
D03*
X291339Y168307D02*
D03*
X297996Y201146D02*
D03*
X325622Y231205D02*
D03*
X374015Y119094D02*
D03*
X374495Y143659D02*
D03*
X368927Y138092D02*
D03*
X375408Y128825D02*
D03*
X321308Y98256D02*
D03*
X333803Y125916D02*
D03*
X330323Y122436D02*
D03*
X319882Y134843D02*
D03*
X392237Y214973D02*
D03*
X383759Y137177D02*
D03*
X387366Y127526D02*
D03*
X383886Y131006D02*
D03*
X378192Y131609D02*
D03*
X380976Y134393D02*
D03*
X411417Y118110D02*
D03*
X405512D02*
D03*
X408465Y115157D02*
D03*
X414370D02*
D03*
X375000Y94488D02*
D03*
X380906D02*
D03*
X473228Y141732D02*
D03*
X413117Y160237D02*
D03*
X414370Y172244D02*
D03*
Y181102D02*
D03*
X437008Y170276D02*
D03*
X378796Y228415D02*
D03*
X382368Y218545D02*
D03*
X437008Y201772D02*
D03*
Y227362D02*
D03*
Y222441D02*
D03*
X220303Y48771D02*
D03*
X320009Y161754D02*
D03*
X317703Y206018D02*
D03*
X371621Y97532D02*
D03*
X352023Y224591D02*
D03*
D46*
X356299Y189414D02*
D03*
X359362Y186352D02*
D03*
X362424Y183290D02*
D03*
X365486Y180228D02*
D03*
X368548Y177165D02*
D03*
X353237Y186352D02*
D03*
X356299Y183290D02*
D03*
X359362Y180228D02*
D03*
X362424Y177165D02*
D03*
X365486Y174103D02*
D03*
X350175Y183290D02*
D03*
X353237Y180228D02*
D03*
X359362Y174103D02*
D03*
X362424Y171041D02*
D03*
X347112Y180228D02*
D03*
X350175Y177165D02*
D03*
X353237Y174103D02*
D03*
X356299Y171041D02*
D03*
X359362Y167979D02*
D03*
X344050Y177165D02*
D03*
X347112Y174103D02*
D03*
X350175Y171041D02*
D03*
X353237Y167979D02*
D03*
X356299Y164916D02*
D03*
D47*
X316535Y336614D02*
D03*
X321535D02*
D03*
X346535Y318543D02*
D03*
X336535Y269685D02*
D03*
X325689Y344488D02*
D03*
M02*
