M48
;Layer_Color=9474304
;FILE_FORMAT=2:4
INCH
;TYPE=PLATED
T1F00S00C0.0150
T2F00S00C0.0200
T3F00S00C0.0315
T4F00S00C0.0472
T5F00S00C0.0512
T6F00S00C0.0591
T7F00S00C0.0752
T8F00S00C0.1575
;TYPE=NON_PLATED
T9F00S00C0.0984
T10F00S00C0.1181
T11F00S00C0.2362
%
T01
X061176Y001985
X063274Y001996
X065085Y003055
X066125Y004877
X066114Y006975
X058285Y006934
X057059Y006975
X057070Y004877
X058296Y004836
X059354Y003025
X056030Y003055
X054219Y001996
X052121Y001985
X050299Y003025
X049240Y004836
X049229Y006934
X044067Y006975
X044078Y004877
X043038Y003055
X041227Y001996
X039129Y001985
X037307Y003025
X036248Y004836
X035022Y004877
X035011Y006975
X036237Y006934
X033983Y003055
X032172Y001996
X030074Y001985
X028252Y003025
X027193Y004836
X027182Y006934
X022019Y006975
X022030Y004877
X020991Y003055
X019180Y001996
X017082Y001985
X015260Y003025
X014201Y004836
X012975Y004877
X012964Y006975
X014190Y006934
X011936Y003055
X010125Y001996
X008027Y001985
X006204Y003025
X005146Y004836
X005135Y006934
X007986Y009815
X010084Y009826
X011906Y008786
X017041Y009815
X019139Y009826
X020961Y008786
X028786Y016482
X029134Y016831
X029822Y018653
X029800Y020115
X031214Y020045
X031770Y020602
X033254Y020510
X032975Y020232
X032697Y019954
X031862Y019118
X031583Y018840
X030748Y018005
X031166Y017011
X032001Y016175
X031353Y015249
X030318Y015654
X033114Y015062
X033393Y014783
X034230Y013946
X033380Y012592
X033032Y012244
X031988Y013484
X032131Y009826
X030033Y009815
X033953Y008786
X037162Y009753
X037500Y009449
X038091
X039088Y009815
X041186Y009826
X041437Y011516
X040846
X041142Y011811
X040551
X038737Y012753
X038389Y013101
X038098Y013439
X038376Y013718
X037819Y013161
X037541Y012883
X037401Y011909
X036893Y013809
X037171Y014088
X037449Y014366
X036614Y013531
X038563Y015479
X038841Y015758
X039120Y016036
X039398Y016315
X039677Y016593
X040046Y015388
X040325Y015666
X040476Y015188
X039490Y014831
X041660Y015676
X041312Y016024
X041437Y017224
Y018110
X040512Y017428
X040094Y018423
X039537Y018979
X039259Y019258
X038981Y019536
X038702Y019814
X040186Y019906
X039907Y020184
X040337Y020384
X041520Y019897
X041172Y019549
X043701Y019685
Y019193
Y018701
Y020177
Y022244
Y022736
X039757Y023144
X039572Y021845
X039224Y021497
X038627Y021378
X038237Y021855
X037880Y022842
X037123Y022968
X036475Y022042
X037310Y021206
X037589Y020928
X037867Y020650
X036549Y018023
X036242Y018329
X035936Y018635
X035630Y018941
X035324Y018635
X035017Y018329
X035324Y018023
X035630Y018329
X035936Y018023
Y017410
X036242Y017717
X036855
X036549Y017410
X036242Y017104
X035630
X035936Y016798
X035324
Y017410
X035017Y017717
X034405
X034711Y017410
X035017Y017104
X034711Y018023
X035630Y017717
Y016492
X035202Y022459
X035481Y022737
X034924Y022181
X034554Y023386
X034276Y023107
X033580Y022411
X032884Y021715
X032562Y023120
X043701Y017028
X043307Y015157
X043012Y014862
X043307Y014567
X043012Y014272
X043008Y008786
X047323Y014173
X049213
X052080Y009815
X054178Y009826
X056000Y008786
X061135Y009815
X063233Y009826
X065055Y008786
T02
X033654Y026969
X034654Y031854
X032154Y033661
X031654
X032569Y034449
T03
X007752Y010669
X016807
X029799
X027264Y013780
X026358Y019311
X026358Y020512
X028051Y021516
X022530Y019449
X032480Y018504
X032492Y016941
X034843Y014567
X036406Y014579
X038780Y016929
X038768Y018492
X036417Y020866
X034854Y020854
X040650Y012598
X041831Y013681
X038854Y010669
X047736Y010669
X051846Y010669
X060902
X059843Y022244
X045669Y023622
X045669Y017618
X067567Y019291
X070224Y019727
Y013329
X067567Y025689
X060236Y024902
X045669Y029528
X038878Y028051
X035925Y028008
Y029008
Y030008
Y031008
X033386
Y030008
Y029008
Y028008
X033868Y025591
X034252Y024705
X030315Y031693
X029724Y027264
X027264Y026476
X022530Y026240
X022530Y033012
X026358Y032874
T04
X007579Y018701
X018406
Y020669
X052854Y018701
X063681
Y020669
Y026575
Y028543
X052854
X018406
Y026575
X007579Y028543
T05
X001280Y011811
X003280
Y015354
X001280
T06
X001969Y019646
Y028543
T07
X061270Y004286
X062205Y004035
X063140Y004286
X063824Y004970
X064075Y005906
X063824Y006841
X063140Y007525
X061270
X060585Y006841
X060335Y005906
X060585Y004970
X054769
X055020Y005906
X054769Y006841
X054085Y007525
X052215
X051530Y006841
X051280Y005906
X051530Y004970
X052215Y004286
X053150Y004035
X054085Y004286
X041093
X040157Y004035
X039222Y004286
X038538Y004970
X038287Y005906
X038538Y006841
X039222Y007525
X041093
X041777Y006841
X042028Y005906
X041777Y004970
X032722
X032972Y005906
X032722Y006841
X032037Y007525
X030167
Y004286
X031102Y004035
X032037Y004286
X029483Y004970
X029232Y005906
X029483Y006841
X019730
X019730
X019980Y005906
X019980
X019730Y004970
X019045Y004286
X018110Y004035
X017175Y004286
X016491Y004970
X016240Y005906
X016491Y006841
Y006841
X017175Y007525
X019045
X010675Y006841
X010925Y005906
X010675Y004970
X009990Y004286
X009055Y004035
X008120Y004286
X007436Y004970
X007185Y005906
X007436Y006841
X008120Y007525
X009990
T08
X068504Y002756
X002756
X068504Y032677
X002756
T09
X012992Y015748
X058268
Y031496
X012992
T10
X034406Y029746
T11
X062205Y005906
X053150
X040157
X031102
X018110
X009055
M30
