G04*
G04 #@! TF.GenerationSoftware,Altium Limited,Altium Designer,18.0.9 (584)*
G04*
G04 Layer_Color=32896*
%FSLAX25Y25*%
%MOIN*%
G70*
G01*
G75*
%ADD10C,0.00984*%
%ADD12C,0.01000*%
%ADD13C,0.00787*%
%ADD71C,0.03937*%
D10*
X277067Y160039D02*
G03*
X277067Y160039I-492J0D01*
G01*
X277067Y295670D02*
G03*
X277067Y295670I-492J0D01*
G01*
X277067Y227953D02*
G03*
X277067Y227953I-492J0D01*
G01*
X405315Y292126D02*
G03*
X405315Y292126I-492J0D01*
G01*
X615354Y99410D02*
G03*
X615354Y99410I-492J0D01*
G01*
X524803D02*
G03*
X524803Y99410I-492J0D01*
G01*
X394882D02*
G03*
X394882Y99410I-492J0D01*
G01*
X304331D02*
G03*
X304331Y99410I-492J0D01*
G01*
X174409D02*
G03*
X174409Y99410I-492J0D01*
G01*
X83858D02*
G03*
X83858Y99410I-492J0D01*
G01*
X636494Y97596D02*
G03*
X636494Y97596I-492J0D01*
G01*
X545943D02*
G03*
X545943Y97596I-492J0D01*
G01*
X416022D02*
G03*
X416022Y97596I-492J0D01*
G01*
X325470D02*
G03*
X325470Y97596I-492J0D01*
G01*
X195549D02*
G03*
X195549Y97596I-492J0D01*
G01*
X104998D02*
G03*
X104998Y97596I-492J0D01*
G01*
X653895Y85455D02*
G03*
X653895Y85455I-492J0D01*
G01*
X563343D02*
G03*
X563343Y85455I-492J0D01*
G01*
X433422D02*
G03*
X433422Y85455I-492J0D01*
G01*
X342871D02*
G03*
X342871Y85455I-492J0D01*
G01*
X212950D02*
G03*
X212950Y85455I-492J0D01*
G01*
X122399D02*
G03*
X122399Y85455I-492J0D01*
G01*
X662894Y66240D02*
G03*
X662894Y66240I-492J0D01*
G01*
X572342D02*
G03*
X572342Y66240I-492J0D01*
G01*
X442421D02*
G03*
X442421Y66240I-492J0D01*
G01*
X351870D02*
G03*
X351870Y66240I-492J0D01*
G01*
X221949D02*
G03*
X221949Y66240I-492J0D01*
G01*
X131398D02*
G03*
X131398Y66240I-492J0D01*
G01*
X661080Y45100D02*
G03*
X661080Y45100I-492J0D01*
G01*
X570529D02*
G03*
X570529Y45100I-492J0D01*
G01*
X440607D02*
G03*
X440607Y45100I-492J0D01*
G01*
X350056D02*
G03*
X350056Y45100I-492J0D01*
G01*
X220135D02*
G03*
X220135Y45100I-492J0D01*
G01*
X129584D02*
G03*
X129584Y45100I-492J0D01*
G01*
X648939Y27700D02*
G03*
X648939Y27700I-492J0D01*
G01*
X558388D02*
G03*
X558388Y27700I-492J0D01*
G01*
X428467D02*
G03*
X428467Y27700I-492J0D01*
G01*
X337915D02*
G03*
X337915Y27700I-492J0D01*
G01*
X207994D02*
G03*
X207994Y27700I-492J0D01*
G01*
X117443D02*
G03*
X117443Y27700I-492J0D01*
G01*
X629724Y18701D02*
G03*
X629724Y18701I-492J0D01*
G01*
X539173D02*
G03*
X539173Y18701I-492J0D01*
G01*
X409252D02*
G03*
X409252Y18701I-492J0D01*
G01*
X318701D02*
G03*
X318701Y18701I-492J0D01*
G01*
X188779D02*
G03*
X188779Y18701I-492J0D01*
G01*
X98228D02*
G03*
X98228Y18701I-492J0D01*
G01*
X608585Y20515D02*
G03*
X608585Y20515I-492J0D01*
G01*
X518033D02*
G03*
X518033Y20515I-492J0D01*
G01*
X388112D02*
G03*
X388112Y20515I-492J0D01*
G01*
X297561D02*
G03*
X297561Y20515I-492J0D01*
G01*
X167640D02*
G03*
X167640Y20515I-492J0D01*
G01*
X77089D02*
G03*
X77089Y20515I-492J0D01*
G01*
X591184Y32656D02*
G03*
X591184Y32656I-492J0D01*
G01*
X500633D02*
G03*
X500633Y32656I-492J0D01*
G01*
X370712D02*
G03*
X370712Y32656I-492J0D01*
G01*
X280160D02*
G03*
X280160Y32656I-492J0D01*
G01*
X150239D02*
G03*
X150239Y32656I-492J0D01*
G01*
X59688D02*
G03*
X59688Y32656I-492J0D01*
G01*
X582185Y51870D02*
G03*
X582185Y51870I-492J0D01*
G01*
X491634Y51870D02*
G03*
X491634Y51870I-492J0D01*
G01*
X361713D02*
G03*
X361713Y51870I-492J0D01*
G01*
X271161Y51870D02*
G03*
X271161Y51870I-492J0D01*
G01*
X141240D02*
G03*
X141240Y51870I-492J0D01*
G01*
X50689D02*
G03*
X50689Y51870I-492J0D01*
G01*
X583933Y72764D02*
G03*
X583933Y72764I-426J246D01*
G01*
X493382D02*
G03*
X493382Y72764I-426J246D01*
G01*
X363461D02*
G03*
X363461Y72764I-426J246D01*
G01*
X272909D02*
G03*
X272909Y72764I-426J246D01*
G01*
X142988D02*
G03*
X142988Y72764I-426J246D01*
G01*
X52437D02*
G03*
X52437Y72764I-426J246D01*
G01*
X248937Y147047D02*
G03*
X248937Y147047I-492J0D01*
G01*
X386023Y264961D02*
G03*
X386023Y264961I-492J0D01*
G01*
X389567Y241732D02*
G03*
X389567Y241732I-492J0D01*
G01*
X419488Y264961D02*
G03*
X419488Y264961I-492J0D01*
G01*
X419488Y290551D02*
G03*
X419488Y290551I-492J0D01*
G01*
X248937Y282677D02*
G03*
X248937Y282677I-492J0D01*
G01*
X248937Y214961D02*
G03*
X248937Y214961I-492J0D01*
G01*
D12*
X707161Y216951D02*
Y240573D01*
X681571Y216951D02*
Y240573D01*
X690429Y241558D02*
X698303D01*
X690429Y215967D02*
X698303D01*
X707161Y152975D02*
Y176597D01*
X681571Y152975D02*
Y176597D01*
X690429Y177581D02*
X698303D01*
X690429Y151991D02*
X698303D01*
X26575Y192717D02*
X38386D01*
Y289173D01*
X26575D02*
X38386D01*
X984Y192717D02*
X12795D01*
X984D02*
Y289173D01*
X12795D01*
D13*
X250394Y165453D02*
X276772D01*
X250394Y177658D02*
X276772D01*
Y165453D02*
Y177658D01*
X250394Y165453D02*
Y177658D01*
X250394Y301083D02*
X276772D01*
X250394Y313288D02*
X276772D01*
Y301083D02*
Y313288D01*
X250394Y301083D02*
Y313288D01*
X250394Y233366D02*
X276772D01*
X250394Y245571D02*
X276772D01*
Y233366D02*
Y245571D01*
X250394Y233366D02*
Y245571D01*
X499016Y334646D02*
X666339D01*
Y137795D02*
Y334646D01*
X499016Y137795D02*
X666339D01*
X499016D02*
Y334646D01*
X46260D02*
X213583D01*
Y137795D02*
Y334646D01*
X46260Y137795D02*
X213583D01*
X46260D02*
Y334646D01*
X378740Y299902D02*
Y300394D01*
Y299902D02*
X404724D01*
Y300394D01*
X616142Y91732D02*
Y95669D01*
Y91732D02*
X619193D01*
X627953D02*
Y95669D01*
X624902Y91732D02*
X627953D01*
X525591D02*
Y95669D01*
Y91732D02*
X528642D01*
X537402D02*
Y95669D01*
X534350Y91732D02*
X537402D01*
X395669D02*
Y95669D01*
Y91732D02*
X398721D01*
X407480D02*
Y95669D01*
X404429Y91732D02*
X407480D01*
X305118D02*
Y95669D01*
Y91732D02*
X308169D01*
X316929D02*
Y95669D01*
X313878Y91732D02*
X316929D01*
X175197D02*
Y95669D01*
Y91732D02*
X178248D01*
X187008D02*
Y95669D01*
X183957Y91732D02*
X187008D01*
X84646D02*
Y95669D01*
Y91732D02*
X87697D01*
X96457D02*
Y95669D01*
X93405Y91732D02*
X96457D01*
X633272Y90307D02*
X635240Y93717D01*
X633272Y90307D02*
X635914Y88782D01*
X643500Y84402D02*
X645469Y87811D01*
X640858Y85927D02*
X643500Y84402D01*
X542720Y90307D02*
X544689Y93717D01*
X542720Y90307D02*
X545363Y88782D01*
X552949Y84402D02*
X554917Y87811D01*
X550307Y85927D02*
X552949Y84402D01*
X412799Y90307D02*
X414768Y93717D01*
X412799Y90307D02*
X415442Y88782D01*
X423028Y84402D02*
X424996Y87811D01*
X420385Y85927D02*
X423028Y84402D01*
X322248Y90307D02*
X324216Y93717D01*
X322248Y90307D02*
X324890Y88782D01*
X332476Y84402D02*
X334445Y87811D01*
X329834Y85927D02*
X332476Y84402D01*
X192327Y90307D02*
X194295Y93717D01*
X192327Y90307D02*
X194969Y88782D01*
X202555Y84402D02*
X204524Y87811D01*
X199913Y85927D02*
X202555Y84402D01*
X101776Y90307D02*
X103744Y93717D01*
X101776Y90307D02*
X104418Y88782D01*
X112004Y84402D02*
X113973Y87811D01*
X109362Y85927D02*
X112004Y84402D01*
X647394Y80508D02*
X650803Y82477D01*
X647394Y80508D02*
X648919Y77866D01*
X653299Y70279D02*
X656709Y72248D01*
X651774Y72922D02*
X653299Y70279D01*
X556843Y80508D02*
X560252Y82477D01*
X556843Y80508D02*
X558368Y77866D01*
X562748Y70279D02*
X566158Y72248D01*
X561223Y72922D02*
X562748Y70279D01*
X426921Y80508D02*
X430331Y82477D01*
X426921Y80508D02*
X428447Y77866D01*
X432827Y70279D02*
X436236Y72248D01*
X431301Y72922D02*
X432827Y70279D01*
X336370Y80508D02*
X339780Y82477D01*
X336370Y80508D02*
X337896Y77866D01*
X342276Y70279D02*
X345685Y72248D01*
X340750Y72922D02*
X342276Y70279D01*
X206449Y80508D02*
X209858Y82477D01*
X206449Y80508D02*
X207975Y77866D01*
X212354Y70279D02*
X215764Y72248D01*
X210829Y72922D02*
X212354Y70279D01*
X115898Y80508D02*
X119307Y82477D01*
X115898Y80508D02*
X117423Y77866D01*
X121803Y70279D02*
X125213Y72248D01*
X120278Y72922D02*
X121803Y70279D01*
X654724Y64961D02*
X658661D01*
X654724Y61910D02*
Y64961D01*
Y53150D02*
X658661D01*
X654724D02*
Y56201D01*
X564173Y64961D02*
X568110D01*
X564173Y61910D02*
Y64961D01*
Y53150D02*
X568110D01*
X564173D02*
Y56201D01*
X434252Y64961D02*
X438189D01*
X434252Y61910D02*
Y64961D01*
Y53150D02*
X438189D01*
X434252D02*
Y56201D01*
X343701Y64961D02*
X347638D01*
X343701Y61910D02*
Y64961D01*
Y53150D02*
X347638D01*
X343701D02*
Y56201D01*
X213779Y64961D02*
X217717D01*
X213779Y61910D02*
Y64961D01*
Y53150D02*
X217717D01*
X213779D02*
Y56201D01*
X123228Y64961D02*
X127165D01*
X123228Y61910D02*
Y64961D01*
Y53150D02*
X127165D01*
X123228D02*
Y56201D01*
X653299Y47831D02*
X656709Y45862D01*
X651774Y45189D02*
X653299Y47831D01*
X647394Y37602D02*
X650803Y35634D01*
X647394Y37602D02*
X648919Y40245D01*
X562748Y47831D02*
X566158Y45862D01*
X561223Y45189D02*
X562748Y47831D01*
X556843Y37602D02*
X560252Y35634D01*
X556843Y37602D02*
X558368Y40245D01*
X432827Y47831D02*
X436236Y45862D01*
X431301Y45189D02*
X432827Y47831D01*
X426921Y37602D02*
X430331Y35634D01*
X426921Y37602D02*
X428447Y40245D01*
X342276Y47831D02*
X345685Y45862D01*
X340750Y45189D02*
X342276Y47831D01*
X336370Y37602D02*
X339780Y35634D01*
X336370Y37602D02*
X337896Y40245D01*
X212354Y47831D02*
X215764Y45862D01*
X210829Y45189D02*
X212354Y47831D01*
X206449Y37602D02*
X209858Y35634D01*
X206449Y37602D02*
X207975Y40245D01*
X121803Y47831D02*
X125213Y45862D01*
X120278Y45189D02*
X121803Y47831D01*
X115898Y37602D02*
X119307Y35634D01*
X115898Y37602D02*
X117423Y40245D01*
X643500Y33709D02*
X645469Y30299D01*
X640858Y32183D02*
X643500Y33709D01*
X633272Y27803D02*
X635240Y24394D01*
X633272Y27803D02*
X635914Y29329D01*
X552949Y33709D02*
X554917Y30299D01*
X550307Y32183D02*
X552949Y33709D01*
X542720Y27803D02*
X544689Y24394D01*
X542720Y27803D02*
X545363Y29329D01*
X423028Y33709D02*
X424996Y30299D01*
X420385Y32183D02*
X423028Y33709D01*
X412799Y27803D02*
X414768Y24394D01*
X412799Y27803D02*
X415442Y29329D01*
X332476Y33709D02*
X334445Y30299D01*
X329834Y32183D02*
X332476Y33709D01*
X322248Y27803D02*
X324216Y24394D01*
X322248Y27803D02*
X324890Y29329D01*
X202555Y33709D02*
X204524Y30299D01*
X199913Y32183D02*
X202555Y33709D01*
X192327Y27803D02*
X194295Y24394D01*
X192327Y27803D02*
X194969Y29329D01*
X112004Y33709D02*
X113973Y30299D01*
X109362Y32183D02*
X112004Y33709D01*
X101776Y27803D02*
X103744Y24394D01*
X101776Y27803D02*
X104418Y29329D01*
X627953Y22441D02*
Y26378D01*
X624902D02*
X627953D01*
X616142Y22441D02*
Y26378D01*
X619193D01*
X537402Y22441D02*
Y26378D01*
X534350D02*
X537402D01*
X525591Y22441D02*
Y26378D01*
X528642D01*
X407480Y22441D02*
Y26378D01*
X404429D02*
X407480D01*
X395669Y22441D02*
Y26378D01*
X398721D01*
X316929Y22441D02*
Y26378D01*
X313878D02*
X316929D01*
X305118Y22441D02*
Y26378D01*
X308169D01*
X187008Y22441D02*
Y26378D01*
X183957D02*
X187008D01*
X175197Y22441D02*
Y26378D01*
X178248D01*
X96457Y22441D02*
Y26378D01*
X93405D02*
X96457D01*
X84646Y22441D02*
Y26378D01*
X87697D01*
X608854Y24394D02*
X610823Y27803D01*
X608181Y29329D02*
X610823Y27803D01*
X598626Y30299D02*
X600594Y33709D01*
X603237Y32183D01*
X518303Y24394D02*
X520272Y27803D01*
X517629Y29329D02*
X520272Y27803D01*
X508075Y30299D02*
X510043Y33709D01*
X512685Y32183D01*
X388382Y24394D02*
X390351Y27803D01*
X387708Y29329D02*
X390351Y27803D01*
X378153Y30299D02*
X380122Y33709D01*
X382764Y32183D01*
X297831Y24394D02*
X299799Y27803D01*
X297157Y29329D02*
X299799Y27803D01*
X287602Y30299D02*
X289571Y33709D01*
X292213Y32183D01*
X167910Y24394D02*
X169878Y27803D01*
X167236Y29329D02*
X169878Y27803D01*
X157681Y30299D02*
X159649Y33709D01*
X162292Y32183D01*
X77358Y24394D02*
X79327Y27803D01*
X76684Y29329D02*
X79327Y27803D01*
X67130Y30299D02*
X69098Y33709D01*
X71741Y32183D01*
X593291Y35634D02*
X596701Y37602D01*
X595175Y40245D02*
X596701Y37602D01*
X587386Y45862D02*
X590795Y47831D01*
X592321Y45189D01*
X502740Y35634D02*
X506149Y37602D01*
X504624Y40245D02*
X506149Y37602D01*
X496835Y45862D02*
X500244Y47831D01*
X501770Y45189D01*
X372819Y35634D02*
X376228Y37602D01*
X374703Y40245D02*
X376228Y37602D01*
X366913Y45862D02*
X370323Y47831D01*
X371848Y45189D01*
X282268Y35634D02*
X285677Y37602D01*
X284152Y40245D02*
X285677Y37602D01*
X276362Y45862D02*
X279772Y47831D01*
X281297Y45189D01*
X152346Y35634D02*
X155756Y37602D01*
X154230Y40245D02*
X155756Y37602D01*
X146441Y45862D02*
X149850Y47831D01*
X151376Y45189D01*
X61795Y35634D02*
X65205Y37602D01*
X63679Y40245D02*
X65205Y37602D01*
X55890Y45862D02*
X59299Y47831D01*
X60825Y45189D01*
X585433Y53150D02*
X589370D01*
Y56201D01*
X585433Y64961D02*
X589370D01*
Y61910D02*
Y64961D01*
X494882Y53150D02*
X498819D01*
Y56201D01*
X494882Y64961D02*
X498819D01*
Y61909D02*
Y64961D01*
X364961Y53150D02*
X368898D01*
Y56201D01*
X364961Y64961D02*
X368898D01*
Y61909D02*
Y64961D01*
X274409Y53150D02*
X278346D01*
Y56201D01*
X274409Y64961D02*
X278346D01*
Y61910D02*
Y64961D01*
X144488Y53150D02*
X148425D01*
Y56201D01*
X144488Y64961D02*
X148425D01*
Y61910D02*
Y64961D01*
X53937Y53150D02*
X57874D01*
Y56201D01*
X53937Y64961D02*
X57874D01*
Y61910D02*
Y64961D01*
X587386Y72248D02*
X590795Y70279D01*
X592321Y72922D01*
X593291Y82477D02*
X596701Y80508D01*
X595175Y77866D02*
X596701Y80508D01*
X496835Y72248D02*
X500244Y70279D01*
X501770Y72922D01*
X502740Y82477D02*
X506149Y80508D01*
X504624Y77866D02*
X506149Y80508D01*
X366913Y72248D02*
X370323Y70279D01*
X371848Y72922D01*
X372819Y82477D02*
X376228Y80508D01*
X374703Y77866D02*
X376228Y80508D01*
X276362Y72248D02*
X279772Y70279D01*
X281297Y72922D01*
X282268Y82477D02*
X285677Y80508D01*
X284152Y77866D02*
X285677Y80508D01*
X146441Y72248D02*
X149850Y70279D01*
X151376Y72922D01*
X152346Y82477D02*
X155756Y80508D01*
X154230Y77866D02*
X155756Y80508D01*
X55890Y72248D02*
X59299Y70279D01*
X60825Y72922D01*
X61795Y82477D02*
X65205Y80508D01*
X63679Y77866D02*
X65205Y80508D01*
X2795Y137599D02*
X42795D01*
X2795Y169489D02*
X42795D01*
X2795Y137599D02*
Y169489D01*
X42795Y137599D02*
Y169489D01*
X2796Y134054D02*
X42795D01*
X2796Y102165D02*
X42796D01*
Y134055D01*
X2796Y102165D02*
Y134054D01*
X248721Y157283D02*
Y182382D01*
X247736Y157283D02*
X248721D01*
X247736Y182382D02*
X248721D01*
X221949Y157283D02*
Y182382D01*
Y157283D02*
X222933D01*
X221949Y182382D02*
X222933D01*
X386811Y244291D02*
Y262402D01*
X371063Y244291D02*
Y262402D01*
X384941Y244291D02*
X386811D01*
X384941Y262402D02*
X386811D01*
X371063Y244291D02*
X372933D01*
X371063Y262402D02*
X372933D01*
X387795Y244291D02*
Y262402D01*
X403543Y244291D02*
Y262402D01*
X387795D02*
X389665D01*
X387795Y244291D02*
X389665D01*
X401673Y262402D02*
X403543D01*
X401673Y244291D02*
X403543D01*
X420275Y244291D02*
Y262402D01*
X404528Y244291D02*
Y262402D01*
X418405Y244291D02*
X420275D01*
X418405Y262402D02*
X420275D01*
X404528Y244291D02*
X406398D01*
X404528Y262402D02*
X406398D01*
X420276Y269882D02*
Y287992D01*
X404528Y269882D02*
Y287992D01*
X418406Y269882D02*
X420276D01*
X418406Y287992D02*
X420276D01*
X404528Y269882D02*
X406398D01*
X404528Y287992D02*
X406398D01*
X248721Y292913D02*
Y318012D01*
X247736Y292913D02*
X248721D01*
X247736Y318012D02*
X248721D01*
X221949Y292913D02*
Y318012D01*
Y292913D02*
X222933D01*
X221949Y318012D02*
X222933D01*
X248720Y225197D02*
Y250295D01*
X247736Y225197D02*
X248720D01*
X247736Y250295D02*
X248720D01*
X221949Y225197D02*
Y250295D01*
Y225197D02*
X222933D01*
X221949Y250295D02*
X222933D01*
X463583Y151181D02*
X476279D01*
X490551Y165453D01*
X422835D02*
X437106Y151181D01*
X449803D01*
X490551Y165453D02*
Y218898D01*
X463583D02*
X490551D01*
X422835D02*
X449803D01*
X422835Y165453D02*
Y218898D01*
X437106Y321260D02*
X449803D01*
X422835Y306988D02*
X437106Y321260D01*
X476279D02*
X490551Y306988D01*
X463583Y321260D02*
X476279D01*
X422835Y253543D02*
Y306988D01*
Y253543D02*
X449803D01*
X463583D02*
X490551D01*
Y306988D01*
D71*
X4921Y85630D02*
X24600D01*
X4921Y98749D01*
X24600D01*
X4921Y173228D02*
X24600D01*
Y183068D01*
X21320Y186347D01*
X14761D01*
X11481Y183068D01*
Y173228D01*
M02*
