G04*
G04 #@! TF.GenerationSoftware,Altium Limited,Altium Designer,18.0.9 (584)*
G04*
G04 Layer_Color=128*
%FSLAX25Y25*%
%MOIN*%
G70*
G01*
G75*
%ADD122C,0.00200*%
D122*
X610236Y59055D02*
X633858D01*
X622047Y47244D02*
Y70866D01*
X519685Y59055D02*
X543307D01*
X531496Y47244D02*
Y70866D01*
X389764Y59055D02*
X413386D01*
X401575Y47244D02*
Y70866D01*
X299213Y59055D02*
X322835D01*
X311024Y47244D02*
Y70866D01*
X169291Y59055D02*
X192913D01*
X181102Y47244D02*
Y70866D01*
X78740Y59055D02*
X102362D01*
X90551Y47244D02*
Y70866D01*
X338150Y297461D02*
X349961D01*
X344055Y291555D02*
Y303366D01*
X355549Y177165D02*
X357049D01*
X356299Y176415D02*
Y177915D01*
X577756Y157480D02*
X587598D01*
X582677Y152559D02*
Y162402D01*
X577756Y314961D02*
X587598D01*
X582677Y310039D02*
Y319882D01*
X526181Y187008D02*
X530905D01*
X528543Y184646D02*
Y189370D01*
X526181Y285433D02*
X530905D01*
X528543Y283071D02*
Y287795D01*
X634449Y187008D02*
X639173D01*
X636811Y184646D02*
Y189370D01*
X634449Y206693D02*
X639173D01*
X636811Y204331D02*
Y209055D01*
X634449Y265748D02*
X639173D01*
X636811Y263386D02*
Y268110D01*
X634449Y285433D02*
X639173D01*
X636811Y283071D02*
Y287795D01*
X125000Y157480D02*
X134843D01*
X129921Y152559D02*
Y162402D01*
X125000Y314961D02*
X134843D01*
X129921Y310039D02*
Y319882D01*
X73425Y187008D02*
X78150D01*
X75787Y184646D02*
Y189370D01*
X73425Y285433D02*
X78150D01*
X75787Y283071D02*
Y287795D01*
X181693Y187008D02*
X186417D01*
X184055Y184646D02*
Y189370D01*
X181693Y206693D02*
X186417D01*
X184055Y204331D02*
Y209055D01*
X181693Y265748D02*
X186417D01*
X184055Y263386D02*
Y268110D01*
X181693Y285433D02*
X186417D01*
X184055Y283071D02*
Y287795D01*
X608937Y75251D02*
X616457D01*
X612697Y71491D02*
Y79010D01*
X518386Y75251D02*
X525906D01*
X522146Y71491D02*
Y79010D01*
X388465Y75251D02*
X395984D01*
X392224Y71491D02*
Y79010D01*
X297913Y75251D02*
X305433D01*
X301673Y71491D02*
Y79010D01*
X167992Y75251D02*
X175512D01*
X171752Y71491D02*
Y79010D01*
X77441Y75251D02*
X84961D01*
X81201Y71491D02*
Y79010D01*
X627638Y42860D02*
X635157D01*
X631398Y39100D02*
Y46620D01*
X537087Y42860D02*
X544606D01*
X540846Y39100D02*
Y46620D01*
X407165Y42860D02*
X414685D01*
X410925Y39100D02*
Y46620D01*
X316614Y42860D02*
X324134D01*
X320374Y39100D02*
Y46620D01*
X186693Y42860D02*
X194213D01*
X190453Y39100D02*
Y46620D01*
X96142Y42860D02*
X103661D01*
X99902Y39100D02*
Y46620D01*
X618287Y40354D02*
X625807D01*
X622047Y36595D02*
Y44114D01*
X527736Y40354D02*
X535256D01*
X531496Y36595D02*
Y44114D01*
X397815Y40354D02*
X405335D01*
X401575Y36595D02*
Y44114D01*
X307264Y40354D02*
X314784D01*
X311024Y36595D02*
Y44114D01*
X177342Y40354D02*
X184862D01*
X181102Y36595D02*
Y44114D01*
X86791Y40354D02*
X94311D01*
X90551Y36595D02*
Y44114D01*
X634483Y49705D02*
X642002D01*
X638243Y45945D02*
Y53465D01*
X543932Y49705D02*
X551451D01*
X547691Y45945D02*
Y53465D01*
X414010Y49705D02*
X421530D01*
X417770Y45945D02*
Y53465D01*
X323459Y49705D02*
X330979D01*
X327219Y45945D02*
Y53465D01*
X193538Y49705D02*
X201058D01*
X197298Y45945D02*
Y53465D01*
X102987Y49705D02*
X110506D01*
X106747Y45945D02*
Y53465D01*
X636988Y59055D02*
X644508D01*
X640748Y55295D02*
Y62815D01*
X546437Y59055D02*
X553957D01*
X550197Y55295D02*
Y62815D01*
X416516Y59055D02*
X424035D01*
X420276Y55295D02*
Y62815D01*
X325965Y59055D02*
X333484D01*
X329724Y55295D02*
Y62815D01*
X196043Y59055D02*
X203563D01*
X199803Y55295D02*
Y62815D01*
X105492Y59055D02*
X113012D01*
X109252Y55295D02*
Y62815D01*
X634483Y68405D02*
X642002D01*
X638243Y64646D02*
Y72165D01*
X543932Y68405D02*
X551451D01*
X547691Y64646D02*
Y72165D01*
X414010Y68405D02*
X421530D01*
X417770Y64646D02*
Y72165D01*
X323459Y68405D02*
X330979D01*
X327219Y64646D02*
Y72165D01*
X193538Y68405D02*
X201058D01*
X197298Y64646D02*
Y72165D01*
X102987Y68405D02*
X110506D01*
X106747Y64646D02*
Y72165D01*
X627638Y75251D02*
X635157D01*
X631398Y71491D02*
Y79010D01*
X537087Y75251D02*
X544606D01*
X540846Y71491D02*
Y79010D01*
X407165Y75251D02*
X414685D01*
X410925Y71491D02*
Y79010D01*
X316614Y75251D02*
X324134D01*
X320374Y71491D02*
Y79010D01*
X186693Y75251D02*
X194213D01*
X190453Y71491D02*
Y79010D01*
X96142Y75251D02*
X103661D01*
X99902Y71491D02*
Y79010D01*
X608937Y42860D02*
X616457D01*
X612697Y39100D02*
Y46620D01*
X518386Y42860D02*
X525906D01*
X522146Y39100D02*
Y46620D01*
X388465Y42860D02*
X395984D01*
X392224Y39100D02*
Y46620D01*
X297913Y42860D02*
X305433D01*
X301673Y39100D02*
Y46620D01*
X167992Y42860D02*
X175512D01*
X171752Y39100D02*
Y46620D01*
X77441Y42860D02*
X84961D01*
X81201Y39100D02*
Y46620D01*
X602092Y49705D02*
X609612D01*
X605852Y45945D02*
Y53465D01*
X511541Y49705D02*
X519061D01*
X515301Y45945D02*
Y53465D01*
X381620Y49705D02*
X389139D01*
X385379Y45945D02*
Y53465D01*
X291068Y49705D02*
X298588D01*
X294828Y45945D02*
Y53465D01*
X161147Y49705D02*
X168667D01*
X164907Y45945D02*
Y53465D01*
X70596Y49705D02*
X78116D01*
X74356Y45945D02*
Y53465D01*
X599587Y59055D02*
X607106D01*
X603346Y55295D02*
Y62815D01*
X509035Y59055D02*
X516555D01*
X512795Y55295D02*
Y62815D01*
X379114Y59055D02*
X386634D01*
X382874Y55295D02*
Y62815D01*
X288563Y59055D02*
X296083D01*
X292323Y55295D02*
Y62815D01*
X158642Y59055D02*
X166161D01*
X162402Y55295D02*
Y62815D01*
X68090Y59055D02*
X75610D01*
X71850Y55295D02*
Y62815D01*
X602092Y68405D02*
X609612D01*
X605852Y64646D02*
Y72165D01*
X511541Y68405D02*
X519061D01*
X515301Y64646D02*
Y72165D01*
X381620Y68405D02*
X389139D01*
X385379Y64646D02*
Y72165D01*
X291068Y68405D02*
X298588D01*
X294828Y64646D02*
Y72165D01*
X161147Y68405D02*
X168667D01*
X164907Y64646D02*
Y72165D01*
X70596Y68405D02*
X78116D01*
X74356Y64646D02*
Y72165D01*
X30236Y153543D02*
X35354D01*
X32795Y150984D02*
Y156102D01*
X10236Y153543D02*
X15354D01*
X12795Y150984D02*
Y156102D01*
X10236Y118110D02*
X15354D01*
X12795Y115551D02*
Y120669D01*
X30236Y118110D02*
X35354D01*
X32795Y115551D02*
Y120669D01*
X16732Y285433D02*
X22638D01*
X19685Y282480D02*
Y288386D01*
X16732Y196457D02*
X22638D01*
X19685Y193504D02*
Y199409D01*
X627638Y75251D02*
X635157D01*
X631398Y71491D02*
Y79010D01*
X634483Y68405D02*
X642002D01*
X638243Y64646D02*
Y72165D01*
X636988Y59055D02*
X644508D01*
X640748Y55295D02*
Y62815D01*
X634483Y49705D02*
X642002D01*
X638243Y45945D02*
Y53465D01*
X627638Y42860D02*
X635157D01*
X631398Y39100D02*
Y46620D01*
X618287Y40354D02*
X625807D01*
X622047Y36595D02*
Y44114D01*
X608937Y42860D02*
X616457D01*
X612697Y39100D02*
Y46620D01*
X602092Y49705D02*
X609612D01*
X605852Y45945D02*
Y53465D01*
X599587Y59055D02*
X607106D01*
X603346Y55295D02*
Y62815D01*
X602092Y68405D02*
X609612D01*
X605852Y64646D02*
Y72165D01*
X608937Y75251D02*
X616457D01*
X612697Y71491D02*
Y79010D01*
X537087Y75251D02*
X544606D01*
X540846Y71491D02*
Y79010D01*
X543932Y68405D02*
X551451D01*
X547691Y64646D02*
Y72165D01*
X546437Y59055D02*
X553957D01*
X550197Y55295D02*
Y62815D01*
X543932Y49705D02*
X551451D01*
X547691Y45945D02*
Y53465D01*
X537087Y42860D02*
X544606D01*
X540846Y39100D02*
Y46620D01*
X527736Y40354D02*
X535256D01*
X531496Y36595D02*
Y44114D01*
X518386Y42860D02*
X525906D01*
X522146Y39100D02*
Y46620D01*
X511541Y49705D02*
X519061D01*
X515301Y45945D02*
Y53465D01*
X509035Y59055D02*
X516555D01*
X512795Y55295D02*
Y62815D01*
X511541Y68405D02*
X519061D01*
X515301Y64646D02*
Y72165D01*
X518386Y75251D02*
X525906D01*
X522146Y71491D02*
Y79010D01*
X407165Y75251D02*
X414685D01*
X410925Y71491D02*
Y79010D01*
X414010Y68405D02*
X421530D01*
X417770Y64646D02*
Y72165D01*
X416516Y59055D02*
X424035D01*
X420276Y55295D02*
Y62815D01*
X414010Y49705D02*
X421530D01*
X417770Y45945D02*
Y53465D01*
X407165Y42860D02*
X414685D01*
X410925Y39100D02*
Y46620D01*
X397815Y40354D02*
X405335D01*
X401575Y36595D02*
Y44114D01*
X388465Y42860D02*
X395984D01*
X392224Y39100D02*
Y46620D01*
X381620Y49705D02*
X389139D01*
X385379Y45945D02*
Y53465D01*
X379114Y59055D02*
X386634D01*
X382874Y55295D02*
Y62815D01*
X381620Y68405D02*
X389139D01*
X385379Y64646D02*
Y72165D01*
X388465Y75251D02*
X395984D01*
X392224Y71491D02*
Y79010D01*
X316614Y75251D02*
X324134D01*
X320374Y71491D02*
Y79010D01*
X323459Y68405D02*
X330979D01*
X327219Y64646D02*
Y72165D01*
X325965Y59055D02*
X333484D01*
X329724Y55295D02*
Y62815D01*
X323459Y49705D02*
X330979D01*
X327219Y45945D02*
Y53465D01*
X316614Y42860D02*
X324134D01*
X320374Y39100D02*
Y46620D01*
X307264Y40354D02*
X314784D01*
X311024Y36595D02*
Y44114D01*
X297913Y42860D02*
X305433D01*
X301673Y39100D02*
Y46620D01*
X291068Y49705D02*
X298588D01*
X294828Y45945D02*
Y53465D01*
X288563Y59055D02*
X296083D01*
X292323Y55295D02*
Y62815D01*
X291068Y68405D02*
X298588D01*
X294828Y64646D02*
Y72165D01*
X297913Y75251D02*
X305433D01*
X301673Y71491D02*
Y79010D01*
X186693Y75251D02*
X194213D01*
X190453Y71491D02*
Y79010D01*
X193538Y68405D02*
X201058D01*
X197298Y64646D02*
Y72165D01*
X196043Y59055D02*
X203563D01*
X199803Y55295D02*
Y62815D01*
X193538Y49705D02*
X201058D01*
X197298Y45945D02*
Y53465D01*
X186693Y42860D02*
X194213D01*
X190453Y39100D02*
Y46620D01*
X177342Y40354D02*
X184862D01*
X181102Y36595D02*
Y44114D01*
X167992Y42860D02*
X175512D01*
X171752Y39100D02*
Y46620D01*
X161147Y49705D02*
X168667D01*
X164907Y45945D02*
Y53465D01*
X158642Y59055D02*
X166161D01*
X162402Y55295D02*
Y62815D01*
X161147Y68405D02*
X168667D01*
X164907Y64646D02*
Y72165D01*
X167992Y75251D02*
X175512D01*
X171752Y71491D02*
Y79010D01*
X96142Y75251D02*
X103661D01*
X99902Y71491D02*
Y79010D01*
X102987Y68405D02*
X110506D01*
X106747Y64646D02*
Y72165D01*
X105492Y59055D02*
X113012D01*
X109252Y55295D02*
Y62815D01*
X102987Y49705D02*
X110506D01*
X106747Y45945D02*
Y53465D01*
X96142Y42860D02*
X103661D01*
X99902Y39100D02*
Y46620D01*
X86791Y40354D02*
X94311D01*
X90551Y36595D02*
Y44114D01*
X77441Y42860D02*
X84961D01*
X81201Y39100D02*
Y46620D01*
X70596Y49705D02*
X78116D01*
X74356Y45945D02*
Y53465D01*
X68090Y59055D02*
X75610D01*
X71850Y55295D02*
Y62815D01*
X70596Y68405D02*
X78116D01*
X74356Y64646D02*
Y72165D01*
X77441Y75251D02*
X84961D01*
X81201Y71491D02*
Y79010D01*
X677165Y27559D02*
X692913D01*
X685039Y19685D02*
Y35433D01*
X677165Y326772D02*
X692913D01*
X685039Y318898D02*
Y334646D01*
X19685Y326772D02*
X35433D01*
X27559Y318898D02*
Y334646D01*
X19685Y27559D02*
X35433D01*
X27559Y19685D02*
Y35433D01*
X387205Y280512D02*
X390354D01*
X388779Y278937D02*
Y282087D01*
X436258Y191929D02*
X437758D01*
X437008Y191179D02*
Y192679D01*
X436258Y187008D02*
X437758D01*
X437008Y186258D02*
Y187758D01*
X432320Y145669D02*
X433820D01*
X433070Y144919D02*
Y146419D01*
X429368Y142717D02*
X430868D01*
X430118Y141966D02*
Y143466D01*
X429368Y148622D02*
X430868D01*
X430118Y147872D02*
Y149372D01*
X432321Y151575D02*
X433821D01*
X433071Y150825D02*
Y152325D01*
X402497Y156664D02*
X403997D01*
X403247Y155914D02*
Y157414D01*
X520462Y19854D02*
X521962D01*
X521212Y19104D02*
Y20604D01*
X399713Y153880D02*
X401213D01*
X400463Y153130D02*
Y154630D01*
X502239Y30248D02*
X503739D01*
X502989Y29498D02*
Y30998D01*
X396016Y165930D02*
X397516D01*
X396766Y165180D02*
Y166680D01*
X491655Y48361D02*
X493155D01*
X492405Y47611D02*
Y49111D01*
X391839Y192577D02*
X393339D01*
X392589Y191827D02*
Y193327D01*
X394623Y189793D02*
X396123D01*
X395373Y189043D02*
Y190543D01*
X389055Y195361D02*
X390555D01*
X389805Y194611D02*
Y196111D01*
X401105Y199058D02*
X402605D01*
X401856Y198308D02*
Y199808D01*
X402623Y203837D02*
X404122D01*
X403372Y203087D02*
Y204587D01*
X649804Y87862D02*
X651304D01*
X650554Y87112D02*
Y88612D01*
X491545Y69339D02*
X493045D01*
X492295Y68589D02*
Y70089D01*
X631581Y98256D02*
X633081D01*
X632331Y97506D02*
Y99006D01*
X436258Y196850D02*
X437758D01*
X437008Y196100D02*
Y197600D01*
X559253Y87862D02*
X560753D01*
X560003Y87112D02*
Y88612D01*
X455118Y236220D02*
X458268D01*
X456693Y234646D02*
Y237795D01*
X455118Y176181D02*
X458268D01*
X456693Y174606D02*
Y177756D01*
X396816Y231436D02*
X398316D01*
X397566Y230686D02*
Y232187D01*
X355549Y189414D02*
X357049D01*
X356299Y188664D02*
Y190164D01*
X358611Y186352D02*
X360111D01*
X359362Y185602D02*
Y187102D01*
X361674Y183290D02*
X363174D01*
X362424Y182540D02*
Y184040D01*
X364736Y180228D02*
X366236D01*
X365486Y179478D02*
Y180978D01*
X367798Y177165D02*
X369298D01*
X368548Y176415D02*
Y177915D01*
X352487Y186352D02*
X353987D01*
X353237Y185602D02*
Y187102D01*
X355549Y183290D02*
X357049D01*
X356299Y182540D02*
Y184040D01*
X358611Y180228D02*
X360111D01*
X359362Y179478D02*
Y180978D01*
X361674Y177165D02*
X363174D01*
X362424Y176415D02*
Y177915D01*
X364736Y174103D02*
X366236D01*
X365486Y173353D02*
Y174853D01*
X349425Y183290D02*
X350925D01*
X350175Y182540D02*
Y184040D01*
X352487Y180228D02*
X353987D01*
X353237Y179478D02*
Y180978D01*
X358611Y174103D02*
X360111D01*
X359362Y173353D02*
Y174853D01*
X361674Y171041D02*
X363174D01*
X362424Y170291D02*
Y171791D01*
X346362Y180228D02*
X347862D01*
X347112Y179478D02*
Y180978D01*
X349425Y177165D02*
X350925D01*
X350175Y176415D02*
Y177915D01*
X352487Y174103D02*
X353987D01*
X353237Y173353D02*
Y174853D01*
X355549Y171041D02*
X357049D01*
X356299Y170291D02*
Y171791D01*
X358611Y167979D02*
X360111D01*
X359362Y167228D02*
Y168728D01*
X343300Y177165D02*
X344800D01*
X344050Y176415D02*
Y177915D01*
X346362Y174103D02*
X347862D01*
X347112Y173353D02*
Y174853D01*
X349425Y171041D02*
X350925D01*
X350175Y170291D02*
Y171791D01*
X352487Y167979D02*
X353987D01*
X353237Y167228D02*
Y168728D01*
X355549Y164916D02*
X357049D01*
X356299Y164166D02*
Y165666D01*
X271073Y69339D02*
X272573D01*
X271823Y68589D02*
Y70089D01*
X365393Y135308D02*
X366893D01*
X366143Y134558D02*
Y136058D01*
X297466Y186531D02*
X298966D01*
X298216Y185781D02*
Y187281D01*
X306731Y180049D02*
X308231D01*
X307481Y179298D02*
Y180798D01*
X287109Y164815D02*
X288609D01*
X287859Y164065D02*
Y165565D01*
X312777Y152489D02*
X314277D01*
X313527Y151739D02*
Y153239D01*
X209159Y30548D02*
X210659D01*
X209909Y29798D02*
Y31298D01*
X141261Y48361D02*
X142761D01*
X142011Y47611D02*
Y49111D01*
X118608Y30548D02*
X120108D01*
X119358Y29798D02*
Y31298D01*
X333179Y147835D02*
X334679D01*
X333929Y147084D02*
Y148584D01*
X341552Y139461D02*
X343053D01*
X342302Y138710D02*
Y140210D01*
X335049Y224113D02*
X336548D01*
X335799Y223363D02*
Y224864D01*
X326218Y199536D02*
X327718D01*
X326968Y198786D02*
Y200286D01*
X331786Y205103D02*
X333286D01*
X332536Y204353D02*
Y205854D01*
X271063Y264764D02*
X274213D01*
X272638Y263189D02*
Y266339D01*
X271063Y137795D02*
X274212D01*
X272638Y136221D02*
Y139370D01*
X278937Y215158D02*
X282087D01*
X280512Y213583D02*
Y216732D01*
X364000Y220416D02*
X365500D01*
X364750Y219666D02*
Y221166D01*
X455118Y295276D02*
X458268D01*
X456693Y293701D02*
Y296850D01*
X337106Y255906D02*
X340256D01*
X338681Y254331D02*
Y257480D01*
X674091Y256890D02*
X677240D01*
X675665Y255315D02*
Y258465D01*
X674090Y192913D02*
X677240D01*
X675665Y191339D02*
Y194488D01*
X700665Y133291D02*
X703815D01*
X702240Y131717D02*
Y134866D01*
X700665Y197268D02*
X703815D01*
X702240Y195693D02*
Y198843D01*
X262008Y328740D02*
X265157D01*
X263583Y327165D02*
Y330315D01*
X223721Y330118D02*
X226870D01*
X225295Y328543D02*
Y331693D01*
X223721Y262402D02*
X226870D01*
X225295Y260827D02*
Y263976D01*
X223721Y194488D02*
X226870D01*
X225295Y192913D02*
Y196063D01*
X386220Y169291D02*
X389370D01*
X387795Y167717D02*
Y170866D01*
X323228Y185039D02*
X326378D01*
X324803Y183465D02*
Y186614D01*
X346850Y145669D02*
X350000D01*
X348425Y144095D02*
Y147244D01*
X362598Y208661D02*
X365748D01*
X364173Y207087D02*
Y210236D01*
X541440Y19964D02*
X542940D01*
X542190Y19214D02*
Y20714D01*
X559553Y30548D02*
X561053D01*
X560303Y29798D02*
Y31298D01*
X569947Y48771D02*
X571447D01*
X570697Y48021D02*
Y49521D01*
X569837Y69749D02*
X571337D01*
X570587Y68999D02*
Y70499D01*
X541030Y98256D02*
X542530D01*
X541780Y97506D02*
Y99006D01*
X520052Y98146D02*
X521552D01*
X520802Y97396D02*
Y98896D01*
X582096Y69339D02*
X583596D01*
X582846Y68589D02*
Y70089D01*
X582206Y48361D02*
X583706D01*
X582956Y47611D02*
Y49111D01*
X592790Y30248D02*
X594290D01*
X593540Y29498D02*
Y30998D01*
X611013Y19854D02*
X612513D01*
X611763Y19104D02*
Y20604D01*
X631991Y19964D02*
X633491D01*
X632741Y19214D02*
Y20714D01*
X650104Y30548D02*
X651604D01*
X650854Y29798D02*
Y31298D01*
X660498Y48771D02*
X661998D01*
X661248Y48021D02*
Y49521D01*
X660388Y69749D02*
X661888D01*
X661138Y68999D02*
Y70499D01*
X610603Y98146D02*
X612103D01*
X611353Y97396D02*
Y98896D01*
X271182Y48361D02*
X272682D01*
X271932Y47611D02*
Y49111D01*
X281767Y30248D02*
X283267D01*
X282517Y29498D02*
Y30998D01*
X299989Y19854D02*
X301489D01*
X300739Y19104D02*
Y20604D01*
X320968Y19964D02*
X322468D01*
X321718Y19214D02*
Y20714D01*
X339081Y30548D02*
X340581D01*
X339831Y29798D02*
Y31298D01*
X349475Y48771D02*
X350975D01*
X350225Y48021D02*
Y49521D01*
X349365Y69749D02*
X350865D01*
X350115Y68999D02*
Y70499D01*
X338781Y87862D02*
X340281D01*
X339531Y87112D02*
Y88612D01*
X299580Y98146D02*
X301080D01*
X300330Y97396D02*
Y98896D01*
X361624Y69339D02*
X363124D01*
X362374Y68589D02*
Y70089D01*
X361734Y48361D02*
X363234D01*
X362484Y47611D02*
Y49111D01*
X372318Y30248D02*
X373818D01*
X373068Y29498D02*
Y30998D01*
X390541Y19854D02*
X392041D01*
X391291Y19104D02*
Y20604D01*
X411519Y19964D02*
X413019D01*
X412269Y19214D02*
Y20714D01*
X429632Y30548D02*
X431132D01*
X430382Y29798D02*
Y31298D01*
X440026Y48771D02*
X441526D01*
X440776Y48021D02*
Y49521D01*
X439916Y69749D02*
X441416D01*
X440666Y68999D02*
Y70499D01*
X429332Y87862D02*
X430832D01*
X430082Y87112D02*
Y88612D01*
X411109Y98256D02*
X412609D01*
X411859Y97506D02*
Y99006D01*
X390131Y98146D02*
X391631D01*
X390881Y97396D02*
Y98896D01*
X141151Y69339D02*
X142651D01*
X141901Y68589D02*
Y70089D01*
X151846Y30248D02*
X153346D01*
X152596Y29498D02*
Y30998D01*
X170068Y19854D02*
X171568D01*
X170818Y19104D02*
Y20604D01*
X191047Y19964D02*
X192547D01*
X191797Y19214D02*
Y20714D01*
X219444Y69749D02*
X220944D01*
X220194Y68999D02*
Y70499D01*
X208859Y87862D02*
X210359D01*
X209609Y87112D02*
Y88612D01*
X190637Y98256D02*
X192137D01*
X191387Y97506D02*
Y99006D01*
X169658Y98146D02*
X171158D01*
X170408Y97396D02*
Y98896D01*
X596850Y222441D02*
X600000D01*
X598425Y220866D02*
Y224016D01*
X600787Y249016D02*
X603937D01*
X602362Y247441D02*
Y250591D01*
X332283Y310079D02*
X335433D01*
X333858Y308504D02*
Y311654D01*
X357677Y310079D02*
X360827D01*
X359252Y308504D02*
Y311654D01*
X100085Y98256D02*
X101585D01*
X100835Y97506D02*
Y99006D01*
X79107Y98146D02*
X80607D01*
X79857Y97396D02*
Y98896D01*
X50600Y69339D02*
X52100D01*
X51350Y68589D02*
Y70089D01*
X118308Y87862D02*
X119808D01*
X119058Y87112D02*
Y88612D01*
X128892Y69749D02*
X130392D01*
X129642Y68999D02*
Y70499D01*
X129002Y48771D02*
X130502D01*
X129752Y48021D02*
Y49521D01*
X100495Y19964D02*
X101995D01*
X101245Y19214D02*
Y20714D01*
X79517Y19854D02*
X81017D01*
X80267Y19104D02*
Y20604D01*
X50710Y48361D02*
X52210D01*
X51460Y47611D02*
Y49111D01*
X61294Y30248D02*
X62794D01*
X62044Y29498D02*
Y30998D01*
X332283Y300079D02*
X335433D01*
X333858Y298504D02*
Y301654D01*
X332283Y290079D02*
X335433D01*
X333858Y288504D02*
Y291654D01*
X332283Y280079D02*
X335433D01*
X333858Y278504D02*
Y281654D01*
X357677Y300079D02*
X360827D01*
X359252Y298504D02*
Y301654D01*
X357677Y290079D02*
X360827D01*
X359252Y288504D02*
Y291654D01*
X357677Y280079D02*
X360827D01*
X359252Y278504D02*
Y281654D01*
X295669Y272638D02*
X298819D01*
X297244Y271063D02*
Y274213D01*
X301575Y316929D02*
X304724D01*
X303150Y315354D02*
Y318504D01*
X370483Y229681D02*
X371983D01*
X371233Y228931D02*
Y230431D01*
X372352Y212064D02*
X373852D01*
X373102Y211314D02*
Y212814D01*
X377920Y206496D02*
X379420D01*
X378670Y205746D02*
Y207246D01*
X375136Y209280D02*
X376636D01*
X375886Y208530D02*
Y210030D01*
X386271Y198144D02*
X387771D01*
X387021Y197394D02*
Y198894D01*
X398322Y201842D02*
X399822D01*
X399072Y201092D02*
Y202592D01*
X400191Y184225D02*
X401691D01*
X400941Y183475D02*
Y184975D01*
X404367Y174282D02*
X405867D01*
X405117Y173532D02*
Y175032D01*
X390448Y160363D02*
X391948D01*
X391198Y159613D02*
Y161113D01*
X393232Y163147D02*
X394732D01*
X393982Y162397D02*
Y163897D01*
X384880Y154795D02*
X386380D01*
X385630Y154045D02*
Y155545D01*
X394145Y148312D02*
X395645D01*
X394895Y147562D02*
Y149062D01*
X387664Y157579D02*
X389164D01*
X388414Y156829D02*
Y158329D01*
X370961Y140876D02*
X372461D01*
X371711Y140126D02*
Y141626D01*
X330395Y150618D02*
X331895D01*
X331145Y149868D02*
Y151368D01*
X310908Y170106D02*
X312408D01*
X311658Y169355D02*
Y170855D01*
X354057Y227375D02*
X355557D01*
X354807Y226625D02*
Y228125D01*
X344792Y233857D02*
X346292D01*
X345542Y233107D02*
Y234607D01*
X342008Y231073D02*
X343508D01*
X342758Y230323D02*
Y231823D01*
X348489Y221807D02*
X349989D01*
X349239Y221057D02*
Y222557D01*
X328089Y217154D02*
X329589D01*
X328839Y216404D02*
Y217904D01*
X329002Y202320D02*
X330502D01*
X329752Y201570D02*
Y203069D01*
X317867Y191184D02*
X319367D01*
X318617Y190434D02*
Y191934D01*
X315083Y188400D02*
X316583D01*
X315833Y187650D02*
Y189150D01*
X491376Y141732D02*
X492876D01*
X492126Y140982D02*
Y142482D01*
X340945Y247047D02*
X344094D01*
X342520Y245472D02*
Y248622D01*
X416732Y136811D02*
X419882D01*
X418307Y135236D02*
Y138386D01*
X315535Y336614D02*
X317535D01*
X316535Y335614D02*
Y337614D01*
X320535Y336614D02*
X322535D01*
X321535Y335614D02*
Y337614D01*
X345535Y318543D02*
X347535D01*
X346535Y317543D02*
Y319543D01*
X335535Y269685D02*
X337535D01*
X336535Y268685D02*
Y270685D01*
X324689Y344488D02*
X326689D01*
X325689Y343488D02*
Y345488D01*
X410974Y195486D02*
X412474D01*
X411724Y194736D02*
Y196236D01*
X414454Y198968D02*
X415954D01*
X415204Y198218D02*
Y199718D01*
X394967Y218453D02*
X396467D01*
X395717Y217703D02*
Y219203D01*
X415847Y156757D02*
X417347D01*
X416597Y156007D02*
Y157507D01*
X404015Y151885D02*
X405515D01*
X404765Y151135D02*
Y152635D01*
X385519Y213775D02*
X387019D01*
X386269Y213025D02*
Y214525D01*
X262008Y205118D02*
X265158D01*
X263583Y203543D02*
Y206693D01*
X311386Y200450D02*
X312886D01*
X312136Y199700D02*
Y201200D01*
X302430Y156538D02*
X303930D01*
X303180Y155788D02*
Y157288D01*
X323346Y169409D02*
X326495D01*
X324920Y167834D02*
Y170983D01*
X346968Y208544D02*
X350117D01*
X348542Y206969D02*
Y210119D01*
X386103Y184922D02*
X389253D01*
X387678Y183347D02*
Y186497D01*
X362481Y145787D02*
X365631D01*
X364056Y144212D02*
Y147361D01*
X262008Y193110D02*
X265157D01*
X263583Y191535D02*
Y194685D01*
X290589Y168307D02*
X292089D01*
X291339Y167557D02*
Y169057D01*
X297246Y201146D02*
X298746D01*
X297996Y200396D02*
Y201896D01*
X324872Y231205D02*
X326372D01*
X325622Y230455D02*
Y231955D01*
X373265Y119094D02*
X374765D01*
X374015Y118344D02*
Y119844D01*
X475787Y106689D02*
X478937D01*
X477362Y105114D02*
Y108264D01*
X373745Y143659D02*
X375244D01*
X374495Y142909D02*
Y144409D01*
X368177Y138092D02*
X369677D01*
X368927Y137342D02*
Y138842D01*
X374658Y128825D02*
X376158D01*
X375408Y128075D02*
Y129575D01*
X320558Y98256D02*
X322058D01*
X321308Y97506D02*
Y99006D01*
X333053Y125916D02*
X334553D01*
X333803Y125165D02*
Y126665D01*
X329573Y122436D02*
X331073D01*
X330323Y121686D02*
Y123186D01*
X319132Y134843D02*
X320632D01*
X319882Y134092D02*
Y135592D01*
X391487Y214973D02*
X392987D01*
X392237Y214223D02*
Y215723D01*
X383009Y137177D02*
X384509D01*
X383759Y136427D02*
Y137927D01*
X386616Y127526D02*
X388116D01*
X387366Y126776D02*
Y128276D01*
X383136Y131006D02*
X384636D01*
X383886Y130256D02*
Y131756D01*
X377442Y131609D02*
X378942D01*
X378192Y130859D02*
Y132359D01*
X380226Y134393D02*
X381726D01*
X380976Y133643D02*
Y135143D01*
X404920Y125984D02*
X408070D01*
X406495Y124409D02*
Y127559D01*
X410667Y118110D02*
X412167D01*
X411417Y117360D02*
Y118860D01*
X404762Y118110D02*
X406262D01*
X405512Y117360D02*
Y118860D01*
X407715Y115157D02*
X409215D01*
X408465Y114408D02*
Y115908D01*
X413620Y115157D02*
X415120D01*
X414370Y114408D02*
Y115908D01*
X374250Y94488D02*
X375750D01*
X375000Y93738D02*
Y95238D01*
X380155Y94488D02*
X381656D01*
X380906Y93738D02*
Y95238D01*
X472478Y141732D02*
X473978D01*
X473228Y140982D02*
Y142482D01*
X412367Y160237D02*
X413867D01*
X413117Y159487D02*
Y160987D01*
X413620Y172244D02*
X415120D01*
X414370Y171494D02*
Y172994D01*
X413620Y181102D02*
X415120D01*
X414370Y180352D02*
Y181852D01*
X436258Y170276D02*
X437758D01*
X437008Y169526D02*
Y171026D01*
X378046Y228415D02*
X379546D01*
X378796Y227665D02*
Y229165D01*
X381618Y218545D02*
X383118D01*
X382368Y217795D02*
Y219295D01*
X436258Y201772D02*
X437758D01*
X437008Y201022D02*
Y202522D01*
X436258Y227362D02*
X437758D01*
X437008Y226612D02*
Y228112D01*
X436258Y222441D02*
X437758D01*
X437008Y221691D02*
Y223191D01*
X386968Y106691D02*
X390118D01*
X388543Y105116D02*
Y108265D01*
X516890Y106691D02*
X520039D01*
X518465Y105116D02*
Y108265D01*
X607441Y106691D02*
X610590D01*
X609016Y105116D02*
Y108265D01*
X75945Y106691D02*
X79094D01*
X77520Y105116D02*
Y108265D01*
X166496Y106691D02*
X169646D01*
X168071Y105116D02*
Y108265D01*
X219553Y48771D02*
X221053D01*
X220303Y48021D02*
Y49521D01*
X296417Y106691D02*
X299567D01*
X297992Y105116D02*
Y108265D01*
X319259Y161754D02*
X320759D01*
X320009Y161004D02*
Y162504D01*
X316953Y206018D02*
X318453D01*
X317703Y205268D02*
Y206768D01*
X370871Y97532D02*
X372371D01*
X371621Y96782D02*
Y98282D01*
X351273Y224591D02*
X352773D01*
X352023Y223841D02*
Y225341D01*
M02*
