G04*
G04 #@! TF.GenerationSoftware,Altium Limited,Altium Designer,18.0.9 (584)*
G04*
G04 Layer_Color=2752767*
%FSLAX25Y25*%
%MOIN*%
G70*
G01*
G75*
%ADD122C,0.00200*%
%ADD123C,0.00267*%
%ADD124C,0.00133*%
D122*
X621247Y58255D02*
Y59855D01*
X622847D01*
Y58255D01*
X621247D01*
X530696D02*
Y59855D01*
X532296D01*
Y58255D01*
X530696D01*
X400775D02*
Y59855D01*
X402375D01*
Y58255D01*
X400775D01*
X310224D02*
Y59855D01*
X311824D01*
Y58255D01*
X310224D01*
X180302D02*
Y59855D01*
X181902D01*
Y58255D01*
X180302D01*
X89751D02*
Y59855D01*
X91351D01*
Y58255D01*
X89751D01*
X356299Y176365D02*
X355499Y177965D01*
X357099D01*
X356299Y176365D01*
X582677Y156680D02*
X583077Y157080D01*
X583477D01*
X583077Y157480D01*
X583477Y157880D01*
X583077D01*
X582677Y158280D01*
X582277Y157880D01*
X581877D01*
X582277Y157480D01*
X581877Y157080D01*
X582277D01*
X582677Y156680D01*
Y314161D02*
X583077Y314561D01*
X583477D01*
X583077Y314961D01*
X583477Y315361D01*
X583077D01*
X582677Y315761D01*
X582277Y315361D01*
X581877D01*
X582277Y314961D01*
X581877Y314561D01*
X582277D01*
X582677Y314161D01*
X527743Y186208D02*
X528143Y187008D01*
X527743Y187808D01*
X528543Y187408D01*
X529343Y187808D01*
X528943Y187008D01*
X529343Y186208D01*
X528543Y186608D01*
X527743Y186208D01*
Y284633D02*
X528143Y285433D01*
X527743Y286233D01*
X528543Y285833D01*
X529343Y286233D01*
X528943Y285433D01*
X529343Y284633D01*
X528543Y285033D01*
X527743Y284633D01*
X636011Y186208D02*
X636411Y187008D01*
X636011Y187808D01*
X636811Y187408D01*
X637611Y187808D01*
X637211Y187008D01*
X637611Y186208D01*
X636811Y186608D01*
X636011Y186208D01*
Y205893D02*
X636411Y206693D01*
X636011Y207493D01*
X636811Y207093D01*
X637611Y207493D01*
X637211Y206693D01*
X637611Y205893D01*
X636811Y206293D01*
X636011Y205893D01*
Y264948D02*
X636411Y265748D01*
X636011Y266548D01*
X636811Y266148D01*
X637611Y266548D01*
X637211Y265748D01*
X637611Y264948D01*
X636811Y265348D01*
X636011Y264948D01*
Y284633D02*
X636411Y285433D01*
X636011Y286233D01*
X636811Y285833D01*
X637611Y286233D01*
X637211Y285433D01*
X637611Y284633D01*
X636811Y285033D01*
X636011Y284633D01*
X129921Y156680D02*
X130321Y157080D01*
X130721D01*
X130321Y157480D01*
X130721Y157880D01*
X130321D01*
X129921Y158280D01*
X129521Y157880D01*
X129121D01*
X129521Y157480D01*
X129121Y157080D01*
X129521D01*
X129921Y156680D01*
Y314161D02*
X130321Y314561D01*
X130721D01*
X130321Y314961D01*
X130721Y315361D01*
X130321D01*
X129921Y315761D01*
X129521Y315361D01*
X129121D01*
X129521Y314961D01*
X129121Y314561D01*
X129521D01*
X129921Y314161D01*
X74987Y186208D02*
X75387Y187008D01*
X74987Y187808D01*
X75787Y187408D01*
X76587Y187808D01*
X76187Y187008D01*
X76587Y186208D01*
X75787Y186608D01*
X74987Y186208D01*
Y284633D02*
X75387Y285433D01*
X74987Y286233D01*
X75787Y285833D01*
X76587Y286233D01*
X76187Y285433D01*
X76587Y284633D01*
X75787Y285033D01*
X74987Y284633D01*
X183255Y186208D02*
X183655Y187008D01*
X183255Y187808D01*
X184055Y187408D01*
X184855Y187808D01*
X184455Y187008D01*
X184855Y186208D01*
X184055Y186608D01*
X183255Y186208D01*
Y205893D02*
X183655Y206693D01*
X183255Y207493D01*
X184055Y207093D01*
X184855Y207493D01*
X184455Y206693D01*
X184855Y205893D01*
X184055Y206293D01*
X183255Y205893D01*
Y264948D02*
X183655Y265748D01*
X183255Y266548D01*
X184055Y266148D01*
X184855Y266548D01*
X184455Y265748D01*
X184855Y264948D01*
X184055Y265348D01*
X183255Y264948D01*
Y284633D02*
X183655Y285433D01*
X183255Y286233D01*
X184055Y285833D01*
X184855Y286233D01*
X184455Y285433D01*
X184855Y284633D01*
X184055Y285033D01*
X183255Y284633D01*
X612297Y74850D02*
Y74450D01*
X613097D01*
Y74850D01*
X613497D01*
Y75651D01*
X613097D01*
Y76051D01*
X612297D01*
Y75651D01*
X611897D01*
Y74850D01*
X612297D01*
X521746D02*
Y74450D01*
X522546D01*
Y74850D01*
X522946D01*
Y75651D01*
X522546D01*
Y76051D01*
X521746D01*
Y75651D01*
X521346D01*
Y74850D01*
X521746D01*
X391824D02*
Y74450D01*
X392624D01*
Y74850D01*
X393024D01*
Y75651D01*
X392624D01*
Y76051D01*
X391824D01*
Y75651D01*
X391424D01*
Y74850D01*
X391824D01*
X301273D02*
Y74450D01*
X302073D01*
Y74850D01*
X302473D01*
Y75651D01*
X302073D01*
Y76051D01*
X301273D01*
Y75651D01*
X300873D01*
Y74850D01*
X301273D01*
X171352D02*
Y74450D01*
X172152D01*
Y74850D01*
X172552D01*
Y75651D01*
X172152D01*
Y76051D01*
X171352D01*
Y75651D01*
X170952D01*
Y74850D01*
X171352D01*
X80801D02*
Y74450D01*
X81601D01*
Y74850D01*
X82001D01*
Y75651D01*
X81601D01*
Y76051D01*
X80801D01*
Y75651D01*
X80401D01*
Y74850D01*
X80801D01*
X630998Y42460D02*
Y42060D01*
X631798D01*
Y42460D01*
X632198D01*
Y43260D01*
X631798D01*
Y43660D01*
X630998D01*
Y43260D01*
X630598D01*
Y42460D01*
X630998D01*
X540447D02*
Y42060D01*
X541247D01*
Y42460D01*
X541646D01*
Y43260D01*
X541247D01*
Y43660D01*
X540447D01*
Y43260D01*
X540047D01*
Y42460D01*
X540447D01*
X410525D02*
Y42060D01*
X411325D01*
Y42460D01*
X411725D01*
Y43260D01*
X411325D01*
Y43660D01*
X410525D01*
Y43260D01*
X410125D01*
Y42460D01*
X410525D01*
X319974D02*
Y42060D01*
X320774D01*
Y42460D01*
X321174D01*
Y43260D01*
X320774D01*
Y43660D01*
X319974D01*
Y43260D01*
X319574D01*
Y42460D01*
X319974D01*
X190053D02*
Y42060D01*
X190853D01*
Y42460D01*
X191253D01*
Y43260D01*
X190853D01*
Y43660D01*
X190053D01*
Y43260D01*
X189653D01*
Y42460D01*
X190053D01*
X99502D02*
Y42060D01*
X100302D01*
Y42460D01*
X100702D01*
Y43260D01*
X100302D01*
Y43660D01*
X99502D01*
Y43260D01*
X99102D01*
Y42460D01*
X99502D01*
X621647Y39954D02*
Y39554D01*
X622447D01*
Y39954D01*
X622847D01*
Y40754D01*
X622447D01*
Y41154D01*
X621647D01*
Y40754D01*
X621247D01*
Y39954D01*
X621647D01*
X531096D02*
Y39554D01*
X531896D01*
Y39954D01*
X532296D01*
Y40754D01*
X531896D01*
Y41154D01*
X531096D01*
Y40754D01*
X530696D01*
Y39954D01*
X531096D01*
X401175D02*
Y39554D01*
X401975D01*
Y39954D01*
X402375D01*
Y40754D01*
X401975D01*
Y41154D01*
X401175D01*
Y40754D01*
X400775D01*
Y39954D01*
X401175D01*
X310624D02*
Y39554D01*
X311424D01*
Y39954D01*
X311824D01*
Y40754D01*
X311424D01*
Y41154D01*
X310624D01*
Y40754D01*
X310224D01*
Y39954D01*
X310624D01*
X180702D02*
Y39554D01*
X181502D01*
Y39954D01*
X181902D01*
Y40754D01*
X181502D01*
Y41154D01*
X180702D01*
Y40754D01*
X180302D01*
Y39954D01*
X180702D01*
X90151D02*
Y39554D01*
X90951D01*
Y39954D01*
X91351D01*
Y40754D01*
X90951D01*
Y41154D01*
X90151D01*
Y40754D01*
X89751D01*
Y39954D01*
X90151D01*
X637843Y49305D02*
Y48905D01*
X638643D01*
Y49305D01*
X639043D01*
Y50105D01*
X638643D01*
Y50505D01*
X637843D01*
Y50105D01*
X637443D01*
Y49305D01*
X637843D01*
X547291D02*
Y48905D01*
X548091D01*
Y49305D01*
X548491D01*
Y50105D01*
X548091D01*
Y50505D01*
X547291D01*
Y50105D01*
X546891D01*
Y49305D01*
X547291D01*
X417370D02*
Y48905D01*
X418170D01*
Y49305D01*
X418570D01*
Y50105D01*
X418170D01*
Y50505D01*
X417370D01*
Y50105D01*
X416970D01*
Y49305D01*
X417370D01*
X326819D02*
Y48905D01*
X327619D01*
Y49305D01*
X328019D01*
Y50105D01*
X327619D01*
Y50505D01*
X326819D01*
Y50105D01*
X326419D01*
Y49305D01*
X326819D01*
X196898D02*
Y48905D01*
X197698D01*
Y49305D01*
X198098D01*
Y50105D01*
X197698D01*
Y50505D01*
X196898D01*
Y50105D01*
X196498D01*
Y49305D01*
X196898D01*
X106347D02*
Y48905D01*
X107147D01*
Y49305D01*
X107547D01*
Y50105D01*
X107147D01*
Y50505D01*
X106347D01*
Y50105D01*
X105947D01*
Y49305D01*
X106347D01*
X640348Y58655D02*
Y58255D01*
X641148D01*
Y58655D01*
X641548D01*
Y59455D01*
X641148D01*
Y59855D01*
X640348D01*
Y59455D01*
X639948D01*
Y58655D01*
X640348D01*
X549797D02*
Y58255D01*
X550597D01*
Y58655D01*
X550997D01*
Y59455D01*
X550597D01*
Y59855D01*
X549797D01*
Y59455D01*
X549397D01*
Y58655D01*
X549797D01*
X419876D02*
Y58255D01*
X420676D01*
Y58655D01*
X421076D01*
Y59455D01*
X420676D01*
Y59855D01*
X419876D01*
Y59455D01*
X419476D01*
Y58655D01*
X419876D01*
X329324D02*
Y58255D01*
X330124D01*
Y58655D01*
X330524D01*
Y59455D01*
X330124D01*
Y59855D01*
X329324D01*
Y59455D01*
X328924D01*
Y58655D01*
X329324D01*
X199403D02*
Y58255D01*
X200203D01*
Y58655D01*
X200603D01*
Y59455D01*
X200203D01*
Y59855D01*
X199403D01*
Y59455D01*
X199003D01*
Y58655D01*
X199403D01*
X108852D02*
Y58255D01*
X109652D01*
Y58655D01*
X110052D01*
Y59455D01*
X109652D01*
Y59855D01*
X108852D01*
Y59455D01*
X108452D01*
Y58655D01*
X108852D01*
X637843Y68006D02*
Y67606D01*
X638643D01*
Y68006D01*
X639043D01*
Y68805D01*
X638643D01*
Y69205D01*
X637843D01*
Y68805D01*
X637443D01*
Y68006D01*
X637843D01*
X547291D02*
Y67606D01*
X548091D01*
Y68006D01*
X548491D01*
Y68805D01*
X548091D01*
Y69205D01*
X547291D01*
Y68805D01*
X546891D01*
Y68006D01*
X547291D01*
X417370D02*
Y67606D01*
X418170D01*
Y68006D01*
X418570D01*
Y68805D01*
X418170D01*
Y69205D01*
X417370D01*
Y68805D01*
X416970D01*
Y68006D01*
X417370D01*
X326819D02*
Y67606D01*
X327619D01*
Y68006D01*
X328019D01*
Y68805D01*
X327619D01*
Y69205D01*
X326819D01*
Y68805D01*
X326419D01*
Y68006D01*
X326819D01*
X196898D02*
Y67606D01*
X197698D01*
Y68006D01*
X198098D01*
Y68805D01*
X197698D01*
Y69205D01*
X196898D01*
Y68805D01*
X196498D01*
Y68006D01*
X196898D01*
X106347D02*
Y67606D01*
X107147D01*
Y68006D01*
X107547D01*
Y68805D01*
X107147D01*
Y69205D01*
X106347D01*
Y68805D01*
X105947D01*
Y68006D01*
X106347D01*
X630998Y74850D02*
Y74450D01*
X631798D01*
Y74850D01*
X632198D01*
Y75651D01*
X631798D01*
Y76051D01*
X630998D01*
Y75651D01*
X630598D01*
Y74850D01*
X630998D01*
X540447D02*
Y74450D01*
X541247D01*
Y74850D01*
X541646D01*
Y75651D01*
X541247D01*
Y76051D01*
X540447D01*
Y75651D01*
X540047D01*
Y74850D01*
X540447D01*
X410525D02*
Y74450D01*
X411325D01*
Y74850D01*
X411725D01*
Y75651D01*
X411325D01*
Y76051D01*
X410525D01*
Y75651D01*
X410125D01*
Y74850D01*
X410525D01*
X319974D02*
Y74450D01*
X320774D01*
Y74850D01*
X321174D01*
Y75651D01*
X320774D01*
Y76051D01*
X319974D01*
Y75651D01*
X319574D01*
Y74850D01*
X319974D01*
X190053D02*
Y74450D01*
X190853D01*
Y74850D01*
X191253D01*
Y75651D01*
X190853D01*
Y76051D01*
X190053D01*
Y75651D01*
X189653D01*
Y74850D01*
X190053D01*
X99502D02*
Y74450D01*
X100302D01*
Y74850D01*
X100702D01*
Y75651D01*
X100302D01*
Y76051D01*
X99502D01*
Y75651D01*
X99102D01*
Y74850D01*
X99502D01*
X612297Y42460D02*
Y42060D01*
X613097D01*
Y42460D01*
X613497D01*
Y43260D01*
X613097D01*
Y43660D01*
X612297D01*
Y43260D01*
X611897D01*
Y42460D01*
X612297D01*
X521746D02*
Y42060D01*
X522546D01*
Y42460D01*
X522946D01*
Y43260D01*
X522546D01*
Y43660D01*
X521746D01*
Y43260D01*
X521346D01*
Y42460D01*
X521746D01*
X391824D02*
Y42060D01*
X392624D01*
Y42460D01*
X393024D01*
Y43260D01*
X392624D01*
Y43660D01*
X391824D01*
Y43260D01*
X391424D01*
Y42460D01*
X391824D01*
X301273D02*
Y42060D01*
X302073D01*
Y42460D01*
X302473D01*
Y43260D01*
X302073D01*
Y43660D01*
X301273D01*
Y43260D01*
X300873D01*
Y42460D01*
X301273D01*
X171352D02*
Y42060D01*
X172152D01*
Y42460D01*
X172552D01*
Y43260D01*
X172152D01*
Y43660D01*
X171352D01*
Y43260D01*
X170952D01*
Y42460D01*
X171352D01*
X80801D02*
Y42060D01*
X81601D01*
Y42460D01*
X82001D01*
Y43260D01*
X81601D01*
Y43660D01*
X80801D01*
Y43260D01*
X80401D01*
Y42460D01*
X80801D01*
X605452Y49305D02*
Y48905D01*
X606252D01*
Y49305D01*
X606652D01*
Y50105D01*
X606252D01*
Y50505D01*
X605452D01*
Y50105D01*
X605052D01*
Y49305D01*
X605452D01*
X514901D02*
Y48905D01*
X515701D01*
Y49305D01*
X516101D01*
Y50105D01*
X515701D01*
Y50505D01*
X514901D01*
Y50105D01*
X514501D01*
Y49305D01*
X514901D01*
X384979D02*
Y48905D01*
X385779D01*
Y49305D01*
X386179D01*
Y50105D01*
X385779D01*
Y50505D01*
X384979D01*
Y50105D01*
X384579D01*
Y49305D01*
X384979D01*
X294428D02*
Y48905D01*
X295228D01*
Y49305D01*
X295628D01*
Y50105D01*
X295228D01*
Y50505D01*
X294428D01*
Y50105D01*
X294028D01*
Y49305D01*
X294428D01*
X164507D02*
Y48905D01*
X165307D01*
Y49305D01*
X165707D01*
Y50105D01*
X165307D01*
Y50505D01*
X164507D01*
Y50105D01*
X164107D01*
Y49305D01*
X164507D01*
X73956D02*
Y48905D01*
X74756D01*
Y49305D01*
X75156D01*
Y50105D01*
X74756D01*
Y50505D01*
X73956D01*
Y50105D01*
X73556D01*
Y49305D01*
X73956D01*
X602946Y58655D02*
Y58255D01*
X603746D01*
Y58655D01*
X604146D01*
Y59455D01*
X603746D01*
Y59855D01*
X602946D01*
Y59455D01*
X602546D01*
Y58655D01*
X602946D01*
X512395D02*
Y58255D01*
X513195D01*
Y58655D01*
X513595D01*
Y59455D01*
X513195D01*
Y59855D01*
X512395D01*
Y59455D01*
X511995D01*
Y58655D01*
X512395D01*
X382474D02*
Y58255D01*
X383274D01*
Y58655D01*
X383674D01*
Y59455D01*
X383274D01*
Y59855D01*
X382474D01*
Y59455D01*
X382074D01*
Y58655D01*
X382474D01*
X291923D02*
Y58255D01*
X292723D01*
Y58655D01*
X293123D01*
Y59455D01*
X292723D01*
Y59855D01*
X291923D01*
Y59455D01*
X291523D01*
Y58655D01*
X291923D01*
X162002D02*
Y58255D01*
X162802D01*
Y58655D01*
X163202D01*
Y59455D01*
X162802D01*
Y59855D01*
X162002D01*
Y59455D01*
X161602D01*
Y58655D01*
X162002D01*
X71450D02*
Y58255D01*
X72250D01*
Y58655D01*
X72650D01*
Y59455D01*
X72250D01*
Y59855D01*
X71450D01*
Y59455D01*
X71050D01*
Y58655D01*
X71450D01*
X605452Y68006D02*
Y67606D01*
X606252D01*
Y68006D01*
X606652D01*
Y68805D01*
X606252D01*
Y69205D01*
X605452D01*
Y68805D01*
X605052D01*
Y68006D01*
X605452D01*
X514901D02*
Y67606D01*
X515701D01*
Y68006D01*
X516101D01*
Y68805D01*
X515701D01*
Y69205D01*
X514901D01*
Y68805D01*
X514501D01*
Y68006D01*
X514901D01*
X384979D02*
Y67606D01*
X385779D01*
Y68006D01*
X386179D01*
Y68805D01*
X385779D01*
Y69205D01*
X384979D01*
Y68805D01*
X384579D01*
Y68006D01*
X384979D01*
X294428D02*
Y67606D01*
X295228D01*
Y68006D01*
X295628D01*
Y68805D01*
X295228D01*
Y69205D01*
X294428D01*
Y68805D01*
X294028D01*
Y68006D01*
X294428D01*
X164507Y68006D02*
Y67606D01*
X165307D01*
Y68006D01*
X165707D01*
Y68805D01*
X165307D01*
Y69205D01*
X164507D01*
Y68805D01*
X164107D01*
Y68006D01*
X164507D01*
X73956Y68006D02*
Y67606D01*
X74756D01*
Y68006D01*
X75156D01*
Y68805D01*
X74756D01*
Y69205D01*
X73956D01*
Y68805D01*
X73556D01*
Y68006D01*
X73956D01*
X31995Y152743D02*
X32395D01*
X32795Y153143D01*
X33195Y152743D01*
X33595D01*
Y153143D01*
X33195Y153543D01*
X33595Y153943D01*
Y154343D01*
X33195D01*
X32795Y153943D01*
X32395Y154343D01*
X31995D01*
Y153943D01*
X32395Y153543D01*
X31995Y153143D01*
Y152743D01*
X11995D02*
X12395D01*
X12795Y153143D01*
X13195Y152743D01*
X13595D01*
Y153143D01*
X13195Y153543D01*
X13595Y153943D01*
Y154343D01*
X13195D01*
X12795Y153943D01*
X12395Y154343D01*
X11995D01*
Y153943D01*
X12395Y153543D01*
X11995Y153143D01*
Y152743D01*
Y117310D02*
X12395D01*
X12795Y117710D01*
X13195Y117310D01*
X13595D01*
Y117710D01*
X13195Y118110D01*
X13595Y118510D01*
Y118910D01*
X13195D01*
X12795Y118510D01*
X12395Y118910D01*
X11995D01*
Y118510D01*
X12395Y118110D01*
X11995Y117710D01*
Y117310D01*
X31995D02*
X32395D01*
X32795Y117710D01*
X33195Y117310D01*
X33595D01*
Y117710D01*
X33195Y118110D01*
X33595Y118510D01*
Y118910D01*
X33195D01*
X32795Y118510D01*
X32395Y118910D01*
X31995D01*
Y118510D01*
X32395Y118110D01*
X31995Y117710D01*
Y117310D01*
X18885Y285433D02*
X19685Y286233D01*
X20485Y285433D01*
X19685Y284633D01*
X18885Y285433D01*
Y196457D02*
X19685Y197257D01*
X20485Y196457D01*
X19685Y195657D01*
X18885Y196457D01*
X630998Y74850D02*
Y74450D01*
X631798D01*
Y74850D01*
X632198D01*
Y75651D01*
X631798D01*
Y76051D01*
X630998D01*
Y75651D01*
X630598D01*
Y74850D01*
X630998D01*
X637843Y68006D02*
Y67606D01*
X638643D01*
Y68006D01*
X639043D01*
Y68805D01*
X638643D01*
Y69205D01*
X637843D01*
Y68805D01*
X637443D01*
Y68006D01*
X637843D01*
X640348Y58655D02*
Y58255D01*
X641148D01*
Y58655D01*
X641548D01*
Y59455D01*
X641148D01*
Y59855D01*
X640348D01*
Y59455D01*
X639948D01*
Y58655D01*
X640348D01*
X637843Y49305D02*
Y48905D01*
X638643D01*
Y49305D01*
X639043D01*
Y50105D01*
X638643D01*
Y50505D01*
X637843D01*
Y50105D01*
X637443D01*
Y49305D01*
X637843D01*
X630998Y42460D02*
Y42060D01*
X631798D01*
Y42460D01*
X632198D01*
Y43260D01*
X631798D01*
Y43660D01*
X630998D01*
Y43260D01*
X630598D01*
Y42460D01*
X630998D01*
X621647Y39954D02*
Y39554D01*
X622447D01*
Y39954D01*
X622847D01*
Y40754D01*
X622447D01*
Y41154D01*
X621647D01*
Y40754D01*
X621247D01*
Y39954D01*
X621647D01*
X612297Y42460D02*
Y42060D01*
X613097D01*
Y42460D01*
X613497D01*
Y43260D01*
X613097D01*
Y43660D01*
X612297D01*
Y43260D01*
X611897D01*
Y42460D01*
X612297D01*
X605452Y49305D02*
Y48905D01*
X606252D01*
Y49305D01*
X606652D01*
Y50105D01*
X606252D01*
Y50505D01*
X605452D01*
Y50105D01*
X605052D01*
Y49305D01*
X605452D01*
X602946Y58655D02*
Y58255D01*
X603746D01*
Y58655D01*
X604146D01*
Y59455D01*
X603746D01*
Y59855D01*
X602946D01*
Y59455D01*
X602546D01*
Y58655D01*
X602946D01*
X605452Y68006D02*
Y67606D01*
X606252D01*
Y68006D01*
X606652D01*
Y68805D01*
X606252D01*
Y69205D01*
X605452D01*
Y68805D01*
X605052D01*
Y68006D01*
X605452D01*
X612297Y74850D02*
Y74450D01*
X613097D01*
Y74850D01*
X613497D01*
Y75651D01*
X613097D01*
Y76051D01*
X612297D01*
Y75651D01*
X611897D01*
Y74850D01*
X612297D01*
X540447D02*
Y74450D01*
X541247D01*
Y74850D01*
X541646D01*
Y75651D01*
X541247D01*
Y76051D01*
X540447D01*
Y75651D01*
X540047D01*
Y74850D01*
X540447D01*
X547291Y68006D02*
Y67606D01*
X548091D01*
Y68006D01*
X548491D01*
Y68805D01*
X548091D01*
Y69205D01*
X547291D01*
Y68805D01*
X546891D01*
Y68006D01*
X547291D01*
X549797Y58655D02*
Y58255D01*
X550597D01*
Y58655D01*
X550997D01*
Y59455D01*
X550597D01*
Y59855D01*
X549797D01*
Y59455D01*
X549397D01*
Y58655D01*
X549797D01*
X547291Y49305D02*
Y48905D01*
X548091D01*
Y49305D01*
X548491D01*
Y50105D01*
X548091D01*
Y50505D01*
X547291D01*
Y50105D01*
X546891D01*
Y49305D01*
X547291D01*
X540447Y42460D02*
Y42060D01*
X541247D01*
Y42460D01*
X541646D01*
Y43260D01*
X541247D01*
Y43660D01*
X540447D01*
Y43260D01*
X540047D01*
Y42460D01*
X540447D01*
X531096Y39954D02*
Y39554D01*
X531896D01*
Y39954D01*
X532296D01*
Y40754D01*
X531896D01*
Y41154D01*
X531096D01*
Y40754D01*
X530696D01*
Y39954D01*
X531096D01*
X521746Y42460D02*
Y42060D01*
X522546D01*
Y42460D01*
X522946D01*
Y43260D01*
X522546D01*
Y43660D01*
X521746D01*
Y43260D01*
X521346D01*
Y42460D01*
X521746D01*
X514901Y49305D02*
Y48905D01*
X515701D01*
Y49305D01*
X516101D01*
Y50105D01*
X515701D01*
Y50505D01*
X514901D01*
Y50105D01*
X514501D01*
Y49305D01*
X514901D01*
X512395Y58655D02*
Y58255D01*
X513195D01*
Y58655D01*
X513595D01*
Y59455D01*
X513195D01*
Y59855D01*
X512395D01*
Y59455D01*
X511995D01*
Y58655D01*
X512395D01*
X514901Y68006D02*
Y67606D01*
X515701D01*
Y68006D01*
X516101D01*
Y68805D01*
X515701D01*
Y69205D01*
X514901D01*
Y68805D01*
X514501D01*
Y68006D01*
X514901D01*
X521746Y74850D02*
Y74450D01*
X522546D01*
Y74850D01*
X522946D01*
Y75651D01*
X522546D01*
Y76051D01*
X521746D01*
Y75651D01*
X521346D01*
Y74850D01*
X521746D01*
X410525D02*
Y74450D01*
X411325D01*
Y74850D01*
X411725D01*
Y75651D01*
X411325D01*
Y76051D01*
X410525D01*
Y75651D01*
X410125D01*
Y74850D01*
X410525D01*
X417370Y68006D02*
Y67606D01*
X418170D01*
Y68006D01*
X418570D01*
Y68805D01*
X418170D01*
Y69205D01*
X417370D01*
Y68805D01*
X416970D01*
Y68006D01*
X417370D01*
X419876Y58655D02*
Y58255D01*
X420676D01*
Y58655D01*
X421076D01*
Y59455D01*
X420676D01*
Y59855D01*
X419876D01*
Y59455D01*
X419476D01*
Y58655D01*
X419876D01*
X417370Y49305D02*
Y48905D01*
X418170D01*
Y49305D01*
X418570D01*
Y50105D01*
X418170D01*
Y50505D01*
X417370D01*
Y50105D01*
X416970D01*
Y49305D01*
X417370D01*
X410525Y42460D02*
Y42060D01*
X411325D01*
Y42460D01*
X411725D01*
Y43260D01*
X411325D01*
Y43660D01*
X410525D01*
Y43260D01*
X410125D01*
Y42460D01*
X410525D01*
X401175Y39954D02*
Y39554D01*
X401975D01*
Y39954D01*
X402375D01*
Y40754D01*
X401975D01*
Y41154D01*
X401175D01*
Y40754D01*
X400775D01*
Y39954D01*
X401175D01*
X391824Y42460D02*
Y42060D01*
X392624D01*
Y42460D01*
X393024D01*
Y43260D01*
X392624D01*
Y43660D01*
X391824D01*
Y43260D01*
X391424D01*
Y42460D01*
X391824D01*
X384979Y49305D02*
Y48905D01*
X385779D01*
Y49305D01*
X386179D01*
Y50105D01*
X385779D01*
Y50505D01*
X384979D01*
Y50105D01*
X384579D01*
Y49305D01*
X384979D01*
X382474Y58655D02*
Y58255D01*
X383274D01*
Y58655D01*
X383674D01*
Y59455D01*
X383274D01*
Y59855D01*
X382474D01*
Y59455D01*
X382074D01*
Y58655D01*
X382474D01*
X384979Y68006D02*
Y67606D01*
X385779D01*
Y68006D01*
X386179D01*
Y68805D01*
X385779D01*
Y69205D01*
X384979D01*
Y68805D01*
X384579D01*
Y68006D01*
X384979D01*
X391824Y74850D02*
Y74450D01*
X392624D01*
Y74850D01*
X393024D01*
Y75651D01*
X392624D01*
Y76051D01*
X391824D01*
Y75651D01*
X391424D01*
Y74850D01*
X391824D01*
X319974D02*
Y74450D01*
X320774D01*
Y74850D01*
X321174D01*
Y75651D01*
X320774D01*
Y76051D01*
X319974D01*
Y75651D01*
X319574D01*
Y74850D01*
X319974D01*
X326819Y68006D02*
Y67606D01*
X327619D01*
Y68006D01*
X328019D01*
Y68805D01*
X327619D01*
Y69205D01*
X326819D01*
Y68805D01*
X326419D01*
Y68006D01*
X326819D01*
X329324Y58655D02*
Y58255D01*
X330124D01*
Y58655D01*
X330524D01*
Y59455D01*
X330124D01*
Y59855D01*
X329324D01*
Y59455D01*
X328924D01*
Y58655D01*
X329324D01*
X326819Y49305D02*
Y48905D01*
X327619D01*
Y49305D01*
X328019D01*
Y50105D01*
X327619D01*
Y50505D01*
X326819D01*
Y50105D01*
X326419D01*
Y49305D01*
X326819D01*
X319974Y42460D02*
Y42060D01*
X320774D01*
Y42460D01*
X321174D01*
Y43260D01*
X320774D01*
Y43660D01*
X319974D01*
Y43260D01*
X319574D01*
Y42460D01*
X319974D01*
X310624Y39954D02*
Y39554D01*
X311424D01*
Y39954D01*
X311824D01*
Y40754D01*
X311424D01*
Y41154D01*
X310624D01*
Y40754D01*
X310224D01*
Y39954D01*
X310624D01*
X301273Y42460D02*
Y42060D01*
X302073D01*
Y42460D01*
X302473D01*
Y43260D01*
X302073D01*
Y43660D01*
X301273D01*
Y43260D01*
X300873D01*
Y42460D01*
X301273D01*
X294428Y49305D02*
Y48905D01*
X295228D01*
Y49305D01*
X295628D01*
Y50105D01*
X295228D01*
Y50505D01*
X294428D01*
Y50105D01*
X294028D01*
Y49305D01*
X294428D01*
X291923Y58655D02*
Y58255D01*
X292723D01*
Y58655D01*
X293123D01*
Y59455D01*
X292723D01*
Y59855D01*
X291923D01*
Y59455D01*
X291523D01*
Y58655D01*
X291923D01*
X294428Y68006D02*
Y67606D01*
X295228D01*
Y68006D01*
X295628D01*
Y68805D01*
X295228D01*
Y69205D01*
X294428D01*
Y68805D01*
X294028D01*
Y68006D01*
X294428D01*
X301273Y74850D02*
Y74450D01*
X302073D01*
Y74850D01*
X302473D01*
Y75651D01*
X302073D01*
Y76051D01*
X301273D01*
Y75651D01*
X300873D01*
Y74850D01*
X301273D01*
X190053D02*
Y74450D01*
X190853D01*
Y74850D01*
X191253D01*
Y75651D01*
X190853D01*
Y76051D01*
X190053D01*
Y75651D01*
X189653D01*
Y74850D01*
X190053D01*
X196898Y68006D02*
Y67606D01*
X197698D01*
Y68006D01*
X198098D01*
Y68805D01*
X197698D01*
Y69205D01*
X196898D01*
Y68805D01*
X196498D01*
Y68006D01*
X196898D01*
X199403Y58655D02*
Y58255D01*
X200203D01*
Y58655D01*
X200603D01*
Y59455D01*
X200203D01*
Y59855D01*
X199403D01*
Y59455D01*
X199003D01*
Y58655D01*
X199403D01*
X196898Y49305D02*
Y48905D01*
X197698D01*
Y49305D01*
X198098D01*
Y50105D01*
X197698D01*
Y50505D01*
X196898D01*
Y50105D01*
X196498D01*
Y49305D01*
X196898D01*
X190053Y42460D02*
Y42060D01*
X190853D01*
Y42460D01*
X191253D01*
Y43260D01*
X190853D01*
Y43660D01*
X190053D01*
Y43260D01*
X189653D01*
Y42460D01*
X190053D01*
X180702Y39954D02*
Y39554D01*
X181502D01*
Y39954D01*
X181902D01*
Y40754D01*
X181502D01*
Y41154D01*
X180702D01*
Y40754D01*
X180302D01*
Y39954D01*
X180702D01*
X171352Y42460D02*
Y42060D01*
X172152D01*
Y42460D01*
X172552D01*
Y43260D01*
X172152D01*
Y43660D01*
X171352D01*
Y43260D01*
X170952D01*
Y42460D01*
X171352D01*
X164507Y49305D02*
Y48905D01*
X165307D01*
Y49305D01*
X165707D01*
Y50105D01*
X165307D01*
Y50505D01*
X164507D01*
Y50105D01*
X164107D01*
Y49305D01*
X164507D01*
X162002Y58655D02*
Y58255D01*
X162802D01*
Y58655D01*
X163202D01*
Y59455D01*
X162802D01*
Y59855D01*
X162002D01*
Y59455D01*
X161602D01*
Y58655D01*
X162002D01*
X164507Y68006D02*
Y67606D01*
X165307D01*
Y68006D01*
X165707D01*
Y68805D01*
X165307D01*
Y69205D01*
X164507D01*
Y68805D01*
X164107D01*
Y68006D01*
X164507D01*
X171352Y74850D02*
Y74450D01*
X172152D01*
Y74850D01*
X172552D01*
Y75651D01*
X172152D01*
Y76051D01*
X171352D01*
Y75651D01*
X170952D01*
Y74850D01*
X171352D01*
X99502D02*
Y74450D01*
X100302D01*
Y74850D01*
X100702D01*
Y75651D01*
X100302D01*
Y76051D01*
X99502D01*
Y75651D01*
X99102D01*
Y74850D01*
X99502D01*
X106347Y68006D02*
Y67606D01*
X107147D01*
Y68006D01*
X107547D01*
Y68805D01*
X107147D01*
Y69205D01*
X106347D01*
Y68805D01*
X105947D01*
Y68006D01*
X106347D01*
X108852Y58655D02*
Y58255D01*
X109652D01*
Y58655D01*
X110052D01*
Y59455D01*
X109652D01*
Y59855D01*
X108852D01*
Y59455D01*
X108452D01*
Y58655D01*
X108852D01*
X106347Y49305D02*
Y48905D01*
X107147D01*
Y49305D01*
X107547D01*
Y50105D01*
X107147D01*
Y50505D01*
X106347D01*
Y50105D01*
X105947D01*
Y49305D01*
X106347D01*
X99502Y42460D02*
Y42060D01*
X100302D01*
Y42460D01*
X100702D01*
Y43260D01*
X100302D01*
Y43660D01*
X99502D01*
Y43260D01*
X99102D01*
Y42460D01*
X99502D01*
X90151Y39954D02*
Y39554D01*
X90951D01*
Y39954D01*
X91351D01*
Y40754D01*
X90951D01*
Y41154D01*
X90151D01*
Y40754D01*
X89751D01*
Y39954D01*
X90151D01*
X80801Y42460D02*
Y42060D01*
X81601D01*
Y42460D01*
X82001D01*
Y43260D01*
X81601D01*
Y43660D01*
X80801D01*
Y43260D01*
X80401D01*
Y42460D01*
X80801D01*
X73956Y49305D02*
Y48905D01*
X74756D01*
Y49305D01*
X75156D01*
Y50105D01*
X74756D01*
Y50505D01*
X73956D01*
Y50105D01*
X73556D01*
Y49305D01*
X73956D01*
X71450Y58655D02*
Y58255D01*
X72250D01*
Y58655D01*
X72650D01*
Y59455D01*
X72250D01*
Y59855D01*
X71450D01*
Y59455D01*
X71050D01*
Y58655D01*
X71450D01*
X73956Y68006D02*
Y67606D01*
X74756D01*
Y68006D01*
X75156D01*
Y68805D01*
X74756D01*
Y69205D01*
X73956D01*
Y68805D01*
X73556D01*
Y68006D01*
X73956D01*
X80801Y74850D02*
Y74450D01*
X81601D01*
Y74850D01*
X82001D01*
Y75651D01*
X81601D01*
Y76051D01*
X80801D01*
Y75651D01*
X80401D01*
Y74850D01*
X80801D01*
X684239Y26759D02*
Y28359D01*
X685839D01*
Y26759D01*
X684239D01*
X684639Y27159D02*
Y27959D01*
X685439D01*
Y27159D01*
X684639D01*
X684239Y325972D02*
Y327572D01*
X685839D01*
Y325972D01*
X684239D01*
X684639Y326372D02*
Y327172D01*
X685439D01*
Y326372D01*
X684639D01*
X26759Y325972D02*
Y327572D01*
X28359D01*
Y325972D01*
X26759D01*
X27159Y326372D02*
Y327172D01*
X27959D01*
Y326372D01*
X27159D01*
X26759Y26759D02*
Y28359D01*
X28359D01*
Y26759D01*
X26759D01*
X27159Y27159D02*
Y27959D01*
X27959D01*
Y27159D01*
X27159D01*
X437008Y191129D02*
X436208Y192729D01*
X437808D01*
X437008Y191129D01*
Y186208D02*
X436208Y187808D01*
X437808D01*
X437008Y186208D01*
X433070Y144869D02*
X432270Y146469D01*
X433870D01*
X433070Y144869D01*
X430118Y141917D02*
X429318Y143517D01*
X430918D01*
X430118Y141917D01*
Y147822D02*
X429318Y149422D01*
X430918D01*
X430118Y147822D01*
X433071Y150775D02*
X432271Y152375D01*
X433871D01*
X433071Y150775D01*
X403247Y155864D02*
X402447Y157464D01*
X404047D01*
X403247Y155864D01*
X521212Y19054D02*
X520412Y20654D01*
X522012D01*
X521212Y19054D01*
X400463Y153080D02*
X399663Y154680D01*
X401263D01*
X400463Y153080D01*
X502989Y29448D02*
X502189Y31048D01*
X503789D01*
X502989Y29448D01*
X396766Y165130D02*
X395966Y166730D01*
X397566D01*
X396766Y165130D01*
X492405Y47561D02*
X491605Y49161D01*
X493205D01*
X492405Y47561D01*
X392589Y191777D02*
X391789Y193377D01*
X393389D01*
X392589Y191777D01*
X395373Y188993D02*
X394573Y190593D01*
X396173D01*
X395373Y188993D01*
X389805Y194561D02*
X389005Y196161D01*
X390605D01*
X389805Y194561D01*
X401856Y198258D02*
X401055Y199858D01*
X402656D01*
X401856Y198258D01*
X403372Y203037D02*
X402572Y204637D01*
X404173D01*
X403372Y203037D01*
X650554Y87062D02*
X649754Y88662D01*
X651354D01*
X650554Y87062D01*
X492295Y68539D02*
X491495Y70139D01*
X493095D01*
X492295Y68539D01*
X632331Y97456D02*
X631531Y99056D01*
X633131D01*
X632331Y97456D01*
X437008Y196050D02*
X436208Y197650D01*
X437808D01*
X437008Y196050D01*
X560003Y87062D02*
X559203Y88662D01*
X560803D01*
X560003Y87062D01*
X397566Y230637D02*
X396766Y232237D01*
X398366D01*
X397566Y230637D01*
X356299Y188614D02*
X355499Y190214D01*
X357099D01*
X356299Y188614D01*
X359362Y185552D02*
X358561Y187152D01*
X360161D01*
X359362Y185552D01*
X362424Y182490D02*
X361624Y184090D01*
X363224D01*
X362424Y182490D01*
X365486Y179428D02*
X364686Y181028D01*
X366286D01*
X365486Y179428D01*
X368548Y176365D02*
X367748Y177965D01*
X369348D01*
X368548Y176365D01*
X353237Y185552D02*
X352437Y187152D01*
X354037D01*
X353237Y185552D01*
X356299Y182490D02*
X355499Y184090D01*
X357099D01*
X356299Y182490D01*
X359362Y179428D02*
X358561Y181028D01*
X360161D01*
X359362Y179428D01*
X362424Y176365D02*
X361624Y177965D01*
X363224D01*
X362424Y176365D01*
X365486Y173303D02*
X364686Y174903D01*
X366286D01*
X365486Y173303D01*
X350175Y182490D02*
X349375Y184090D01*
X350975D01*
X350175Y182490D01*
X353237Y179428D02*
X352437Y181028D01*
X354037D01*
X353237Y179428D01*
X359362Y173303D02*
X358561Y174903D01*
X360161D01*
X359362Y173303D01*
X362424Y170241D02*
X361624Y171841D01*
X363224D01*
X362424Y170241D01*
X347112Y179428D02*
X346312Y181028D01*
X347912D01*
X347112Y179428D01*
X350175Y176365D02*
X349375Y177965D01*
X350975D01*
X350175Y176365D01*
X353237Y173303D02*
X352437Y174903D01*
X354037D01*
X353237Y173303D01*
X356299Y170241D02*
X355499Y171841D01*
X357099D01*
X356299Y170241D01*
X359362Y167178D02*
X358561Y168779D01*
X360161D01*
X359362Y167178D01*
X344050Y176365D02*
X343250Y177965D01*
X344850D01*
X344050Y176365D01*
X347112Y173303D02*
X346312Y174903D01*
X347912D01*
X347112Y173303D01*
X350175Y170241D02*
X349375Y171841D01*
X350975D01*
X350175Y170241D01*
X353237Y167178D02*
X352437Y168779D01*
X354037D01*
X353237Y167178D01*
X356299Y164116D02*
X355499Y165716D01*
X357099D01*
X356299Y164116D01*
X271823Y68539D02*
X271023Y70139D01*
X272623D01*
X271823Y68539D01*
X366143Y134508D02*
X365343Y136108D01*
X366943D01*
X366143Y134508D01*
X298216Y185731D02*
X297416Y187331D01*
X299016D01*
X298216Y185731D01*
X307481Y179248D02*
X306681Y180849D01*
X308281D01*
X307481Y179248D01*
X287859Y164015D02*
X287059Y165615D01*
X288659D01*
X287859Y164015D01*
X313527Y151689D02*
X312727Y153289D01*
X314327D01*
X313527Y151689D01*
X209909Y29748D02*
X209109Y31348D01*
X210709D01*
X209909Y29748D01*
X142011Y47561D02*
X141211Y49161D01*
X142811D01*
X142011Y47561D01*
X119358Y29748D02*
X118558Y31348D01*
X120158D01*
X119358Y29748D01*
X333929Y147035D02*
X333129Y148635D01*
X334729D01*
X333929Y147035D01*
X342302Y138661D02*
X341502Y140261D01*
X343103D01*
X342302Y138661D01*
X335799Y223313D02*
X334998Y224914D01*
X336598D01*
X335799Y223313D01*
X326968Y198736D02*
X326168Y200336D01*
X327768D01*
X326968Y198736D01*
X332536Y204304D02*
X331736Y205904D01*
X333336D01*
X332536Y204304D01*
X364750Y219616D02*
X363950Y221216D01*
X365550D01*
X364750Y219616D01*
X542190Y19164D02*
X541390Y20764D01*
X542990D01*
X542190Y19164D01*
X560303Y29748D02*
X559503Y31348D01*
X561103D01*
X560303Y29748D01*
X570697Y47971D02*
X569897Y49571D01*
X571497D01*
X570697Y47971D01*
X570587Y68949D02*
X569787Y70549D01*
X571387D01*
X570587Y68949D01*
X541780Y97456D02*
X540980Y99056D01*
X542580D01*
X541780Y97456D01*
X520802Y97346D02*
X520002Y98946D01*
X521602D01*
X520802Y97346D01*
X582846Y68539D02*
X582046Y70139D01*
X583646D01*
X582846Y68539D01*
X582956Y47561D02*
X582156Y49161D01*
X583756D01*
X582956Y47561D01*
X593540Y29448D02*
X592740Y31048D01*
X594340D01*
X593540Y29448D01*
X611763Y19054D02*
X610963Y20654D01*
X612563D01*
X611763Y19054D01*
X632741Y19164D02*
X631941Y20764D01*
X633541D01*
X632741Y19164D01*
X650854Y29748D02*
X650054Y31348D01*
X651654D01*
X650854Y29748D01*
X661248Y47971D02*
X660448Y49571D01*
X662048D01*
X661248Y47971D01*
X661138Y68949D02*
X660338Y70549D01*
X661938D01*
X661138Y68949D01*
X611353Y97346D02*
X610553Y98946D01*
X612153D01*
X611353Y97346D01*
X271932Y47561D02*
X271132Y49161D01*
X272732D01*
X271932Y47561D01*
X282517Y29448D02*
X281717Y31048D01*
X283317D01*
X282517Y29448D01*
X300739Y19054D02*
X299939Y20654D01*
X301539D01*
X300739Y19054D01*
X321718Y19164D02*
X320918Y20764D01*
X322518D01*
X321718Y19164D01*
X339831Y29748D02*
X339031Y31348D01*
X340631D01*
X339831Y29748D01*
X350225Y47971D02*
X349425Y49571D01*
X351025D01*
X350225Y47971D01*
X350115Y68949D02*
X349315Y70549D01*
X350915D01*
X350115Y68949D01*
X339531Y87062D02*
X338731Y88662D01*
X340331D01*
X339531Y87062D01*
X300330Y97346D02*
X299530Y98946D01*
X301130D01*
X300330Y97346D01*
X362374Y68539D02*
X361574Y70139D01*
X363174D01*
X362374Y68539D01*
X362484Y47561D02*
X361684Y49161D01*
X363284D01*
X362484Y47561D01*
X373068Y29448D02*
X372268Y31048D01*
X373868D01*
X373068Y29448D01*
X391291Y19054D02*
X390491Y20654D01*
X392091D01*
X391291Y19054D01*
X412269Y19164D02*
X411469Y20764D01*
X413069D01*
X412269Y19164D01*
X430382Y29748D02*
X429582Y31348D01*
X431182D01*
X430382Y29748D01*
X440776Y47971D02*
X439976Y49571D01*
X441576D01*
X440776Y47971D01*
X440666Y68949D02*
X439866Y70549D01*
X441466D01*
X440666Y68949D01*
X430082Y87062D02*
X429282Y88662D01*
X430882D01*
X430082Y87062D01*
X411859Y97456D02*
X411059Y99056D01*
X412659D01*
X411859Y97456D01*
X390881Y97346D02*
X390081Y98946D01*
X391681D01*
X390881Y97346D01*
X141901Y68539D02*
X141101Y70139D01*
X142701D01*
X141901Y68539D01*
X152596Y29448D02*
X151796Y31048D01*
X153396D01*
X152596Y29448D01*
X170818Y19054D02*
X170018Y20654D01*
X171618D01*
X170818Y19054D01*
X191797Y19164D02*
X190997Y20764D01*
X192597D01*
X191797Y19164D01*
X220194Y68949D02*
X219394Y70549D01*
X220994D01*
X220194Y68949D01*
X209609Y87062D02*
X208809Y88662D01*
X210409D01*
X209609Y87062D01*
X191387Y97456D02*
X190587Y99056D01*
X192187D01*
X191387Y97456D01*
X170408Y97346D02*
X169608Y98946D01*
X171208D01*
X170408Y97346D01*
X100835Y97456D02*
X100035Y99056D01*
X101635D01*
X100835Y97456D01*
X79857Y97346D02*
X79057Y98946D01*
X80657D01*
X79857Y97346D01*
X51350Y68539D02*
X50550Y70139D01*
X52150D01*
X51350Y68539D01*
X119058Y87062D02*
X118258Y88662D01*
X119858D01*
X119058Y87062D01*
X129642Y68949D02*
X128842Y70549D01*
X130442D01*
X129642Y68949D01*
X129752Y47971D02*
X128952Y49571D01*
X130552D01*
X129752Y47971D01*
X101245Y19164D02*
X100445Y20764D01*
X102045D01*
X101245Y19164D01*
X80267Y19054D02*
X79467Y20654D01*
X81067D01*
X80267Y19054D01*
X51460Y47561D02*
X50660Y49161D01*
X52260D01*
X51460Y47561D01*
X62044Y29448D02*
X61244Y31048D01*
X62844D01*
X62044Y29448D01*
X371233Y228881D02*
X370433Y230481D01*
X372033D01*
X371233Y228881D01*
X373102Y211264D02*
X372302Y212864D01*
X373902D01*
X373102Y211264D01*
X378670Y205696D02*
X377870Y207296D01*
X379470D01*
X378670Y205696D01*
X375886Y208480D02*
X375086Y210080D01*
X376686D01*
X375886Y208480D01*
X387021Y197344D02*
X386221Y198944D01*
X387821D01*
X387021Y197344D01*
X399072Y201042D02*
X398272Y202642D01*
X399872D01*
X399072Y201042D01*
X400941Y183425D02*
X400141Y185025D01*
X401741D01*
X400941Y183425D01*
X405117Y173482D02*
X404317Y175082D01*
X405917D01*
X405117Y173482D01*
X391198Y159563D02*
X390398Y161163D01*
X391998D01*
X391198Y159563D01*
X393982Y162347D02*
X393182Y163947D01*
X394782D01*
X393982Y162347D01*
X385630Y153995D02*
X384830Y155595D01*
X386430D01*
X385630Y153995D01*
X394895Y147512D02*
X394095Y149112D01*
X395695D01*
X394895Y147512D01*
X388414Y156779D02*
X387614Y158379D01*
X389214D01*
X388414Y156779D01*
X371711Y140076D02*
X370911Y141676D01*
X372511D01*
X371711Y140076D01*
X331145Y149818D02*
X330345Y151418D01*
X331945D01*
X331145Y149818D01*
X311658Y169306D02*
X310858Y170905D01*
X312458D01*
X311658Y169306D01*
X354807Y226575D02*
X354007Y228175D01*
X355607D01*
X354807Y226575D01*
X345542Y233057D02*
X344742Y234657D01*
X346342D01*
X345542Y233057D01*
X342758Y230273D02*
X341958Y231873D01*
X343558D01*
X342758Y230273D01*
X349239Y221007D02*
X348439Y222607D01*
X350039D01*
X349239Y221007D01*
X328839Y216354D02*
X328039Y217954D01*
X329639D01*
X328839Y216354D01*
X329752Y201519D02*
X328952Y203119D01*
X330552D01*
X329752Y201519D01*
X318617Y190384D02*
X317817Y191984D01*
X319417D01*
X318617Y190384D01*
X315833Y187600D02*
X315033Y189200D01*
X316633D01*
X315833Y187600D01*
X492126Y140932D02*
X491326Y142532D01*
X492926D01*
X492126Y140932D01*
X316535Y335814D02*
X315735Y337414D01*
X317335D01*
X316535Y335814D01*
Y336214D02*
X316135Y337014D01*
X316935D01*
X316535Y336214D01*
X321535Y335814D02*
X320735Y337414D01*
X322335D01*
X321535Y335814D01*
Y336214D02*
X321135Y337014D01*
X321935D01*
X321535Y336214D01*
X346535Y317743D02*
X345735Y319343D01*
X347335D01*
X346535Y317743D01*
Y318143D02*
X346135Y318943D01*
X346935D01*
X346535Y318143D01*
X336535Y268885D02*
X335735Y270485D01*
X337335D01*
X336535Y268885D01*
Y269285D02*
X336135Y270085D01*
X336935D01*
X336535Y269285D01*
X325689Y343688D02*
X324889Y345288D01*
X326489D01*
X325689Y343688D01*
Y344088D02*
X325289Y344888D01*
X326089D01*
X325689Y344088D01*
X411724Y194686D02*
X410924Y196286D01*
X412524D01*
X411724Y194686D01*
X415204Y198168D02*
X414404Y199768D01*
X416004D01*
X415204Y198168D01*
X395717Y217653D02*
X394917Y219253D01*
X396517D01*
X395717Y217653D01*
X416597Y155957D02*
X415797Y157557D01*
X417397D01*
X416597Y155957D01*
X404765Y151085D02*
X403965Y152685D01*
X405565D01*
X404765Y151085D01*
X386269Y212975D02*
X385469Y214575D01*
X387069D01*
X386269Y212975D01*
X312136Y199650D02*
X311336Y201250D01*
X312936D01*
X312136Y199650D01*
X303180Y155738D02*
X302380Y157338D01*
X303980D01*
X303180Y155738D01*
X291339Y167507D02*
X290539Y169107D01*
X292139D01*
X291339Y167507D01*
X297996Y200346D02*
X297196Y201946D01*
X298796D01*
X297996Y200346D01*
X325622Y230405D02*
X324822Y232005D01*
X326422D01*
X325622Y230405D01*
X374015Y118294D02*
X373215Y119894D01*
X374815D01*
X374015Y118294D01*
X374495Y142859D02*
X373694Y144459D01*
X375294D01*
X374495Y142859D01*
X368927Y137292D02*
X368127Y138892D01*
X369727D01*
X368927Y137292D01*
X375408Y128025D02*
X374608Y129625D01*
X376208D01*
X375408Y128025D01*
X321308Y97456D02*
X320508Y99056D01*
X322108D01*
X321308Y97456D01*
X333803Y125116D02*
X333003Y126716D01*
X334603D01*
X333803Y125116D01*
X330323Y121636D02*
X329523Y123236D01*
X331123D01*
X330323Y121636D01*
X319882Y134043D02*
X319082Y135643D01*
X320682D01*
X319882Y134043D01*
X392237Y214173D02*
X391437Y215773D01*
X393037D01*
X392237Y214173D01*
X383759Y136377D02*
X382959Y137977D01*
X384559D01*
X383759Y136377D01*
X387366Y126726D02*
X386566Y128326D01*
X388166D01*
X387366Y126726D01*
X383886Y130206D02*
X383086Y131806D01*
X384686D01*
X383886Y130206D01*
X378192Y130809D02*
X377392Y132409D01*
X378992D01*
X378192Y130809D01*
X380976Y133593D02*
X380176Y135193D01*
X381776D01*
X380976Y133593D01*
X411417Y117310D02*
X410617Y118910D01*
X412217D01*
X411417Y117310D01*
X405512D02*
X404712Y118910D01*
X406312D01*
X405512Y117310D01*
X408465Y114357D02*
X407665Y115957D01*
X409265D01*
X408465Y114357D01*
X414370D02*
X413570Y115957D01*
X415170D01*
X414370Y114357D01*
X375000Y93688D02*
X374200Y95288D01*
X375800D01*
X375000Y93688D01*
X380906D02*
X380105Y95288D01*
X381705D01*
X380906Y93688D01*
X473228Y140932D02*
X472428Y142532D01*
X474028D01*
X473228Y140932D01*
X413117Y159437D02*
X412317Y161037D01*
X413917D01*
X413117Y159437D01*
X414370Y171444D02*
X413570Y173044D01*
X415170D01*
X414370Y171444D01*
Y180302D02*
X413570Y181902D01*
X415170D01*
X414370Y180302D01*
X437008Y169476D02*
X436208Y171076D01*
X437808D01*
X437008Y169476D01*
X378796Y227615D02*
X377996Y229215D01*
X379596D01*
X378796Y227615D01*
X382368Y217745D02*
X381568Y219345D01*
X383168D01*
X382368Y217745D01*
X437008Y200972D02*
X436208Y202572D01*
X437808D01*
X437008Y200972D01*
Y226562D02*
X436208Y228162D01*
X437808D01*
X437008Y226562D01*
Y221641D02*
X436208Y223241D01*
X437808D01*
X437008Y221641D01*
X220303Y47971D02*
X219503Y49571D01*
X221103D01*
X220303Y47971D01*
X320009Y160954D02*
X319209Y162554D01*
X320809D01*
X320009Y160954D01*
X317703Y205218D02*
X316903Y206818D01*
X318503D01*
X317703Y205218D01*
X371621Y96732D02*
X370821Y98332D01*
X372421D01*
X371621Y96732D01*
X352023Y223791D02*
X351223Y225391D01*
X352823D01*
X352023Y223791D01*
D123*
X344855Y297461D02*
G03*
X344855Y297461I-800J0D01*
G01*
X389580Y280512D02*
G03*
X389580Y280512I-800J0D01*
G01*
X457493Y236220D02*
G03*
X457493Y236220I-800J0D01*
G01*
X457493Y176181D02*
G03*
X457493Y176181I-800J0D01*
G01*
X273438Y264764D02*
G03*
X273438Y264764I-800J0D01*
G01*
X273438Y137795D02*
G03*
X273438Y137795I-800J0D01*
G01*
X281312Y215158D02*
G03*
X281312Y215158I-800J0D01*
G01*
X457493Y295276D02*
G03*
X457493Y295276I-800J0D01*
G01*
X339481Y255906D02*
G03*
X339481Y255906I-800J0D01*
G01*
X676465Y256890D02*
G03*
X676465Y256890I-800J0D01*
G01*
X676465Y192913D02*
G03*
X676465Y192913I-800J0D01*
G01*
X703040Y133291D02*
G03*
X703040Y133291I-800J0D01*
G01*
Y197268D02*
G03*
X703040Y197268I-800J0D01*
G01*
X264383Y328740D02*
G03*
X264383Y328740I-800J0D01*
G01*
X226095Y330118D02*
G03*
X226095Y330118I-800J0D01*
G01*
X226095Y262402D02*
G03*
X226095Y262402I-800J0D01*
G01*
Y194488D02*
G03*
X226095Y194488I-800J0D01*
G01*
X388595Y169291D02*
G03*
X388595Y169291I-800J0D01*
G01*
X325603Y185039D02*
G03*
X325603Y185039I-800J0D01*
G01*
X349225Y145669D02*
G03*
X349225Y145669I-800J0D01*
G01*
X364973Y208661D02*
G03*
X364973Y208661I-800J0D01*
G01*
X599225Y222441D02*
G03*
X599225Y222441I-800J0D01*
G01*
X603162Y249016D02*
G03*
X603162Y249016I-800J0D01*
G01*
X334658Y310079D02*
G03*
X334658Y310079I-800J0D01*
G01*
X360052D02*
G03*
X360052Y310079I-800J0D01*
G01*
X334658Y300079D02*
G03*
X334658Y300079I-800J0D01*
G01*
Y290079D02*
G03*
X334658Y290079I-800J0D01*
G01*
Y280079D02*
G03*
X334658Y280079I-800J0D01*
G01*
X360052Y300079D02*
G03*
X360052Y300079I-800J0D01*
G01*
Y290079D02*
G03*
X360052Y290079I-800J0D01*
G01*
Y280079D02*
G03*
X360052Y280079I-800J0D01*
G01*
X298044Y272638D02*
G03*
X298044Y272638I-800J0D01*
G01*
X303950Y316929D02*
G03*
X303950Y316929I-800J0D01*
G01*
X343320Y247047D02*
G03*
X343320Y247047I-800J0D01*
G01*
X419107Y136811D02*
G03*
X419107Y136811I-800J0D01*
G01*
X264383Y205118D02*
G03*
X264383Y205118I-800J0D01*
G01*
X325720Y169409D02*
G03*
X325720Y169409I-800J0D01*
G01*
X349342Y208544D02*
G03*
X349342Y208544I-800J0D01*
G01*
X388478Y184922D02*
G03*
X388478Y184922I-800J0D01*
G01*
X364856Y145787D02*
G03*
X364856Y145787I-800J0D01*
G01*
X264383Y193110D02*
G03*
X264383Y193110I-800J0D01*
G01*
X478162Y106689D02*
G03*
X478162Y106689I-800J0D01*
G01*
X407295Y125984D02*
G03*
X407295Y125984I-800J0D01*
G01*
X389343Y106691D02*
G03*
X389343Y106691I-800J0D01*
G01*
X519265Y106691D02*
G03*
X519265Y106691I-800J0D01*
G01*
X609816D02*
G03*
X609816Y106691I-800J0D01*
G01*
X78320D02*
G03*
X78320Y106691I-800J0D01*
G01*
X168871D02*
G03*
X168871Y106691I-800J0D01*
G01*
X298792D02*
G03*
X298792Y106691I-800J0D01*
G01*
D124*
X389179Y280512D02*
G03*
X389179Y280512I-400J0D01*
G01*
X457093Y236220D02*
G03*
X457093Y236220I-400J0D01*
G01*
X457093Y176181D02*
G03*
X457093Y176181I-400J0D01*
G01*
X273038Y264764D02*
G03*
X273038Y264764I-400J0D01*
G01*
X273038Y137795D02*
G03*
X273038Y137795I-400J0D01*
G01*
X280912Y215158D02*
G03*
X280912Y215158I-400J0D01*
G01*
X457093Y295276D02*
G03*
X457093Y295276I-400J0D01*
G01*
X339081Y255906D02*
G03*
X339081Y255906I-400J0D01*
G01*
X676065Y256890D02*
G03*
X676065Y256890I-400J0D01*
G01*
X676065Y192913D02*
G03*
X676065Y192913I-400J0D01*
G01*
X702640Y133291D02*
G03*
X702640Y133291I-400J0D01*
G01*
Y197268D02*
G03*
X702640Y197268I-400J0D01*
G01*
X263983Y328740D02*
G03*
X263983Y328740I-400J0D01*
G01*
X225695Y330118D02*
G03*
X225695Y330118I-400J0D01*
G01*
X225695Y262402D02*
G03*
X225695Y262402I-400J0D01*
G01*
Y194488D02*
G03*
X225695Y194488I-400J0D01*
G01*
X388195Y169291D02*
G03*
X388195Y169291I-400J0D01*
G01*
X325203Y185039D02*
G03*
X325203Y185039I-400J0D01*
G01*
X348825Y145669D02*
G03*
X348825Y145669I-400J0D01*
G01*
X364573Y208661D02*
G03*
X364573Y208661I-400J0D01*
G01*
X598825Y222441D02*
G03*
X598825Y222441I-400J0D01*
G01*
X602762Y249016D02*
G03*
X602762Y249016I-400J0D01*
G01*
X334258Y310079D02*
G03*
X334258Y310079I-400J0D01*
G01*
X359652D02*
G03*
X359652Y310079I-400J0D01*
G01*
X334258Y300079D02*
G03*
X334258Y300079I-400J0D01*
G01*
Y290079D02*
G03*
X334258Y290079I-400J0D01*
G01*
Y280079D02*
G03*
X334258Y280079I-400J0D01*
G01*
X359652Y300079D02*
G03*
X359652Y300079I-400J0D01*
G01*
Y290079D02*
G03*
X359652Y290079I-400J0D01*
G01*
Y280079D02*
G03*
X359652Y280079I-400J0D01*
G01*
X297644Y272638D02*
G03*
X297644Y272638I-400J0D01*
G01*
X303550Y316929D02*
G03*
X303550Y316929I-400J0D01*
G01*
X342920Y247047D02*
G03*
X342920Y247047I-400J0D01*
G01*
X418707Y136811D02*
G03*
X418707Y136811I-400J0D01*
G01*
X263983Y205118D02*
G03*
X263983Y205118I-400J0D01*
G01*
X325320Y169409D02*
G03*
X325320Y169409I-400J0D01*
G01*
X348942Y208544D02*
G03*
X348942Y208544I-400J0D01*
G01*
X388078Y184922D02*
G03*
X388078Y184922I-400J0D01*
G01*
X364456Y145787D02*
G03*
X364456Y145787I-400J0D01*
G01*
X263983Y193110D02*
G03*
X263983Y193110I-400J0D01*
G01*
X477762Y106689D02*
G03*
X477762Y106689I-400J0D01*
G01*
X406895Y125984D02*
G03*
X406895Y125984I-400J0D01*
G01*
X388943Y106691D02*
G03*
X388943Y106691I-400J0D01*
G01*
X518864Y106691D02*
G03*
X518864Y106691I-400J0D01*
G01*
X609416D02*
G03*
X609416Y106691I-400J0D01*
G01*
X77920D02*
G03*
X77920Y106691I-400J0D01*
G01*
X168471D02*
G03*
X168471Y106691I-400J0D01*
G01*
X298392D02*
G03*
X298392Y106691I-400J0D01*
G01*
M02*
