G04*
G04 #@! TF.GenerationSoftware,Altium Limited,Altium Designer,18.0.9 (584)*
G04*
G04 Layer_Color=16711935*
%FSLAX25Y25*%
%MOIN*%
G70*
G01*
G75*
%ADD26R,0.06406X0.05224*%
G04:AMPARAMS|DCode=27|XSize=64.06mil|YSize=52.24mil|CornerRadius=0mil|HoleSize=0mil|Usage=FLASHONLY|Rotation=45.000|XOffset=0mil|YOffset=0mil|HoleType=Round|Shape=Rectangle|*
%AMROTATEDRECTD27*
4,1,4,-0.00418,-0.04112,-0.04112,-0.00418,0.00418,0.04112,0.04112,0.00418,-0.00418,-0.04112,0.0*
%
%ADD27ROTATEDRECTD27*%

%ADD29C,0.06406*%
%ADD30R,0.03059X0.04831*%
%ADD31R,0.22547X0.30028*%
%ADD32R,0.04634X0.13492*%
%ADD35R,0.04437X0.04240*%
%ADD36C,0.00500*%
%ADD37P,0.32033X4X360.0*%
%ADD38C,0.09161*%
%ADD39C,0.10343*%
%ADD40C,0.09894*%
%ADD41C,0.07587*%
%ADD42R,0.07587X0.07587*%
%ADD43C,0.12311*%
%ADD44C,0.24122*%
%ADD45C,0.03500*%
%ADD46C,0.03800*%
%ADD47C,0.04500*%
%ADD103R,0.04043X0.08965*%
%ADD104O,0.04043X0.08965*%
G04:AMPARAMS|DCode=105|XSize=162.48mil|YSize=91.61mil|CornerRadius=24.15mil|HoleSize=0mil|Usage=FLASHONLY|Rotation=0.000|XOffset=0mil|YOffset=0mil|HoleType=Round|Shape=RoundedRectangle|*
%AMROUNDEDRECTD105*
21,1,0.16248,0.04331,0,0,0.0*
21,1,0.11417,0.09161,0,0,0.0*
1,1,0.04831,0.05709,-0.02165*
1,1,0.04831,-0.05709,-0.02165*
1,1,0.04831,-0.05709,0.02165*
1,1,0.04831,0.05709,0.02165*
%
%ADD105ROUNDEDRECTD105*%
%ADD106O,0.04437X0.16248*%
%ADD107R,0.04437X0.16248*%
G04:AMPARAMS|DCode=108|XSize=64.06mil|YSize=52.24mil|CornerRadius=0mil|HoleSize=0mil|Usage=FLASHONLY|Rotation=270.300|XOffset=0mil|YOffset=0mil|HoleType=Round|Shape=Rectangle|*
%AMROTATEDRECTD108*
4,1,4,-0.02629,0.03189,0.02595,0.03216,0.02629,-0.03189,-0.02595,-0.03216,-0.02629,0.03189,0.0*
%
%ADD108ROTATEDRECTD108*%

%ADD109R,0.22547X0.28847*%
%ADD110R,0.04634X0.12902*%
G04:AMPARAMS|DCode=111|XSize=30.59mil|YSize=48.31mil|CornerRadius=0mil|HoleSize=0mil|Usage=FLASHONLY|Rotation=150.000|XOffset=0mil|YOffset=0mil|HoleType=Round|Shape=Rectangle|*
%AMROTATEDRECTD111*
4,1,4,0.02532,0.01327,0.00117,-0.02857,-0.02532,-0.01327,-0.00117,0.02857,0.02532,0.01327,0.0*
%
%ADD111ROTATEDRECTD111*%

G04:AMPARAMS|DCode=112|XSize=30.59mil|YSize=48.31mil|CornerRadius=0mil|HoleSize=0mil|Usage=FLASHONLY|Rotation=120.000|XOffset=0mil|YOffset=0mil|HoleType=Round|Shape=Rectangle|*
%AMROTATEDRECTD112*
4,1,4,0.02857,-0.00117,-0.01327,-0.02532,-0.02857,0.00117,0.01327,0.02532,0.02857,-0.00117,0.0*
%
%ADD112ROTATEDRECTD112*%

%ADD113R,0.04831X0.03059*%
G04:AMPARAMS|DCode=114|XSize=30.59mil|YSize=48.31mil|CornerRadius=0mil|HoleSize=0mil|Usage=FLASHONLY|Rotation=60.000|XOffset=0mil|YOffset=0mil|HoleType=Round|Shape=Rectangle|*
%AMROTATEDRECTD114*
4,1,4,0.01327,-0.02532,-0.02857,-0.00117,-0.01327,0.02532,0.02857,0.00117,0.01327,-0.02532,0.0*
%
%ADD114ROTATEDRECTD114*%

G04:AMPARAMS|DCode=115|XSize=30.59mil|YSize=48.31mil|CornerRadius=0mil|HoleSize=0mil|Usage=FLASHONLY|Rotation=30.000|XOffset=0mil|YOffset=0mil|HoleType=Round|Shape=Rectangle|*
%AMROTATEDRECTD115*
4,1,4,-0.00117,-0.02857,-0.02532,0.01327,0.00117,0.02857,0.02532,-0.01327,-0.00117,-0.02857,0.0*
%
%ADD115ROTATEDRECTD115*%

%ADD116R,0.09358X0.12114*%
G04:AMPARAMS|DCode=117|XSize=115.24mil|YSize=73.9mil|CornerRadius=0mil|HoleSize=0mil|Usage=FLASHONLY|Rotation=135.000|XOffset=0mil|YOffset=0mil|HoleType=Round|Shape=Rectangle|*
%AMROTATEDRECTD117*
4,1,4,0.06687,-0.01462,0.01462,-0.06687,-0.06687,0.01462,-0.01462,0.06687,0.06687,-0.01462,0.0*
%
%ADD117ROTATEDRECTD117*%

G04:AMPARAMS|DCode=118|XSize=115.24mil|YSize=73.9mil|CornerRadius=0mil|HoleSize=0mil|Usage=FLASHONLY|Rotation=45.000|XOffset=0mil|YOffset=0mil|HoleType=Round|Shape=Rectangle|*
%AMROTATEDRECTD118*
4,1,4,-0.01462,-0.06687,-0.06687,-0.01462,0.01462,0.06687,0.06687,0.01462,-0.01462,-0.06687,0.0*
%
%ADD118ROTATEDRECTD118*%

%ADD119R,0.07390X0.11524*%
%ADD120R,0.11130X0.27469*%
D26*
X675665Y224628D02*
D03*
Y232896D02*
D03*
Y160652D02*
D03*
Y168920D02*
D03*
X409449Y304331D02*
D03*
Y296063D02*
D03*
X416339Y304331D02*
D03*
Y296063D02*
D03*
X675665Y249825D02*
D03*
Y241558D02*
D03*
Y185849D02*
D03*
Y177581D02*
D03*
D27*
X328770Y237175D02*
D03*
X334616Y231329D02*
D03*
X334675Y243081D02*
D03*
X340522Y237234D02*
D03*
D29*
X388779Y280512D02*
D03*
X456693Y236220D02*
D03*
X456693Y176181D02*
D03*
X272638Y264764D02*
D03*
X272638Y137795D02*
D03*
X280512Y215158D02*
D03*
X456693Y295276D02*
D03*
X338681Y255906D02*
D03*
X675665Y256890D02*
D03*
X675665Y192913D02*
D03*
X702240Y133291D02*
D03*
Y197268D02*
D03*
X263583Y328740D02*
D03*
X225295Y330118D02*
D03*
X225295Y262402D02*
D03*
Y194488D02*
D03*
X387795Y169291D02*
D03*
X324803Y185039D02*
D03*
X348425Y145669D02*
D03*
X364173Y208661D02*
D03*
X598425Y222441D02*
D03*
X602362Y249016D02*
D03*
X333858Y310079D02*
D03*
X359252D02*
D03*
X333858Y300079D02*
D03*
Y290079D02*
D03*
Y280079D02*
D03*
X359252Y300079D02*
D03*
Y290079D02*
D03*
Y280079D02*
D03*
X297244Y272638D02*
D03*
X303150Y316929D02*
D03*
X342520Y247047D02*
D03*
X418307Y136811D02*
D03*
X263583Y205118D02*
D03*
X324920Y169409D02*
D03*
X348542Y208544D02*
D03*
X387678Y184922D02*
D03*
X364056Y145787D02*
D03*
X263583Y193110D02*
D03*
X477362Y106689D02*
D03*
X406495Y125984D02*
D03*
X388543Y106691D02*
D03*
X518465Y106691D02*
D03*
X609016D02*
D03*
X77520D02*
D03*
X168071D02*
D03*
X297992D02*
D03*
D30*
X618307Y99410D02*
D03*
X625787D02*
D03*
X622047Y89567D02*
D03*
X527756Y99410D02*
D03*
X535236D02*
D03*
X531496Y89567D02*
D03*
X397835Y99410D02*
D03*
X405315D02*
D03*
X401575Y89567D02*
D03*
X307283Y99410D02*
D03*
X314764D02*
D03*
X311024Y89567D02*
D03*
X177362Y99410D02*
D03*
X184843D02*
D03*
X181102Y89567D02*
D03*
X86811Y99410D02*
D03*
X94291D02*
D03*
X90551Y89567D02*
D03*
X625787Y18701D02*
D03*
X618307D02*
D03*
X622047Y28543D02*
D03*
X535236Y18701D02*
D03*
X527756D02*
D03*
X531496Y28543D02*
D03*
X405315Y18701D02*
D03*
X397835D02*
D03*
X401575Y28543D02*
D03*
X314764Y18701D02*
D03*
X307283D02*
D03*
X311024Y28543D02*
D03*
X184843Y18701D02*
D03*
X177362D02*
D03*
X181102Y28543D02*
D03*
X94291Y18701D02*
D03*
X86811D02*
D03*
X90551Y28543D02*
D03*
D31*
X235236Y171063D02*
D03*
X235236Y306693D02*
D03*
X235236Y238976D02*
D03*
D32*
X226260Y147047D02*
D03*
X244213D02*
D03*
X226260Y282677D02*
D03*
X244213D02*
D03*
X226260Y214961D02*
D03*
X244213D02*
D03*
D35*
X675665Y211046D02*
D03*
Y215967D02*
D03*
Y147069D02*
D03*
Y151991D02*
D03*
D36*
X622047Y59055D02*
D03*
X531496D02*
D03*
X401575D02*
D03*
X311024D02*
D03*
X181102D02*
D03*
X90551D02*
D03*
X344055Y297461D02*
D03*
D37*
X356299Y177165D02*
D03*
D38*
X582677Y157480D02*
D03*
Y314961D02*
D03*
X129921Y157480D02*
D03*
Y314961D02*
D03*
D39*
X528543Y187008D02*
D03*
Y285433D02*
D03*
X636811Y187008D02*
D03*
Y206693D02*
D03*
Y265748D02*
D03*
Y285433D02*
D03*
X75787Y187008D02*
D03*
Y285433D02*
D03*
X184055Y187008D02*
D03*
Y206693D02*
D03*
Y265748D02*
D03*
Y285433D02*
D03*
D40*
X612697Y75251D02*
D03*
X522146D02*
D03*
X392224D02*
D03*
X301673D02*
D03*
X171752D02*
D03*
X81201D02*
D03*
X631398Y42860D02*
D03*
X540846D02*
D03*
X410925D02*
D03*
X320374D02*
D03*
X190453D02*
D03*
X99902D02*
D03*
X622047Y40354D02*
D03*
X531496D02*
D03*
X401575D02*
D03*
X311024D02*
D03*
X181102D02*
D03*
X90551D02*
D03*
X638243Y49705D02*
D03*
X547691D02*
D03*
X417770D02*
D03*
X327219D02*
D03*
X197298D02*
D03*
X106747D02*
D03*
X640748Y59055D02*
D03*
X550197D02*
D03*
X420276D02*
D03*
X329724D02*
D03*
X199803D02*
D03*
X109252D02*
D03*
X638243Y68405D02*
D03*
X547691D02*
D03*
X417770D02*
D03*
X327219D02*
D03*
X197298D02*
D03*
X106747D02*
D03*
X631398Y75251D02*
D03*
X540846D02*
D03*
X410925D02*
D03*
X320374D02*
D03*
X190453D02*
D03*
X99902D02*
D03*
X612697Y42860D02*
D03*
X522146D02*
D03*
X392224D02*
D03*
X301673D02*
D03*
X171752D02*
D03*
X81201D02*
D03*
X605852Y49705D02*
D03*
X515301D02*
D03*
X385379D02*
D03*
X294828D02*
D03*
X164907D02*
D03*
X74356D02*
D03*
X603346Y59055D02*
D03*
X512795D02*
D03*
X382874D02*
D03*
X292323D02*
D03*
X162402D02*
D03*
X71850D02*
D03*
X605852Y68405D02*
D03*
X515301D02*
D03*
X385379D02*
D03*
X294828D02*
D03*
X164907Y68405D02*
D03*
X74356Y68405D02*
D03*
X631398Y75251D02*
D03*
X638243Y68405D02*
D03*
X640748Y59055D02*
D03*
X638243Y49705D02*
D03*
X631398Y42860D02*
D03*
X622047Y40354D02*
D03*
X612697Y42860D02*
D03*
X605852Y49705D02*
D03*
X603346Y59055D02*
D03*
X605852Y68405D02*
D03*
X612697Y75251D02*
D03*
X540846D02*
D03*
X547691Y68405D02*
D03*
X550197Y59055D02*
D03*
X547691Y49705D02*
D03*
X540846Y42860D02*
D03*
X531496Y40354D02*
D03*
X522146Y42860D02*
D03*
X515301Y49705D02*
D03*
X512795Y59055D02*
D03*
X515301Y68405D02*
D03*
X522146Y75251D02*
D03*
X410925D02*
D03*
X417770Y68405D02*
D03*
X420276Y59055D02*
D03*
X417770Y49705D02*
D03*
X410925Y42860D02*
D03*
X401575Y40354D02*
D03*
X392224Y42860D02*
D03*
X385379Y49705D02*
D03*
X382874Y59055D02*
D03*
X385379Y68405D02*
D03*
X392224Y75251D02*
D03*
X320374D02*
D03*
X327219Y68405D02*
D03*
X329724Y59055D02*
D03*
X327219Y49705D02*
D03*
X320374Y42860D02*
D03*
X311024Y40354D02*
D03*
X301673Y42860D02*
D03*
X294828Y49705D02*
D03*
X292323Y59055D02*
D03*
X294828Y68405D02*
D03*
X301673Y75251D02*
D03*
X190453D02*
D03*
X197298Y68405D02*
D03*
X199803Y59055D02*
D03*
X197298Y49705D02*
D03*
X190453Y42860D02*
D03*
X181102Y40354D02*
D03*
X171752Y42860D02*
D03*
X164907Y49705D02*
D03*
X162402Y59055D02*
D03*
X164907Y68405D02*
D03*
X171752Y75251D02*
D03*
X99902D02*
D03*
X106747Y68405D02*
D03*
X109252Y59055D02*
D03*
X106747Y49705D02*
D03*
X99902Y42860D02*
D03*
X90551Y40354D02*
D03*
X81201Y42860D02*
D03*
X74356Y49705D02*
D03*
X71850Y59055D02*
D03*
X74356Y68405D02*
D03*
X81201Y75251D02*
D03*
D41*
X32795Y153543D02*
D03*
X12795Y118110D02*
D03*
D42*
Y153543D02*
D03*
X32795Y118110D02*
D03*
D43*
X19685Y285433D02*
D03*
Y196457D02*
D03*
D44*
X685039Y27559D02*
D03*
Y326772D02*
D03*
X27559D02*
D03*
Y27559D02*
D03*
D45*
X437008Y191929D02*
D03*
Y187008D02*
D03*
X433070Y145669D02*
D03*
X430118Y142717D02*
D03*
Y148622D02*
D03*
X433071Y151575D02*
D03*
X403247Y156664D02*
D03*
X521212Y19854D02*
D03*
X400463Y153880D02*
D03*
X502989Y30248D02*
D03*
X396766Y165930D02*
D03*
X492405Y48361D02*
D03*
X392589Y192577D02*
D03*
X395373Y189793D02*
D03*
X389805Y195361D02*
D03*
X401856Y199058D02*
D03*
X403372Y203837D02*
D03*
X650554Y87862D02*
D03*
X492295Y69339D02*
D03*
X632331Y98256D02*
D03*
X437008Y196850D02*
D03*
X560003Y87862D02*
D03*
X397566Y231436D02*
D03*
X271823Y69339D02*
D03*
X366143Y135308D02*
D03*
X298216Y186531D02*
D03*
X307481Y180049D02*
D03*
X287859Y164815D02*
D03*
X313527Y152489D02*
D03*
X209909Y30548D02*
D03*
X142011Y48361D02*
D03*
X119358Y30548D02*
D03*
X333929Y147835D02*
D03*
X342302Y139461D02*
D03*
X335799Y224113D02*
D03*
X326968Y199536D02*
D03*
X332536Y205103D02*
D03*
X364750Y220416D02*
D03*
X542190Y19964D02*
D03*
X560303Y30548D02*
D03*
X570697Y48771D02*
D03*
X570587Y69749D02*
D03*
X541780Y98256D02*
D03*
X520802Y98146D02*
D03*
X582846Y69339D02*
D03*
X582956Y48361D02*
D03*
X593540Y30248D02*
D03*
X611763Y19854D02*
D03*
X632741Y19964D02*
D03*
X650854Y30548D02*
D03*
X661248Y48771D02*
D03*
X661138Y69749D02*
D03*
X611353Y98146D02*
D03*
X271932Y48361D02*
D03*
X282517Y30248D02*
D03*
X300739Y19854D02*
D03*
X321718Y19964D02*
D03*
X339831Y30548D02*
D03*
X350225Y48771D02*
D03*
X350115Y69749D02*
D03*
X339531Y87862D02*
D03*
X300330Y98146D02*
D03*
X362374Y69339D02*
D03*
X362484Y48361D02*
D03*
X373068Y30248D02*
D03*
X391291Y19854D02*
D03*
X412269Y19964D02*
D03*
X430382Y30548D02*
D03*
X440776Y48771D02*
D03*
X440666Y69749D02*
D03*
X430082Y87862D02*
D03*
X411859Y98256D02*
D03*
X390881Y98146D02*
D03*
X141901Y69339D02*
D03*
X152596Y30248D02*
D03*
X170818Y19854D02*
D03*
X191797Y19964D02*
D03*
X220194Y69749D02*
D03*
X209609Y87862D02*
D03*
X191387Y98256D02*
D03*
X170408Y98146D02*
D03*
X100835Y98256D02*
D03*
X79857Y98146D02*
D03*
X51350Y69339D02*
D03*
X119058Y87862D02*
D03*
X129642Y69749D02*
D03*
X129752Y48771D02*
D03*
X101245Y19964D02*
D03*
X80267Y19854D02*
D03*
X51460Y48361D02*
D03*
X62044Y30248D02*
D03*
X371233Y229681D02*
D03*
X373102Y212064D02*
D03*
X378670Y206496D02*
D03*
X375886Y209280D02*
D03*
X387021Y198144D02*
D03*
X399072Y201842D02*
D03*
X400941Y184225D02*
D03*
X405117Y174282D02*
D03*
X391198Y160363D02*
D03*
X393982Y163147D02*
D03*
X385630Y154795D02*
D03*
X394895Y148312D02*
D03*
X388414Y157579D02*
D03*
X371711Y140876D02*
D03*
X331145Y150618D02*
D03*
X311658Y170106D02*
D03*
X354807Y227375D02*
D03*
X345542Y233857D02*
D03*
X342758Y231073D02*
D03*
X349239Y221807D02*
D03*
X328839Y217154D02*
D03*
X329752Y202320D02*
D03*
X318617Y191184D02*
D03*
X315833Y188400D02*
D03*
X492126Y141732D02*
D03*
X411724Y195486D02*
D03*
X415204Y198968D02*
D03*
X395717Y218453D02*
D03*
X416597Y156757D02*
D03*
X404765Y151885D02*
D03*
X386269Y213775D02*
D03*
X312136Y200450D02*
D03*
X303180Y156538D02*
D03*
X291339Y168307D02*
D03*
X297996Y201146D02*
D03*
X325622Y231205D02*
D03*
X374015Y119094D02*
D03*
X374495Y143659D02*
D03*
X368927Y138092D02*
D03*
X375408Y128825D02*
D03*
X321308Y98256D02*
D03*
X333803Y125916D02*
D03*
X330323Y122436D02*
D03*
X319882Y134843D02*
D03*
X392237Y214973D02*
D03*
X383759Y137177D02*
D03*
X387366Y127526D02*
D03*
X383886Y131006D02*
D03*
X378192Y131609D02*
D03*
X380976Y134393D02*
D03*
X411417Y118110D02*
D03*
X405512D02*
D03*
X408465Y115157D02*
D03*
X414370D02*
D03*
X375000Y94488D02*
D03*
X380906D02*
D03*
X473228Y141732D02*
D03*
X413117Y160237D02*
D03*
X414370Y172244D02*
D03*
Y181102D02*
D03*
X437008Y170276D02*
D03*
X378796Y228415D02*
D03*
X382368Y218545D02*
D03*
X437008Y201772D02*
D03*
Y227362D02*
D03*
Y222441D02*
D03*
X220303Y48771D02*
D03*
X320009Y161754D02*
D03*
X317703Y206018D02*
D03*
X371621Y97532D02*
D03*
X352023Y224591D02*
D03*
D46*
X356299Y189414D02*
D03*
X359362Y186352D02*
D03*
X362424Y183290D02*
D03*
X365486Y180228D02*
D03*
X368548Y177165D02*
D03*
X353237Y186352D02*
D03*
X356299Y183290D02*
D03*
X359362Y180228D02*
D03*
X362424Y177165D02*
D03*
X365486Y174103D02*
D03*
X350175Y183290D02*
D03*
X353237Y180228D02*
D03*
X359362Y174103D02*
D03*
X362424Y171041D02*
D03*
X347112Y180228D02*
D03*
X350175Y177165D02*
D03*
X353237Y174103D02*
D03*
X356299Y171041D02*
D03*
X359362Y167979D02*
D03*
X344050Y177165D02*
D03*
X347112Y174103D02*
D03*
X350175Y171041D02*
D03*
X353237Y167979D02*
D03*
X356299Y164916D02*
D03*
D47*
X316535Y336614D02*
D03*
X321535D02*
D03*
X346535Y318543D02*
D03*
X336535Y269685D02*
D03*
X325689Y344488D02*
D03*
D103*
X272638Y160039D02*
D03*
X272638Y295670D02*
D03*
X272638Y227953D02*
D03*
D104*
X263583Y160039D02*
D03*
X254527D02*
D03*
X263583Y295670D02*
D03*
X254527D02*
D03*
X263583Y227953D02*
D03*
X254527D02*
D03*
D105*
X263583Y183071D02*
D03*
X263583Y318701D02*
D03*
X263583Y250984D02*
D03*
D106*
X702240Y246479D02*
D03*
X686492Y211046D02*
D03*
X702240D02*
D03*
Y182502D02*
D03*
X686492Y147069D02*
D03*
X702240D02*
D03*
D107*
X686492Y246479D02*
D03*
Y182502D02*
D03*
D108*
X625923Y108289D02*
D03*
X617656Y108245D02*
D03*
X535372Y108289D02*
D03*
X527105Y108245D02*
D03*
X405451Y108289D02*
D03*
X397183Y108245D02*
D03*
X314900Y108289D02*
D03*
X306632Y108245D02*
D03*
X184978Y108289D02*
D03*
X176711Y108245D02*
D03*
X94427Y108289D02*
D03*
X86160Y108245D02*
D03*
D109*
X391732Y316142D02*
D03*
D110*
X382874Y292126D02*
D03*
X400591D02*
D03*
D111*
X638985Y95873D02*
D03*
X645464Y92133D02*
D03*
X637303Y85479D02*
D03*
X548434Y95873D02*
D03*
X554912Y92133D02*
D03*
X546752Y85479D02*
D03*
X418513Y95873D02*
D03*
X424991Y92133D02*
D03*
X416831Y85479D02*
D03*
X327962Y95873D02*
D03*
X334440Y92133D02*
D03*
X326279Y85479D02*
D03*
X198040Y95873D02*
D03*
X204519Y92133D02*
D03*
X196358Y85479D02*
D03*
X107489Y95873D02*
D03*
X113967Y92133D02*
D03*
X105807Y85479D02*
D03*
X605109Y22237D02*
D03*
X598631Y25977D02*
D03*
X606791Y32631D02*
D03*
X514558Y22237D02*
D03*
X508080Y25977D02*
D03*
X516240Y32631D02*
D03*
X384637Y22237D02*
D03*
X378159Y25977D02*
D03*
X386319Y32631D02*
D03*
X294086Y22237D02*
D03*
X287607Y25977D02*
D03*
X295768Y32631D02*
D03*
X164164Y22237D02*
D03*
X157686Y25977D02*
D03*
X165846Y32631D02*
D03*
X73613Y22237D02*
D03*
X67135Y25977D02*
D03*
X75295Y32631D02*
D03*
D112*
X655125Y82471D02*
D03*
X658865Y75993D02*
D03*
X648471Y74311D02*
D03*
X564574Y82471D02*
D03*
X568314Y75993D02*
D03*
X557920Y74311D02*
D03*
X434653Y82471D02*
D03*
X438393Y75993D02*
D03*
X427999Y74311D02*
D03*
X344101Y82471D02*
D03*
X347842Y75993D02*
D03*
X337448Y74311D02*
D03*
X214180Y82471D02*
D03*
X217920Y75993D02*
D03*
X207526Y74311D02*
D03*
X123629Y82471D02*
D03*
X127369Y75993D02*
D03*
X116975Y74311D02*
D03*
X588969Y35639D02*
D03*
X585229Y42117D02*
D03*
X595623Y43799D02*
D03*
X498418Y35639D02*
D03*
X494678Y42117D02*
D03*
X505072Y43799D02*
D03*
X368497Y35639D02*
D03*
X364757Y42117D02*
D03*
X375151Y43799D02*
D03*
X277946Y35639D02*
D03*
X274206Y42117D02*
D03*
X284600Y43799D02*
D03*
X148025Y35639D02*
D03*
X144284Y42117D02*
D03*
X154678Y43799D02*
D03*
X57473Y35639D02*
D03*
X53733Y42117D02*
D03*
X64127Y43799D02*
D03*
D113*
X662402Y62795D02*
D03*
Y55315D02*
D03*
X652559Y59055D02*
D03*
X571850Y62795D02*
D03*
Y55315D02*
D03*
X562008Y59055D02*
D03*
X441929Y62795D02*
D03*
Y55315D02*
D03*
X432087Y59055D02*
D03*
X351378Y62795D02*
D03*
Y55315D02*
D03*
X341535Y59055D02*
D03*
X221457Y62795D02*
D03*
Y55315D02*
D03*
X211614Y59055D02*
D03*
X130905Y62795D02*
D03*
Y55315D02*
D03*
X121063Y59055D02*
D03*
X581693Y55315D02*
D03*
Y62795D02*
D03*
X591535Y59055D02*
D03*
X491142Y55315D02*
D03*
Y62795D02*
D03*
X500984Y59055D02*
D03*
X361220Y55315D02*
D03*
Y62795D02*
D03*
X371063Y59055D02*
D03*
X270669Y55315D02*
D03*
Y62795D02*
D03*
X280512Y59055D02*
D03*
X140748Y55315D02*
D03*
Y62795D02*
D03*
X150591Y59055D02*
D03*
X50197Y55315D02*
D03*
Y62795D02*
D03*
X60039Y59055D02*
D03*
D114*
X658865Y42117D02*
D03*
X655125Y35639D02*
D03*
X648471Y43799D02*
D03*
X568314Y42117D02*
D03*
X564574Y35639D02*
D03*
X557920Y43799D02*
D03*
X438393Y42117D02*
D03*
X434653Y35639D02*
D03*
X427999Y43799D02*
D03*
X347842Y42117D02*
D03*
X344101Y35639D02*
D03*
X337448Y43799D02*
D03*
X217920Y42117D02*
D03*
X214180Y35639D02*
D03*
X207526Y43799D02*
D03*
X127369Y42117D02*
D03*
X123629Y35639D02*
D03*
X116975Y43799D02*
D03*
X585229Y75993D02*
D03*
X588969Y82471D02*
D03*
X595623Y74311D02*
D03*
X494678Y75993D02*
D03*
X498418Y82471D02*
D03*
X505072Y74311D02*
D03*
X364757Y75993D02*
D03*
X368497Y82471D02*
D03*
X375151Y74311D02*
D03*
X274206Y75993D02*
D03*
X277946Y82471D02*
D03*
X284600Y74311D02*
D03*
X144284Y75993D02*
D03*
X148024Y82471D02*
D03*
X154678Y74311D02*
D03*
X53733Y75993D02*
D03*
X57473Y82471D02*
D03*
X64127Y74311D02*
D03*
D115*
X645464Y25977D02*
D03*
X638985Y22237D02*
D03*
X637303Y32631D02*
D03*
X554912Y25977D02*
D03*
X548434Y22237D02*
D03*
X546752Y32631D02*
D03*
X424991Y25977D02*
D03*
X418513Y22237D02*
D03*
X416831Y32631D02*
D03*
X334440Y25977D02*
D03*
X327962Y22237D02*
D03*
X326279Y32631D02*
D03*
X204519Y25977D02*
D03*
X198040Y22237D02*
D03*
X196358Y32631D02*
D03*
X113967Y25977D02*
D03*
X107489Y22237D02*
D03*
X105807Y32631D02*
D03*
D116*
X378937Y246850D02*
D03*
Y259842D02*
D03*
X395669Y259843D02*
D03*
Y246850D02*
D03*
X412401Y246850D02*
D03*
Y259842D02*
D03*
X412402Y272441D02*
D03*
Y285433D02*
D03*
D117*
X341545Y152667D02*
D03*
X348643Y159766D02*
D03*
X371054Y201664D02*
D03*
X363955Y194565D02*
D03*
X331801Y162411D02*
D03*
X338900Y169510D02*
D03*
X380797Y191920D02*
D03*
X373698Y184821D02*
D03*
D118*
X331801Y191920D02*
D03*
X338900Y184821D02*
D03*
X380797Y162411D02*
D03*
X373698Y169510D02*
D03*
X341545Y201664D02*
D03*
X348643Y194565D02*
D03*
X371054Y152667D02*
D03*
X363955Y159766D02*
D03*
D119*
X262598Y147244D02*
D03*
X272638D02*
D03*
X243209Y194488D02*
D03*
X233169D02*
D03*
X262598Y282874D02*
D03*
X272638D02*
D03*
X243209Y330118D02*
D03*
X233169D02*
D03*
X262598Y215157D02*
D03*
X272638D02*
D03*
X243209Y262401D02*
D03*
X233169D02*
D03*
D120*
X456693Y156890D02*
D03*
Y213189D02*
D03*
Y315551D02*
D03*
Y259252D02*
D03*
M02*
